<svg version="1.2" baseProfile="tiny-ps" xmlns="http://www.w3.org/2000/svg" viewBox="0 0 388 562" width="388" height="562">
	<title>Deck</title>
	<style>
		tspan { white-space:pre }
		.shp0 { fill: #ffffff } 
		.shp1 { fill: #131313 } 
		.shp2 { fill: #ea323c } 
	</style>
	<g id="Background">
		<path id="Path 0" class="shp0" d="M27.5 2.69C24.17 3.51 19.28 5.72 16.5 7.67C13.75 9.6 9.85 13.5 7.84 16.34C5.51 19.63 3.61 23.95 2.59 28.25C1.16 34.33 1 59.36 1 281C1 502.64 1.16 527.67 2.59 533.75C3.61 538.05 5.51 542.37 7.84 545.66C9.85 548.5 13.75 552.39 16.5 554.32C19.57 556.46 24.1 558.43 28.25 559.41C34.28 560.83 51.98 561 194 561C336.02 561 353.72 560.83 359.75 559.41C364.05 558.39 368.37 556.49 371.66 554.16C374.5 552.15 378.39 548.25 380.32 545.5C382.46 542.43 384.43 537.9 385.41 533.75C386.84 527.67 387 502.64 387 281C387 59.36 386.84 34.33 385.41 28.25C384.39 23.95 382.49 19.63 380.16 16.34C378.15 13.5 374.25 9.61 371.5 7.68C368.43 5.54 363.9 3.57 359.75 2.59C353.71 1.17 336.21 1.01 193.25 1.11C56.31 1.21 32.64 1.43 27.5 2.69Z" />
		<path id="Path 1" class="shp1" d="M33.34 29.4C32.15 30.12 30.48 31.8 29.63 33.11C28.23 35.25 28.07 60.68 28.04 280.75C28.01 474.95 28.26 526.55 29.25 528.62C29.94 530.06 31.74 531.86 33.25 532.62C35.55 533.78 61.67 534 194 534C326.33 534 352.45 533.78 354.75 532.62C356.26 531.86 358.06 530.06 358.75 528.62C359.74 526.55 360 474.94 360 281C360 87.06 359.74 35.45 358.75 33.38C358.06 31.94 356.26 30.14 354.75 29.38C352.45 28.22 326.35 28.01 193.75 28.04C64.2 28.06 35.11 28.31 33.34 29.4Z" />
		<path id="Path 2" class="shp2" d="M196.5 116.06C192.65 116.58 184.78 118.18 179 119.6C173.22 121.03 164.68 123.67 160 125.46C155.32 127.26 147.9 130.54 143.5 132.76C139.1 134.98 131.45 139.46 126.5 142.72C121.55 145.97 113.45 152.02 108.5 156.14C103.55 160.27 96.4 166.99 92.62 171.07C88.83 175.16 83.16 181.88 80.01 186C76.86 190.13 72.11 196.88 69.45 201C66.79 205.13 61.79 214.35 58.34 221.5C54.88 228.65 50.51 239.22 48.63 245C46.75 250.78 44.29 259.77 43.17 265C42.05 270.23 40.65 278.89 40.07 284.25C39.48 289.61 39 298.27 39 303.5C39 308.73 39.66 318.06 40.47 324.25C41.28 330.44 43.05 339.77 44.4 345C45.76 350.23 48.61 358.77 50.74 364C52.88 369.23 56.46 376.65 58.7 380.5C60.94 384.35 65.45 391.1 68.72 395.5C71.98 399.9 78.47 407.1 83.14 411.5C87.81 415.9 94.75 421.6 98.56 424.16C102.38 426.72 109.1 430.67 113.5 432.93C117.9 435.2 126.22 438.56 132 440.42C137.78 442.27 145.88 444.4 150 445.14C154.54 445.96 164.21 446.47 174.5 446.42C187.82 446.36 193.66 445.88 201.5 444.21C207 443.04 215.78 440.69 221 438.99C226.22 437.3 235.22 433.64 241 430.88C246.78 428.11 255.32 423.35 260 420.31C264.68 417.27 272.55 411.51 277.5 407.52C282.45 403.52 290.06 396.49 294.4 391.88C298.75 387.27 304.87 380.13 308.01 376C311.15 371.88 315.89 365.13 318.55 361C321.21 356.88 326.21 347.65 329.66 340.5C333.12 333.35 337.49 322.77 339.37 317C341.25 311.23 343.71 302.23 344.83 297C345.95 291.77 347.35 283.11 347.93 277.75C348.52 272.39 349 263.73 349 258.5C349 253.28 348.34 243.94 347.53 237.75C346.72 231.56 344.95 222.22 343.6 217C342.24 211.78 339.39 203.22 337.26 198C335.12 192.78 331.54 185.35 329.3 181.5C327.06 177.65 322.55 170.9 319.28 166.5C316.02 162.1 309.53 154.9 304.86 150.5C300.19 146.1 293.25 140.4 289.44 137.84C285.62 135.28 278.9 131.34 274.5 129.08C270.1 126.83 262.45 123.64 257.5 121.99C252.55 120.35 245.13 118.32 241 117.49C236.88 116.65 226.75 115.78 218.5 115.54C210.25 115.3 200.35 115.54 196.5 116.06Z" />
	</g>
</svg>