<svg version="1.2" baseProfile="tiny-ps" xmlns="http://www.w3.org/2000/svg" viewBox="0 0 388 562" width="388" height="562">
	<title>Blue_5</title>
	<style>
		tspan { white-space:pre }
		.shp0 { fill: #ffffff } 
		.shp1 { fill: #0098dc } 
	</style>
	<g id="Background">
		<path id="Path 0" class="shp0" d="M27.5 2.69C24.17 3.51 19.28 5.72 16.5 7.67C13.75 9.6 9.85 13.5 7.84 16.34C5.51 19.63 3.61 23.95 2.59 28.25C1.16 34.33 1 59.36 1 281C1 502.64 1.16 527.67 2.59 533.75C3.61 538.05 5.51 542.37 7.84 545.66C9.85 548.5 13.75 552.39 16.5 554.32C19.57 556.46 24.1 558.43 28.25 559.41C34.28 560.83 51.98 561 194 561C336.02 561 353.72 560.83 359.75 559.41C364.05 558.39 368.37 556.49 371.66 554.16C374.5 552.15 378.39 548.25 380.32 545.5C382.46 542.43 384.43 537.9 385.41 533.75C386.84 527.67 387 502.64 387 281C387 59.36 386.84 34.33 385.41 28.25C384.39 23.95 382.49 19.63 380.16 16.34C378.15 13.5 374.25 9.61 371.5 7.68C368.43 5.54 363.9 3.57 359.75 2.59C353.71 1.17 336.21 1.01 193.25 1.11C56.31 1.21 32.64 1.43 27.5 2.69Z" />
		<path id="Path 1" class="shp1" d="M33.34 29.4C32.15 30.12 30.48 31.8 29.63 33.11C28.23 35.25 28.07 60.68 28.04 280.75C28.01 474.95 28.26 526.55 29.25 528.62C29.94 530.06 31.74 531.86 33.25 532.62C35.55 533.78 61.67 534 194 534C326.33 534 352.45 533.78 354.75 532.62C356.26 531.86 358.06 530.06 358.75 528.62C359.74 526.55 360 474.94 360 281C360 87.06 359.74 35.45 358.75 33.38C358.06 31.94 356.26 30.14 354.75 29.38C352.45 28.22 326.35 28.01 193.75 28.04C64.2 28.06 35.11 28.31 33.34 29.4Z" />
		<path id="Path 2" class="shp0" d="M72 37.57C55.23 39.4 40.71 40.91 39.75 40.94C38.19 40.99 38 42.19 38.02 51.75C38.03 57.66 38.71 65.65 39.53 69.5C40.36 73.35 42.04 78.48 43.26 80.91C44.49 83.33 46.74 86.15 48.25 87.16C49.89 88.26 54.32 89.39 59.25 89.97C63.79 90.5 68.51 91.18 69.75 91.47C70.99 91.76 72 92.67 72 93.5C72 94.33 70.99 95.41 69.75 95.9C68.51 96.4 63.11 97.19 57.75 97.65C49.8 98.34 48.09 98.78 48.46 100C48.71 100.83 49.83 106.79 50.96 113.25L53 125C58.04 124.29 61.75 123.81 64.5 123.47C67.25 123.13 72.42 122.14 76 121.27C79.58 120.4 84.75 118.72 87.5 117.53C90.25 116.35 94.48 113.6 96.9 111.44C99.32 109.27 101.91 106.04 102.65 104.25C103.39 102.46 103.99 97.96 103.99 94.25C103.98 89.26 103.39 86.36 101.74 83.12C100.51 80.72 98.15 77.94 96.5 76.96C94.85 75.97 90.58 74.64 87 74C83.42 73.37 78.59 71.98 76.25 70.92C73.91 69.87 72 68.33 72 67.5C72 66.23 73.51 66.08 81.75 66.55C87.11 66.85 93.19 67.3 95.25 67.55C98.51 67.94 99.07 67.7 99.5 65.75C99.77 64.51 101.35 56.98 103 49C104.66 41.02 106.01 34.39 106.01 34.25C106 34.11 105.21 34.06 104.25 34.13C103.29 34.2 88.78 35.75 72 37.57ZM196.5 116.06C192.65 116.58 184.78 118.18 179 119.6C173.22 121.03 164.68 123.67 160 125.46C155.32 127.26 147.9 130.54 143.5 132.76C139.1 134.98 131.45 139.46 126.5 142.72C121.55 145.97 113.45 152.02 108.5 156.14C103.55 160.27 96.4 166.99 92.62 171.07C88.83 175.16 83.16 181.88 80.01 186C76.86 190.13 72.11 196.88 69.45 201C66.79 205.13 61.79 214.35 58.34 221.5C54.88 228.65 50.51 239.22 48.63 245C46.75 250.78 44.29 259.77 43.17 265C42.05 270.23 40.65 278.89 40.07 284.25C39.48 289.61 39 298.27 39 303.5C39 308.73 39.66 318.06 40.47 324.25C41.28 330.44 43.05 339.77 44.4 345C45.76 350.23 48.61 358.77 50.74 364C52.88 369.23 56.46 376.65 58.7 380.5C60.94 384.35 65.45 391.1 68.72 395.5C71.98 399.9 78.47 407.1 83.14 411.5C87.81 415.9 94.75 421.6 98.56 424.16C102.38 426.72 109.1 430.67 113.5 432.93C117.9 435.2 126.22 438.56 132 440.42C137.78 442.27 145.88 444.4 150 445.14C154.54 445.96 164.21 446.47 174.5 446.42C187.82 446.36 193.66 445.88 201.5 444.21C207 443.04 215.78 440.69 221 438.99C226.22 437.3 235.22 433.64 241 430.88C246.78 428.11 255.32 423.35 260 420.31C264.68 417.27 272.55 411.51 277.5 407.52C282.45 403.52 290.06 396.49 294.4 391.88C298.75 387.27 304.87 380.13 308.01 376C311.15 371.88 315.89 365.13 318.55 361C321.21 356.88 326.21 347.65 329.66 340.5C333.12 333.35 337.49 322.77 339.37 317C341.25 311.23 343.71 302.23 344.83 297C345.95 291.77 347.35 283.11 347.93 277.75C348.52 272.39 349 263.73 349 258.5C349 253.28 348.34 243.94 347.53 237.75C346.72 231.56 344.95 222.22 343.6 217C342.24 211.78 339.39 203.22 337.26 198C335.12 192.78 331.54 185.35 329.3 181.5C327.06 177.65 322.55 170.9 319.28 166.5C316.02 162.1 309.53 154.9 304.86 150.5C300.19 146.1 293.25 140.4 289.44 137.84C285.62 135.28 278.9 131.34 274.5 129.08C270.1 126.83 262.45 123.64 257.5 121.99C252.55 120.35 245.13 118.32 241 117.49C236.88 116.65 226.75 115.78 218.5 115.54C210.25 115.3 200.35 115.54 196.5 116.06Z" />
		<path id="Path 3" class="shp1" d="M189.5 179.54C151.55 183.55 120.28 186.87 120 186.92C119.72 186.96 119.82 195.21 120.21 205.25C120.6 215.29 121.61 228.68 122.44 235C123.28 241.32 124.87 250.1 125.97 254.5C127.08 258.9 129.75 266.1 131.9 270.5C134.44 275.68 137.52 280.12 140.66 283.1C144.08 286.34 147.12 288.16 151 289.29C154.03 290.16 162.13 291.35 169 291.92C175.88 292.49 183.8 293.53 186.61 294.23C189.42 294.93 192.7 296.4 193.89 297.5C195.09 298.6 196.05 300.29 196.03 301.25C196.01 302.21 194.99 303.68 193.75 304.5C192.51 305.33 187.9 306.66 183.5 307.47C178.75 308.34 169.1 308.94 159.75 308.97C144.68 309 144 309.09 144 311C144 312.1 146.25 325.04 149 339.75C151.76 354.46 154.01 366.61 154 366.75C154 366.89 155.35 367 157 367C158.65 367 165.29 366.32 171.75 365.49C178.21 364.67 188.9 362.88 195.5 361.53C202.1 360.18 212.22 357.43 218 355.43C223.78 353.43 230.97 350.54 234 349.01C237.03 347.48 242.2 344.19 245.5 341.7C248.8 339.21 253.17 335 255.22 332.34C257.26 329.68 259.91 325.02 261.11 322C262.75 317.87 263.41 313.63 263.77 305C264.06 297.83 263.78 291.43 263.02 288C262.34 284.98 260.38 279.84 258.65 276.59C256.92 273.34 253.7 269.22 251.5 267.42C249.3 265.62 245.25 263.2 242.5 262.03C239.75 260.86 232.55 259.03 226.5 257.98C220.45 256.92 213.03 255.32 210 254.42C206.97 253.52 203.15 252.08 201.5 251.21C199.85 250.35 197.47 248.49 196.22 247.07C194.96 245.66 193.95 243.26 193.97 241.75C194 239.04 194.08 239.01 199.25 239.47C202.14 239.73 215.16 240.74 228.18 241.72C241.21 242.7 252.12 243.28 252.44 243C252.76 242.72 256.16 227.43 259.99 209C263.83 190.57 267.2 174.71 267.48 173.75C267.93 172.25 267.33 172.02 263.25 172.12C260.64 172.18 227.45 175.52 189.5 179.54Z" />
		<path id="Path 4" class="shp0" d="M319 428.09C315.43 428.55 309.35 429.68 305.5 430.61C301.65 431.54 296.25 433.27 293.5 434.46C290.75 435.65 286.7 438.21 284.5 440.16C282.3 442.1 279.71 445.34 278.75 447.35C277.61 449.73 277 453.35 277.01 457.75C277.02 462.74 277.61 465.64 279.26 468.88C280.49 471.28 282.85 474.06 284.5 475.04C286.15 476.03 290.43 477.36 294 478C297.57 478.63 302.41 480.02 304.75 481.08C307.09 482.13 309 483.68 309 484.5C309 485.53 307.99 485.99 305.75 485.96C303.96 485.94 298 485.53 292.5 485.04C287 484.55 282.4 484.23 282.27 484.33C282.15 484.42 280.47 491.93 278.56 501C276.64 510.07 275.17 517.58 275.29 517.67C275.4 517.77 290.57 516.28 309 514.35C327.43 512.43 342.73 510.63 343 510.35C343.27 510.06 343.36 505.26 343.19 499.67C343.03 494.07 342.23 486.35 341.43 482.5C340.63 478.65 338.97 473.52 337.74 471.09C336.51 468.67 334.26 465.85 332.75 464.84C331.11 463.74 326.68 462.61 321.75 462.03C317.21 461.5 312.49 460.82 311.25 460.53C310.01 460.24 309 459.32 309 458.5C309 457.68 310.01 456.59 311.25 456.1C312.49 455.6 317.89 454.81 323.25 454.35C331.19 453.66 332.91 453.22 332.56 452C332.32 451.18 331.29 445.21 330.26 438.75C328.85 429.89 328.03 427.03 326.94 427.13C326.15 427.2 322.57 427.63 319 428.09Z" />
	</g>
</svg>