<svg version="1.2" baseProfile="tiny-ps" xmlns="http://www.w3.org/2000/svg" viewBox="0 0 388 562" width="388" height="562">
	<title>Blue_9</title>
	<style>
		tspan { white-space:pre }
		.shp0 { fill: #ffffff } 
		.shp1 { fill: #0098dc } 
	</style>
	<g id="Background">
		<path id="Path 0" class="shp0" d="M27.5 2.69C24.17 3.51 19.28 5.72 16.5 7.67C13.75 9.6 9.85 13.5 7.84 16.34C5.51 19.63 3.61 23.95 2.59 28.25C1.16 34.33 1 59.36 1 281C1 502.64 1.16 527.67 2.59 533.75C3.61 538.05 5.51 542.37 7.84 545.66C9.85 548.5 13.75 552.39 16.5 554.32C19.57 556.46 24.1 558.43 28.25 559.41C34.28 560.83 51.98 561 194 561C336.02 561 353.72 560.83 359.75 559.41C364.05 558.39 368.37 556.49 371.66 554.16C374.5 552.15 378.39 548.25 380.32 545.5C382.46 542.43 384.43 537.9 385.41 533.75C386.84 527.67 387 502.64 387 281C387 59.36 386.84 34.33 385.41 28.25C384.39 23.95 382.49 19.63 380.16 16.34C378.15 13.5 374.25 9.61 371.5 7.68C368.43 5.54 363.9 3.57 359.75 2.59C353.71 1.17 336.21 1.01 193.25 1.11C56.31 1.21 32.64 1.43 27.5 2.69Z" />
		<path id="Path 1" class="shp1" d="M33.34 29.4C32.15 30.12 30.48 31.8 29.63 33.11C28.23 35.25 28.07 60.68 28.04 280.75C28.01 474.95 28.26 526.55 29.25 528.62C29.94 530.06 31.74 531.86 33.25 532.62C35.55 533.78 61.67 534 194 534C326.33 534 352.45 533.78 354.75 532.62C356.26 531.86 358.06 530.06 358.75 528.62C359.74 526.55 360 474.94 360 281C360 87.06 359.74 35.45 358.75 33.38C358.06 31.94 356.26 30.14 354.75 29.38C352.45 28.22 326.35 28.01 193.75 28.04C64.2 28.06 35.11 28.31 33.34 29.4Z" />
		<path id="Path 2" class="shp0" d="M58.5 46.45C55.75 47.15 52.26 48.24 50.75 48.86C49.24 49.49 46.35 51.46 44.34 53.25C42.32 55.04 39.86 58.3 38.86 60.5C37.68 63.1 37.03 66.95 37.01 71.5C36.98 75.35 37.49 80.08 38.12 82C38.76 83.92 40.34 86.96 41.64 88.75C42.94 90.54 45.91 93.01 48.25 94.25C51.96 96.21 53.99 96.5 64.25 96.5C70.71 96.5 76 96.61 76 96.75C76 96.89 74.42 100.15 72.5 104C70.58 107.85 68.99 111.34 68.99 111.75C68.98 112.16 76.3 113.76 85.24 115.31C94.18 116.85 101.72 117.82 102 117.45C102.28 117.09 103.06 114.02 103.73 110.64C104.41 107.26 105.51 99.55 106.17 93.5C107.1 85.05 107.1 80.42 106.21 73.5C105.42 67.44 104.14 62.72 102.27 59.05C100.66 55.88 97.72 52.23 95.25 50.3C92.91 48.49 89.31 46.55 87.25 46.01C85.19 45.46 79 45.05 73.5 45.09C68 45.13 61.25 45.74 58.5 46.45Z" />
		<path id="Path 3" class="shp1" d="M68.19 69.77C67.47 70.17 67.02 71.63 67.19 73C67.43 74.93 68.3 75.69 71 76.34C73.2 76.87 75.52 76.78 77.25 76.09C79.23 75.31 80 74.3 80 72.5C80 71.13 79.33 69.78 78.5 69.5C77.67 69.22 75.31 69.01 73.25 69.02C71.19 69.02 68.91 69.36 68.19 69.77Z" />
		<path id="Path 4" class="shp0" d="M196.5 116.06C192.65 116.58 184.78 118.18 179 119.6C173.22 121.03 164.68 123.67 160 125.46C155.32 127.26 147.9 130.54 143.5 132.76C139.1 134.98 131.45 139.46 126.5 142.72C121.55 145.97 113.45 152.02 108.5 156.14C103.55 160.27 96.4 166.99 92.62 171.07C88.83 175.16 83.16 181.88 80.01 186C76.86 190.13 72.11 196.88 69.45 201C66.79 205.13 61.79 214.35 58.34 221.5C54.88 228.65 50.51 239.22 48.63 245C46.75 250.78 44.29 259.77 43.17 265C42.05 270.23 40.65 278.89 40.07 284.25C39.48 289.61 39 298.27 39 303.5C39 308.73 39.66 318.06 40.47 324.25C41.28 330.44 43.05 339.77 44.4 345C45.76 350.23 48.61 358.77 50.74 364C52.88 369.23 56.46 376.65 58.7 380.5C60.94 384.35 65.45 391.1 68.72 395.5C71.98 399.9 78.47 407.1 83.14 411.5C87.81 415.9 94.75 421.6 98.56 424.16C102.38 426.72 109.1 430.67 113.5 432.93C117.9 435.2 126.22 438.56 132 440.42C137.78 442.27 145.88 444.4 150 445.14C154.54 445.96 164.21 446.47 174.5 446.42C187.82 446.36 193.66 445.88 201.5 444.21C207 443.04 215.78 440.69 221 438.99C226.22 437.3 235.22 433.64 241 430.88C246.78 428.11 255.32 423.35 260 420.31C264.68 417.27 272.55 411.51 277.5 407.52C282.45 403.52 290.06 396.49 294.4 391.88C298.75 387.27 304.87 380.13 308.01 376C311.15 371.88 315.89 365.13 318.55 361C321.21 356.88 326.21 347.65 329.66 340.5C333.12 333.35 337.49 322.77 339.37 317C341.25 311.23 343.71 302.23 344.83 297C345.95 291.77 347.35 283.11 347.93 277.75C348.52 272.39 349 263.73 349 258.5C349 253.28 348.34 243.94 347.53 237.75C346.72 231.56 344.95 222.22 343.6 217C342.24 211.78 339.39 203.22 337.26 198C335.12 192.78 331.54 185.35 329.3 181.5C327.06 177.65 322.55 170.9 319.28 166.5C316.02 162.1 309.53 154.9 304.86 150.5C300.19 146.1 293.25 140.4 289.44 137.84C285.62 135.28 278.9 131.34 274.5 129.08C270.1 126.83 262.45 123.64 257.5 121.99C252.55 120.35 245.13 118.32 241 117.49C236.88 116.65 226.75 115.78 218.5 115.54C210.25 115.3 200.35 115.54 196.5 116.06Z" />
		<path id="Path 5" class="shp1" d="M181.5 195.15C176.55 195.7 168.45 197.2 163.5 198.49C158.55 199.77 152.03 201.93 149 203.3C145.97 204.66 140.8 207.75 137.5 210.18C133.8 212.9 129.85 217.06 127.18 221.04C124.81 224.59 121.89 230.65 120.7 234.5C118.99 240.03 118.55 243.92 118.59 253C118.62 260.47 119.24 266.78 120.35 271C121.28 274.57 123.27 279.98 124.76 283C126.25 286.02 129.5 290.53 131.98 293.02C134.47 295.51 139.43 299 143 300.78C146.57 302.56 152.99 304.69 157.25 305.51C161.51 306.33 168.94 306.99 173.75 306.98C178.56 306.97 187 306.31 192.5 305.51C198 304.72 203.18 304.06 204 304.06C205.05 304.06 202.82 309.38 196.5 321.95C191.55 331.79 187.72 340.06 188 340.33C188.28 340.59 204.14 343.55 223.25 346.91C242.36 350.26 258.45 353 259 353C259.55 353 261.35 345.69 263 336.75C264.64 327.81 266.64 315.32 267.44 309C268.23 302.68 269.19 292.1 269.57 285.5C269.99 278.15 269.78 268.65 269.03 261C268.36 254.13 266.96 245.13 265.91 241C264.87 236.88 262.12 229.68 259.81 225C256.85 219.01 253.82 214.73 249.55 210.5C245.94 206.92 240.88 203.21 237 201.31C233.43 199.55 227.8 197.37 224.5 196.47C220.71 195.43 213.35 194.7 204.5 194.49C196.8 194.3 186.45 194.59 181.5 195.15Z" />
		<path id="Path 6" class="shp0" d="M189.21 246.1C187.4 246.61 185.02 248.26 183.92 249.76C182.83 251.27 181.95 253.51 181.97 254.75C181.98 255.99 183.24 258.29 184.75 259.88C186.72 261.94 188.92 262.97 192.5 263.51C195.25 263.92 199.75 263.98 202.5 263.64C205.25 263.31 208.63 262.19 210 261.16C211.86 259.78 212.56 258.24 212.75 255.15C212.93 252.1 212.47 250.47 211 249C209.9 247.9 207.31 246.55 205.25 246.01C203.19 245.46 199.47 245.05 197 245.1C194.53 245.14 191.02 245.6 189.21 246.1ZM278.6 435.75C278.32 436.71 277.32 441.55 276.37 446.5C275.29 452.18 274.65 460.49 274.63 469C274.61 480.54 274.93 483.37 276.84 488.5C278.07 491.8 280.18 495.96 281.54 497.75C282.89 499.54 286.14 502.24 288.75 503.75C293.29 506.38 294.09 506.5 307 506.5C316.82 506.5 322 506.04 326 504.81C329.5 503.74 333.26 501.56 336.32 498.81C339.05 496.38 341.8 492.76 342.66 490.5C343.73 487.7 344.08 483.9 343.84 477.85C343.54 470.11 343.18 468.73 340.46 464.85C338.78 462.46 335.41 459.38 332.96 458C328.91 455.73 327.43 455.5 316.75 455.5C310.29 455.5 305 455.39 305 455.25C305 455.11 306.57 451.85 308.5 448C310.43 444.15 312.09 440.63 312.21 440.18C312.32 439.73 305.24 438.15 296.46 436.66C287.68 435.17 280.19 433.97 279.8 433.98C279.42 433.99 278.88 434.79 278.6 435.75Z" />
		<path id="Path 7" class="shp1" d="M303.07 476.03C301.29 476.69 300.69 477.61 300.82 479.47C300.92 480.86 301.68 482.23 302.5 482.5C303.32 482.77 305.57 483 307.5 483C309.43 483 311.68 482.77 312.5 482.5C313.32 482.23 314 480.88 314 479.5C314 477.77 313.23 476.69 311.5 476C310.13 475.45 308.21 475.03 307.25 475.06C306.29 475.1 304.41 475.53 303.07 476.03Z" />
	</g>
</svg>