<svg version="1.2" baseProfile="tiny-ps" xmlns="http://www.w3.org/2000/svg" viewBox="0 0 388 562" width="388" height="562">
	<title>Blue_0</title>
	<style>
		tspan { white-space:pre }
		.shp0 { fill: #ffffff } 
		.shp1 { fill: #0098dc } 
	</style>
	<g id="Background">
		<path id="Path 0" class="shp0" d="M27.5 2.69C24.17 3.51 19.28 5.72 16.5 7.67C13.75 9.6 9.85 13.5 7.84 16.34C5.51 19.63 3.61 23.95 2.59 28.25C1.16 34.33 1 59.36 1 281C1 502.64 1.16 527.67 2.59 533.75C3.61 538.05 5.51 542.37 7.84 545.66C9.85 548.5 13.75 552.39 16.5 554.32C19.57 556.46 24.1 558.43 28.25 559.41C34.28 560.83 51.98 561 194 561C336.02 561 353.72 560.83 359.75 559.41C364.05 558.39 368.37 556.49 371.66 554.16C374.5 552.15 378.39 548.25 380.32 545.5C382.46 542.43 384.43 537.9 385.41 533.75C386.84 527.67 387 502.64 387 281C387 59.36 386.84 34.33 385.41 28.25C384.39 23.95 382.49 19.63 380.16 16.34C378.15 13.5 374.25 9.61 371.5 7.68C368.43 5.54 363.9 3.57 359.75 2.59C353.71 1.17 336.21 1.01 193.25 1.11C56.31 1.21 32.64 1.43 27.5 2.69Z" />
		<path id="Path 1" class="shp1" d="M33.34 29.4C32.15 30.12 30.48 31.8 29.63 33.11C28.23 35.25 28.07 60.68 28.04 280.75C28.01 474.95 28.26 526.55 29.25 528.62C29.94 530.06 31.74 531.86 33.25 532.62C35.55 533.78 61.67 534 194 534C326.33 534 352.45 533.78 354.75 532.62C356.26 531.86 358.06 530.06 358.75 528.62C359.74 526.55 360 474.94 360 281C360 87.06 359.74 35.45 358.75 33.38C358.06 31.94 356.26 30.14 354.75 29.38C352.45 28.22 326.35 28.01 193.75 28.04C64.2 28.06 35.11 28.31 33.34 29.4Z" />
		<path id="Path 2" class="shp0" d="M69.25 44.05C66.36 44.57 61.41 46.2 58.25 47.67C54.68 49.33 50 52.85 45.91 56.92C40.9 61.91 38.86 64.83 37.43 69C36.29 72.33 35.54 77.26 35.54 81.5C35.53 87.3 36.07 89.62 38.67 95C40.7 99.23 43.67 103.21 47.15 106.4C50.09 109.1 55.42 112.68 59 114.35C64.62 116.98 66.92 117.45 76 117.83C83.88 118.15 88 117.84 92.5 116.57C95.8 115.65 101.42 112.94 105 110.55C108.58 108.16 112.67 104.7 114.11 102.85C115.54 101.01 117.75 97.47 119.01 95C120.52 92.06 121.48 88.07 121.79 83.5C122.11 78.76 121.74 74.72 120.65 71C119.77 67.97 117.34 63.25 115.25 60.5C113.17 57.75 108.55 53.56 104.98 51.18C101.42 48.81 96.25 46.21 93.5 45.41C90.75 44.6 85.35 43.76 81.5 43.53C77.65 43.3 72.14 43.53 69.25 44.05Z" />
		<path id="Path 3" class="shp1" d="M68.02 67.75C66.11 68.71 63.51 71.08 62.24 73C60.98 74.92 59.94 77.63 59.94 79C59.94 80.38 60.98 83.08 62.24 85C63.51 86.92 66.11 89.29 68.02 90.25C69.93 91.21 73.41 92 75.75 92C78.09 92 81.8 91.1 84 90C86.2 88.9 88.76 86.76 89.7 85.25C90.63 83.74 91.34 80.7 91.28 78.5C91.22 76.3 90.35 73.43 89.34 72.13C88.33 70.82 85.92 68.91 84 67.87C82.05 66.83 78.51 65.99 76 66C73.53 66 69.93 66.79 68.02 67.75Z" />
		<path id="Path 4" class="shp0" d="M196.5 116.06C192.65 116.58 184.78 118.18 179 119.6C173.22 121.03 164.68 123.67 160 125.46C155.32 127.26 147.9 130.54 143.5 132.76C139.1 134.98 131.45 139.46 126.5 142.72C121.55 145.97 113.45 152.02 108.5 156.14C103.55 160.27 96.4 166.99 92.62 171.07C88.83 175.16 83.16 181.88 80.01 186C76.86 190.13 72.11 196.88 69.45 201C66.79 205.13 61.79 214.35 58.34 221.5C54.88 228.65 50.51 239.22 48.63 245C46.75 250.78 44.29 259.77 43.17 265C42.05 270.23 40.65 278.89 40.07 284.25C39.48 289.61 39 298.27 39 303.5C39 308.73 39.66 318.06 40.47 324.25C41.28 330.44 43.05 339.77 44.4 345C45.76 350.23 48.61 358.77 50.74 364C52.88 369.23 56.46 376.65 58.7 380.5C60.94 384.35 65.45 391.1 68.72 395.5C71.98 399.9 78.47 407.1 83.14 411.5C87.81 415.9 94.75 421.6 98.56 424.16C102.38 426.72 109.1 430.67 113.5 432.93C117.9 435.2 126.22 438.56 132 440.42C137.78 442.27 145.88 444.4 150 445.14C154.54 445.96 164.21 446.47 174.5 446.42C187.82 446.36 193.66 445.88 201.5 444.21C207 443.04 215.78 440.69 221 438.99C226.22 437.3 235.22 433.64 241 430.88C246.78 428.11 255.32 423.35 260 420.31C264.68 417.27 272.55 411.51 277.5 407.52C282.45 403.52 290.06 396.49 294.4 391.88C298.75 387.27 304.87 380.13 308.01 376C311.15 371.88 315.89 365.13 318.55 361C321.21 356.88 326.21 347.65 329.66 340.5C333.12 333.35 337.49 322.77 339.37 317C341.25 311.23 343.71 302.23 344.83 297C345.95 291.77 347.35 283.11 347.93 277.75C348.52 272.39 349 263.73 349 258.5C349 253.28 348.34 243.94 347.53 237.75C346.72 231.56 344.95 222.22 343.6 217C342.24 211.78 339.39 203.22 337.26 198C335.12 192.78 331.54 185.35 329.3 181.5C327.06 177.65 322.55 170.9 319.28 166.5C316.02 162.1 309.53 154.9 304.86 150.5C300.19 146.1 293.25 140.4 289.44 137.84C285.62 135.28 278.9 131.34 274.5 129.08C270.1 126.83 262.45 123.64 257.5 121.99C252.55 120.35 245.13 118.32 241 117.49C236.88 116.65 226.75 115.78 218.5 115.54C210.25 115.3 200.35 115.54 196.5 116.06Z" />
		<path id="Path 5" class="shp1" d="M179.5 192.14C175.65 192.63 169.13 193.94 165 195.06C160.88 196.18 153.45 199.06 148.5 201.46C143.55 203.86 136.57 208.04 133 210.75C129.43 213.46 123.58 218.85 120 222.72C116.42 226.6 112.04 232.18 110.26 235.13C108.47 238.08 105.84 243.88 104.4 248C102.96 252.13 101.29 259.32 100.7 264C99.91 270.15 99.92 274.85 100.72 281C101.33 285.68 102.8 292.43 103.98 296C105.17 299.57 108.01 305.65 110.29 309.5C112.58 313.35 117.16 319.37 120.47 322.87C123.79 326.38 129.43 331.44 133 334.12C136.57 336.79 142.43 340.51 146 342.38C149.57 344.25 155.88 346.9 160 348.26C164.13 349.63 170.88 351.33 175 352.04C179.13 352.75 187.68 353.34 194 353.36C200.32 353.37 208.88 352.79 213 352.06C217.13 351.34 223.88 349.63 228 348.26C232.13 346.9 238.43 344.25 242 342.38C245.57 340.51 251.43 336.79 255 334.12C258.57 331.44 264.21 326.38 267.53 322.87C270.84 319.37 275.42 313.35 277.71 309.5C279.99 305.65 282.84 299.57 284.03 296C285.22 292.43 286.69 285.68 287.29 281C288.08 274.84 288.08 270.16 287.29 264C286.69 259.32 285.03 252.13 283.59 248C282.16 243.88 279.53 238.08 277.74 235.13C275.96 232.18 271.57 226.6 268 222.72C264.43 218.85 258.57 213.46 255 210.75C251.43 208.04 244.45 203.86 239.5 201.46C234.55 199.06 227.13 196.19 223 195.08C218.88 193.98 211.68 192.61 207 192.03C202.32 191.46 195.8 191.05 192.5 191.12C189.2 191.2 183.35 191.65 179.5 192.14Z" />
		<path id="Path 6" class="shp0" d="M177 240.53C173.97 241.37 169.07 243.73 166.11 245.78C163.14 247.82 159.47 251.3 157.95 253.5C156.44 255.7 154.64 259.75 153.96 262.5C153.27 265.29 153 269.38 153.36 271.75C153.71 274.09 154.84 277.69 155.87 279.75C156.9 281.81 160.16 285.67 163.12 288.31C166.08 290.96 170.75 293.94 173.5 294.93C176.25 295.93 180.53 297.04 183 297.41C185.47 297.78 190.43 297.61 194 297.04C197.57 296.46 202.3 295.11 204.5 294.04C206.7 292.96 210.48 290.38 212.89 288.29C215.31 286.21 218.4 282.25 219.77 279.5C221.58 275.88 222.27 272.85 222.3 268.5C222.32 264.46 221.64 261.03 220.23 258C219.08 255.52 215.97 251.5 213.32 249.05C210.67 246.6 206.03 243.5 203 242.15C199.2 240.46 195.18 239.6 190 239.36C185.29 239.13 180.45 239.57 177 240.53ZM293.5 436.08C290.2 437.25 285.02 439.95 282 442.08C278.98 444.22 275.17 447.66 273.55 449.73C271.93 451.8 269.68 455.52 268.56 458C266.97 461.48 266.51 464.54 266.52 471.5C266.54 478.99 266.95 481.34 268.98 485.5C270.32 488.25 273.69 492.78 276.46 495.56C279.27 498.39 284.38 502.03 288 503.79C291.57 505.53 297.65 507.48 301.5 508.11C306.82 508.99 310.42 508.98 316.5 508.09C321.31 507.38 326.89 505.74 330.5 503.96C333.8 502.34 338.89 498.65 341.81 495.76C344.73 492.87 348.19 488.25 349.5 485.5C350.81 482.75 352.18 478.02 352.54 475C352.99 471.26 352.69 467.5 351.6 463.25C350.72 459.81 348.72 455.09 347.15 452.75C345.59 450.41 342.33 446.76 339.9 444.63C337.48 442.49 332.57 439.36 329 437.67C323.11 434.88 321.42 434.56 311 434.27C301.27 434 298.57 434.27 293.5 436.08Z" />
		<path id="Path 7" class="shp1" d="M304 461.91C302.07 462.91 299.64 465.03 298.59 466.62C297.47 468.32 296.71 471.14 296.76 473.5C296.8 475.76 297.63 478.53 298.66 479.87C299.67 481.18 302.07 483.09 304 484.13C305.95 485.17 309.49 486.01 312 486C314.48 486 318.07 485.21 319.98 484.25C321.89 483.29 324.49 480.93 325.76 479C327.02 477.07 328.06 474.38 328.06 473C328.06 471.63 327.02 468.93 325.76 467C324.49 465.07 321.89 462.71 319.98 461.75C318.07 460.79 314.48 460.02 312 460.05C309.52 460.07 305.93 460.91 304 461.91Z" />
	</g>
</svg>