<svg version="1.2" baseProfile="tiny-ps" xmlns="http://www.w3.org/2000/svg" viewBox="0 0 388 562" width="388" height="562">
	<title>Blue_6</title>
	<style>
		tspan { white-space:pre }
		.shp0 { fill: #ffffff } 
		.shp1 { fill: #0098dc } 
	</style>
	<g id="Background">
		<path id="Path 0" class="shp0" d="M27.5 2.69C24.17 3.51 19.28 5.72 16.5 7.67C13.75 9.6 9.85 13.5 7.84 16.34C5.51 19.63 3.61 23.95 2.59 28.25C1.16 34.33 1 59.36 1 281C1 502.64 1.16 527.67 2.59 533.75C3.61 538.05 5.51 542.37 7.84 545.66C9.85 548.5 13.75 552.39 16.5 554.32C19.57 556.46 24.1 558.43 28.25 559.41C34.28 560.83 51.98 561 194 561C336.02 561 353.72 560.83 359.75 559.41C364.05 558.39 368.37 556.49 371.66 554.16C374.5 552.15 378.39 548.25 380.32 545.5C382.46 542.43 384.43 537.9 385.41 533.75C386.84 527.67 387 502.64 387 281C387 59.36 386.84 34.33 385.41 28.25C384.39 23.95 382.49 19.63 380.16 16.34C378.15 13.5 374.25 9.61 371.5 7.68C368.43 5.54 363.9 3.57 359.75 2.59C353.71 1.17 336.21 1.01 193.25 1.11C56.31 1.21 32.64 1.43 27.5 2.69Z" />
		<path id="Path 1" class="shp1" d="M33.34 29.4C32.15 30.12 30.48 31.8 29.63 33.11C28.23 35.25 28.07 60.68 28.04 280.75C28.01 474.95 28.26 526.55 29.25 528.62C29.94 530.06 31.74 531.86 33.25 532.62C35.55 533.78 61.67 534 194 534C326.33 534 352.45 533.78 354.75 532.62C356.26 531.86 358.06 530.06 358.75 528.62C359.74 526.55 360 474.94 360 281C360 87.06 359.74 35.45 358.75 33.38C358.06 31.94 356.26 30.14 354.75 29.38C352.45 28.22 326.35 28.01 193.75 28.04C64.2 28.06 35.11 28.31 33.34 29.4Z" />
		<path id="Path 2" class="shp0" d="M40.9 46.41C40.53 47.56 39.51 53 38.62 58.5C37.74 64 37.01 73.45 37 79.5C37 86.13 37.59 92.79 38.49 96.25C39.32 99.41 41.13 103.8 42.5 106C43.88 108.2 46.46 111.12 48.25 112.48C50.04 113.85 53.75 115.66 56.5 116.5C59.25 117.34 64.88 118.01 69 118C73.13 117.98 79.42 117.35 83 116.61C86.58 115.86 91.3 114.36 93.5 113.26C95.7 112.17 99.19 109.3 101.26 106.89C103.89 103.83 105.38 100.83 106.2 97C107.09 92.82 107.1 89.94 106.22 85C105.5 80.91 104.03 77.05 102.28 74.59C100.75 72.44 97.7 69.74 95.5 68.59C92.08 66.8 89.73 66.5 79.36 66.5L67.23 66.5C73.25 54.49 74.89 50.81 74.75 50.58C74.61 50.35 67.09 48.85 58.04 47.24L41.58 44.32L40.9 46.41Z" />
		<path id="Path 3" class="shp1" d="M64.58 87.08C63.52 87.64 62.74 88.98 62.83 90.05C62.92 91.12 63.9 92.45 65 93C66.1 93.55 68.35 94 70 94C71.65 94 73.9 93.55 75 93C76.1 92.45 77 91.1 77 90C77 88.9 76.1 87.55 75 87C73.9 86.45 71.54 86.01 69.75 86.03C67.96 86.05 65.64 86.52 64.58 87.08Z" />
		<path id="Path 4" class="shp0" d="M196.5 116.06C192.65 116.58 184.78 118.18 179 119.6C173.22 121.03 164.68 123.67 160 125.46C155.32 127.26 147.9 130.54 143.5 132.76C139.1 134.98 131.45 139.46 126.5 142.72C121.55 145.97 113.45 152.02 108.5 156.14C103.55 160.27 96.4 166.99 92.62 171.07C88.83 175.16 83.16 181.88 80.01 186C76.86 190.13 72.11 196.88 69.45 201C66.79 205.13 61.79 214.35 58.34 221.5C54.88 228.65 50.51 239.22 48.63 245C46.75 250.78 44.29 259.77 43.17 265C42.05 270.23 40.65 278.89 40.07 284.25C39.48 289.61 39 298.27 39 303.5C39 308.73 39.66 318.06 40.47 324.25C41.28 330.44 43.05 339.77 44.4 345C45.76 350.23 48.61 358.77 50.74 364C52.88 369.23 56.46 376.65 58.7 380.5C60.94 384.35 65.45 391.1 68.72 395.5C71.98 399.9 78.47 407.1 83.14 411.5C87.81 415.9 94.75 421.6 98.56 424.16C102.38 426.72 109.1 430.67 113.5 432.93C117.9 435.2 126.22 438.56 132 440.42C137.78 442.27 145.88 444.4 150 445.14C154.54 445.96 164.21 446.47 174.5 446.42C187.82 446.36 193.66 445.88 201.5 444.21C207 443.04 215.78 440.69 221 438.99C226.22 437.3 235.22 433.64 241 430.88C246.78 428.11 255.32 423.35 260 420.31C264.68 417.27 272.55 411.51 277.5 407.52C282.45 403.52 290.06 396.49 294.4 391.88C298.75 387.27 304.87 380.13 308.01 376C311.15 371.88 315.89 365.13 318.55 361C321.21 356.88 326.21 347.65 329.66 340.5C333.12 333.35 337.49 322.77 339.37 317C341.25 311.23 343.71 302.23 344.83 297C345.95 291.77 347.35 283.11 347.93 277.75C348.52 272.39 349 263.73 349 258.5C349 253.28 348.34 243.94 347.53 237.75C346.72 231.56 344.95 222.22 343.6 217C342.24 211.78 339.39 203.22 337.26 198C335.12 192.78 331.54 185.35 329.3 181.5C327.06 177.65 322.55 170.9 319.28 166.5C316.02 162.1 309.53 154.9 304.86 150.5C300.19 146.1 293.25 140.4 289.44 137.84C285.62 135.28 278.9 131.34 274.5 129.08C270.1 126.83 262.45 123.64 257.5 121.99C252.55 120.35 245.13 118.32 241 117.49C236.88 116.65 226.75 115.78 218.5 115.54C210.25 115.3 200.35 115.54 196.5 116.06Z" />
		<path id="Path 5" class="shp1" d="M125.07 210.25C123.35 219.19 121.31 231.68 120.53 238C119.76 244.32 118.82 255.13 118.45 262C118.04 269.51 118.23 279.09 118.93 286C119.57 292.32 121 301.1 122.1 305.5C123.21 309.9 125.86 317.1 128 321.5C130.71 327.06 133.82 331.44 138.2 335.85C142.42 340.11 146.81 343.33 151.5 345.59C155.35 347.46 161.43 349.75 165 350.68C169.9 351.97 175.57 352.38 188 352.35C199.28 352.33 207.67 351.75 214.5 350.53C220 349.55 227.2 347.86 230.5 346.78C233.8 345.7 239.43 343.29 243 341.42C246.57 339.55 251.73 335.88 254.45 333.26C257.17 330.64 260.67 326.48 262.23 324C263.79 321.52 265.97 316.57 267.06 313C268.16 309.43 269.32 302.9 269.64 298.5C270.04 293.08 269.69 287.43 268.56 281C267.56 275.31 265.64 268.89 263.76 265C262.02 261.39 258.49 256.39 255.82 253.75C253.17 251.14 248.19 247.65 244.75 246.01C241.31 244.37 235.35 242.35 231.5 241.53C227.65 240.71 220 240.03 214.5 240.02C209 240.02 200 240.69 194.5 241.51C189 242.34 183.94 243.01 183.25 243.01C182.54 243 186.02 235.16 191.25 224.97C196.34 215.06 200.28 206.76 200 206.53C199.72 206.29 184.09 203.38 165.25 200.05C146.41 196.72 130.37 194 129.6 194C128.58 194 127.34 198.47 125.07 210.25Z" />
		<path id="Path 6" class="shp0" d="M181 284.13C179.63 284.68 177.7 285.89 176.72 286.81C175.7 287.78 174.95 289.89 174.97 291.75C174.99 293.54 175.34 295.74 175.75 296.64C176.16 297.54 177.63 298.86 179 299.56C180.38 300.26 183.75 301.15 186.5 301.54C189.73 302 193.42 301.77 196.91 300.88C200.46 299.98 202.98 298.64 204.2 297C205.23 295.63 206.05 293.71 206.03 292.75C206.02 291.79 205.44 289.86 204.75 288.47C204.06 287.09 201.81 285.29 199.75 284.47C197.69 283.66 193.19 283.03 189.75 283.06C186.31 283.1 182.38 283.58 181 284.13ZM297.5 435.45C294.2 436.16 289.7 437.64 287.5 438.73C285.3 439.83 281.81 442.7 279.74 445.11C277.08 448.21 275.65 451.11 274.85 455C274.01 459.06 274.01 462.21 274.82 467C275.53 471.16 276.93 474.91 278.72 477.41C280.25 479.56 283.3 482.26 285.5 483.41C288.92 485.2 291.27 485.5 301.64 485.5L313.77 485.5C307.75 497.51 306.11 501.19 306.25 501.42C306.39 501.65 313.86 503.11 322.85 504.67C339.05 507.47 339.21 507.48 339.99 505.5C340.43 504.4 341.56 498.55 342.51 492.5C343.75 484.56 344.1 478.02 343.75 469C343.41 460.48 342.68 454.91 341.44 451.5C340.3 448.37 337.83 444.72 334.81 441.75C331.36 438.34 328.52 436.57 324.75 435.49C321.84 434.65 315.93 434.02 311.5 434.07C307.1 434.12 300.8 434.74 297.5 435.45Z" />
		<path id="Path 7" class="shp1" d="M305.5 459.57C304.6 460.44 303.89 461.56 303.93 462.07C303.97 462.58 304.68 463.68 305.5 464.5C306.32 465.32 308.57 466 310.5 466C312.43 466 314.9 465.55 316 465C317.1 464.45 318 463.1 318 462C318 460.9 317.1 459.55 316 459C314.9 458.45 312.46 458 310.57 458C308.69 458 306.4 458.71 305.5 459.57Z" />
	</g>
</svg>