<svg version="1.2" baseProfile="tiny-ps" xmlns="http://www.w3.org/2000/svg" viewBox="0 0 388 562" width="388" height="562">
	<title>Blue_Reverse</title>
	<style>
		tspan { white-space:pre }
		.shp0 { fill: #ffffff } 
		.shp1 { fill: #0098dc } 
	</style>
	<g id="Background">
		<path id="Path 0" class="shp0" d="M27.5 2.69C24.17 3.51 19.28 5.72 16.5 7.67C13.75 9.6 9.85 13.5 7.84 16.34C5.51 19.63 3.61 23.95 2.59 28.25C1.16 34.33 1 59.36 1 281C1 502.64 1.16 527.67 2.59 533.75C3.61 538.05 5.51 542.37 7.84 545.66C9.85 548.5 13.75 552.39 16.5 554.32C19.57 556.46 24.1 558.43 28.25 559.41C34.28 560.83 51.98 561 194 561C336.02 561 353.72 560.83 359.75 559.41C364.05 558.39 368.37 556.49 371.66 554.16C374.5 552.15 378.39 548.25 380.32 545.5C382.46 542.43 384.43 537.9 385.41 533.75C386.84 527.67 387 502.64 387 281C387 59.36 386.84 34.33 385.41 28.25C384.39 23.95 382.49 19.63 380.16 16.34C378.15 13.5 374.25 9.61 371.5 7.68C368.43 5.54 363.9 3.57 359.75 2.59C353.71 1.17 336.21 1.01 193.25 1.11C56.31 1.21 32.64 1.43 27.5 2.69Z" />
		<path id="Path 1" class="shp1" d="M33.34 29.4C32.15 30.12 30.48 31.8 29.63 33.11C28.23 35.25 28.07 60.68 28.04 280.75C28.01 474.95 28.26 526.55 29.25 528.62C29.94 530.06 31.74 531.86 33.25 532.62C35.55 533.78 61.67 534 194 534C326.33 534 352.45 533.78 354.75 532.62C356.26 531.86 358.06 530.06 358.75 528.62C359.74 526.55 360 474.94 360 281C360 87.06 359.74 35.45 358.75 33.38C358.06 31.94 356.26 30.14 354.75 29.38C352.45 28.22 326.35 28.01 193.75 28.04C64.2 28.06 35.11 28.31 33.34 29.4Z" />
		<path id="Path 2" class="shp0" d="M75 42C75 44.2 74.66 45.99 74.25 45.98C73.84 45.96 71.47 45.48 69 44.91C66.53 44.34 61.35 43.84 57.5 43.82C52.45 43.78 49.38 44.31 46.5 45.74C43.9 47.03 41.89 48.99 40.75 51.36C39.79 53.36 39 56.58 39 58.5C39 60.42 39.81 64.59 40.8 67.75C41.79 70.91 44.38 76.16 46.55 79.41C48.72 82.66 51.63 86.16 53 87.19C54.38 88.23 55.84 89.05 56.25 89.03C56.66 89.02 55.89 86.86 54.54 84.25C53.19 81.64 51.61 76.91 51.04 73.75C50.34 69.87 50.33 66.7 51 64C51.71 61.18 52.96 59.39 55.25 57.94C57.68 56.4 59.79 55.97 63.65 56.19C66.49 56.36 69.08 56.84 69.4 57.25C69.73 57.66 69.1 59.35 68 61C66.9 62.65 66.11 64.22 66.25 64.48C66.39 64.74 69.2 64.02 72.5 62.88C75.8 61.74 81.77 60.51 85.76 60.15C89.75 59.79 92.99 59.27 92.97 59C92.94 58.73 90.24 55.69 86.96 52.25C83.68 48.81 80.1 44.2 79 42C77.9 39.8 76.55 38 76 38C75.45 38 75 39.8 75 42ZM87.14 64.75C87.34 65.16 88.81 67.97 90.39 71C92.31 74.65 93.43 78.51 93.73 82.5C93.98 85.8 93.7 89.74 93.1 91.25C92.49 92.76 90.76 94.76 89.25 95.7C87.64 96.7 84.37 97.42 81.33 97.45C78.49 97.48 75.9 97.16 75.58 96.75C75.26 96.34 75.89 94.54 76.97 92.75C78.05 90.96 78.95 89.16 78.97 88.75C78.99 88.34 76.41 89.11 73.25 90.47C70.09 91.83 63.82 93.52 59.31 94.22L51.13 95.5C59.17 102.62 63.3 107.22 65.5 110.31C67.7 113.41 69.84 115.73 70.25 115.47C70.66 115.21 71 113.42 71 111.5L71 108C78.36 109.16 83.65 109.49 87.5 109.48C92.57 109.47 95.6 108.9 98.5 107.41C100.88 106.19 103.21 103.97 104.25 101.93C105.21 100.04 106 96.81 106 94.75C106 92.69 105.18 88.64 104.19 85.75C103.19 82.86 100.83 78.26 98.94 75.52C97.05 72.78 93.92 69.05 92 67.24C90.08 65.42 88.11 63.95 87.63 63.97C87.16 63.99 86.93 64.34 87.14 64.75ZM196.5 116.06C192.65 116.58 184.78 118.18 179 119.6C173.22 121.03 164.68 123.67 160 125.46C155.32 127.26 147.9 130.54 143.5 132.76C139.1 134.98 131.45 139.46 126.5 142.72C121.55 145.97 113.45 152.02 108.5 156.14C103.55 160.27 96.4 166.99 92.62 171.07C88.83 175.16 83.16 181.88 80.01 186C76.86 190.13 72.11 196.88 69.45 201C66.79 205.13 61.79 214.35 58.34 221.5C54.88 228.65 50.51 239.22 48.63 245C46.75 250.78 44.29 259.77 43.17 265C42.05 270.23 40.65 278.89 40.07 284.25C39.48 289.61 39 298.27 39 303.5C39 308.73 39.66 318.06 40.47 324.25C41.28 330.44 43.05 339.77 44.4 345C45.76 350.23 48.61 358.77 50.74 364C52.88 369.23 56.46 376.65 58.7 380.5C60.94 384.35 65.45 391.1 68.72 395.5C71.98 399.9 78.47 407.1 83.14 411.5C87.81 415.9 94.75 421.6 98.56 424.16C102.38 426.72 109.1 430.67 113.5 432.93C117.9 435.2 126.22 438.56 132 440.42C137.78 442.27 145.88 444.4 150 445.14C154.54 445.96 164.21 446.47 174.5 446.42C187.82 446.36 193.66 445.88 201.5 444.21C207 443.04 215.78 440.69 221 438.99C226.22 437.3 235.22 433.64 241 430.88C246.78 428.11 255.32 423.35 260 420.31C264.68 417.27 272.55 411.51 277.5 407.52C282.45 403.52 290.06 396.49 294.4 391.88C298.75 387.27 304.87 380.13 308.01 376C311.15 371.88 315.89 365.13 318.55 361C321.21 356.88 326.21 347.65 329.66 340.5C333.12 333.35 337.49 322.77 339.37 317C341.25 311.23 343.71 302.23 344.83 297C345.95 291.77 347.35 283.11 347.93 277.75C348.52 272.39 349 263.73 349 258.5C349 253.28 348.34 243.94 347.53 237.75C346.72 231.56 344.95 222.22 343.6 217C342.24 211.78 339.39 203.22 337.26 198C335.12 192.78 331.54 185.35 329.3 181.5C327.06 177.65 322.55 170.9 319.28 166.5C316.02 162.1 309.53 154.9 304.86 150.5C300.19 146.1 293.25 140.4 289.44 137.84C285.62 135.28 278.9 131.34 274.5 129.08C270.1 126.83 262.45 123.64 257.5 121.99C252.55 120.35 245.13 118.32 241 117.49C236.88 116.65 226.75 115.78 218.5 115.54C210.25 115.3 200.35 115.54 196.5 116.06Z" />
		<path id="Path 3" class="shp1" d="M202.86 163.55L201.5 180.11C197.63 179.1 191.78 177.73 186 176.4C180.22 175.08 170.1 173.27 163.5 172.39C155.21 171.28 147.64 170.95 139 171.32C132.13 171.62 123.8 172.58 120.5 173.45C117.2 174.33 111.58 176.47 108 178.21C104.42 179.96 99.44 183.44 96.92 185.94C94.4 188.45 91.13 192.86 89.67 195.75C88.2 198.64 86.33 203.81 85.51 207.25C84.7 210.69 84.02 216.43 84 220C83.99 223.57 84.65 230.32 85.46 235C86.27 239.68 88.24 247.32 89.83 252C91.43 256.68 94.17 263.65 95.93 267.5C97.69 271.35 101.46 278.32 104.3 283C107.14 287.68 111.97 294.65 115.03 298.5C118.1 302.35 123.28 308.14 126.55 311.37C129.82 314.59 135.65 319.42 139.5 322.1C143.35 324.77 146.84 326.75 147.25 326.48C147.66 326.22 146.2 323.64 143.99 320.75C141.78 317.86 137.99 311.68 135.56 307C133.13 302.32 129.71 294.23 127.97 289C126.22 283.77 124.13 276.13 123.33 272C122.53 267.88 121.87 259.77 121.85 254C121.84 245.98 122.33 241.96 123.95 237C125.11 233.43 127.74 228.29 129.78 225.59C132.16 222.44 135.66 219.48 139.5 217.37C143.16 215.36 148.23 213.62 152.5 212.92C156.64 212.23 162.56 212.03 167 212.43C171.13 212.8 177.54 213.76 181.25 214.55C184.96 215.35 188 216.22 188 216.5C188 216.78 183.88 222.74 178.85 229.75C173.82 236.76 169.55 243.06 169.35 243.75C169.16 244.44 169.22 245 169.5 245C169.78 245 172.14 243.93 174.75 242.62C177.36 241.32 183.78 238.65 189 236.7C194.22 234.76 202.32 232.19 207 230.99C211.68 229.8 219.1 228.14 223.5 227.3C227.98 226.45 239.41 225.6 249.5 225.36C259.4 225.14 267.73 224.79 268 224.59C268.27 224.39 266.18 222.49 263.34 220.36C260.51 218.24 255.13 213.8 251.4 210.5C247.67 207.2 241.27 200.68 237.19 196C233.11 191.32 226.62 182.78 222.77 177C218.91 171.22 213.56 162.11 210.88 156.75C208.19 151.39 205.6 147 205.11 147C204.63 147 203.61 154.45 202.86 163.55ZM237.59 234.54C237.27 234.79 239.14 237.81 241.75 241.23C244.37 244.66 248.82 251.75 251.65 256.98C254.48 262.22 258.14 270.32 259.78 275C261.42 279.68 263.54 287.32 264.49 292C265.73 298.08 266.09 303.49 265.78 311C265.45 318.84 264.74 323.02 262.99 327.5C261.43 331.52 258.98 335.18 255.58 338.58C252.13 342.03 248.57 344.39 244.5 345.95C240.4 347.52 235.5 348.41 229 348.75C223.78 349.03 215.56 348.75 210.75 348.13C205.94 347.51 201.8 346.66 201.55 346.25C201.31 345.84 205.25 339.31 210.3 331.74C215.36 324.18 219.28 317.76 219 317.49C218.72 317.22 213.78 319.22 208 321.95C202.22 324.67 192.55 328.55 186.5 330.56C180.45 332.58 170.32 335.32 164 336.66C155.9 338.38 147.62 339.29 136 339.74L119.5 340.38C132.58 349.77 140.4 356.32 145.32 361C150.24 365.68 157.07 372.88 160.51 377C163.94 381.13 169.17 388.1 172.13 392.51C175.08 396.92 179.41 404.23 181.75 408.76C184.09 413.29 186.45 416.77 187 416.5C187.56 416.22 188 411.74 188.01 406.25C188.01 400.89 188.35 393.43 188.76 389.67C189.48 383.04 189.57 382.86 192 383.41C193.38 383.73 201.03 385.18 209 386.64C221.18 388.87 226.38 389.3 241.5 389.32C256.64 389.34 260.69 389.01 267 387.28C271.13 386.14 277.2 383.94 280.5 382.39C283.96 380.77 288.85 377.24 292.07 374.04C295.15 370.97 298.78 366.04 300.2 363C301.62 359.98 303.27 355.14 303.89 352.25C304.5 349.36 305.01 344.19 305.01 340.75C305.02 337.31 304.3 330.68 303.41 326C302.53 321.32 300.44 313.68 298.78 309C297.13 304.32 294.08 297.13 292.01 293C289.94 288.88 284.93 280.55 280.89 274.5C276.48 267.91 269.72 259.65 264.02 253.89C258.78 248.61 251.8 242.49 248.5 240.3C245.2 238.1 241.53 235.8 240.34 235.19C239.16 234.57 237.92 234.28 237.59 234.54Z" />
		<path id="Path 4" class="shp0" d="M317.5 441.67C317.04 442.03 316.74 443.83 316.83 445.67L317 449C309.64 447.84 304.35 447.51 300.5 447.52C295.51 447.53 292.39 448.1 289.63 449.52C287.44 450.64 284.95 453.01 283.88 455C282.84 456.93 281.99 460.07 281.99 462C281.98 463.93 282.89 468.2 284.01 471.5C285.12 474.8 287.94 480.04 290.27 483.15C292.59 486.26 295.74 489.75 297.25 490.9C298.76 492.06 300.2 492.89 300.44 492.75C300.68 492.61 299.45 489.57 297.71 486C295.65 481.78 294.41 477.57 294.18 474C293.98 470.98 294.31 467.26 294.91 465.75C295.51 464.24 297.24 462.24 298.75 461.3C300.36 460.3 303.63 459.58 306.67 459.55C309.51 459.52 312.1 459.84 312.42 460.25C312.74 460.66 312.1 462.57 311 464.5C309.9 466.43 309.23 468 309.5 468C309.77 468 313.26 466.91 317.25 465.57C321.24 464.23 327.43 462.84 331 462.48L337.5 461.83C328.98 454.46 324.86 449.77 322.85 446.66C320.84 443.55 319 441 318.76 441C318.53 441 317.96 441.3 317.5 441.67ZM333.53 472.75C334.84 475.36 336.39 480.09 336.96 483.25C337.66 487.13 337.67 490.3 337 493C336.29 495.82 335.04 497.61 332.75 499.06C330.32 500.6 328.21 501.03 324.35 500.81C321.51 500.64 318.92 500.16 318.6 499.75C318.27 499.34 318.9 497.65 320 496C321.1 494.35 321.89 492.78 321.75 492.52C321.61 492.26 318.8 492.98 315.5 494.12C312.2 495.26 306.23 496.49 302.24 496.85C298.25 497.21 295.01 497.73 295.03 498C295.06 498.27 297.76 501.31 301.04 504.75C304.32 508.19 307.9 512.8 309 515C310.1 517.2 311.45 519 312 519C312.55 519 312.99 517.09 312.98 514.75L312.95 510.5C318.03 511.79 322.1 512.5 325.28 512.91C328.45 513.33 333.18 513.35 335.78 512.97C338.37 512.59 341.63 511.58 343 510.73C344.38 509.89 346.29 507.58 347.25 505.6C348.21 503.62 349 500.43 349 498.5C349 496.57 348.19 492.41 347.2 489.25C346.21 486.09 343.62 480.84 341.45 477.59C339.28 474.34 336.38 470.84 335 469.81C333.63 468.77 332.19 467.95 331.82 467.97C331.44 467.98 332.21 470.14 333.53 472.75Z" />
	</g>
</svg>