<svg version="1.2" baseProfile="tiny-ps" xmlns="http://www.w3.org/2000/svg" viewBox="0 0 388 562" width="388" height="562">
	<title>Blue_3</title>
	<style>
		tspan { white-space:pre }
		.shp0 { fill: #ffffff } 
		.shp1 { fill: #0098dc } 
	</style>
	<g id="Background">
		<path id="Path 0" class="shp0" d="M27.5 2.69C24.17 3.51 19.28 5.72 16.5 7.67C13.75 9.6 9.85 13.5 7.84 16.34C5.51 19.63 3.61 23.95 2.59 28.25C1.16 34.33 1 59.36 1 281C1 502.64 1.16 527.67 2.59 533.75C3.61 538.05 5.51 542.37 7.84 545.66C9.85 548.5 13.75 552.39 16.5 554.32C19.57 556.46 24.1 558.43 28.25 559.41C34.28 560.83 51.98 561 194 561C336.02 561 353.72 560.83 359.75 559.41C364.05 558.39 368.37 556.49 371.66 554.16C374.5 552.15 378.39 548.25 380.32 545.5C382.46 542.43 384.43 537.9 385.41 533.75C386.84 527.67 387 502.64 387 281C387 59.36 386.84 34.33 385.41 28.25C384.39 23.95 382.49 19.63 380.16 16.34C378.15 13.5 374.25 9.61 371.5 7.68C368.43 5.54 363.9 3.57 359.75 2.59C353.71 1.17 336.21 1.01 193.25 1.11C56.31 1.21 32.64 1.43 27.5 2.69Z" />
		<path id="Path 1" class="shp1" d="M33.34 29.4C32.15 30.12 30.48 31.8 29.63 33.11C28.23 35.25 28.07 60.68 28.04 280.75C28.01 474.95 28.26 526.55 29.25 528.62C29.94 530.06 31.74 531.86 33.25 532.62C35.55 533.78 61.67 534 194 534C326.33 534 352.45 533.78 354.75 532.62C356.26 531.86 358.06 530.06 358.75 528.62C359.74 526.55 360 474.94 360 281C360 87.06 359.74 35.45 358.75 33.38C358.06 31.94 356.26 30.14 354.75 29.38C352.45 28.22 326.35 28.01 193.75 28.04C64.2 28.06 35.11 28.31 33.34 29.4Z" />
		<path id="Path 2" class="shp0" d="M48.53 44.25C48.26 45.49 47.41 51.22 46.65 57C45.89 62.78 45.32 67.57 45.38 67.66C45.45 67.75 49.55 66.97 54.5 65.93C59.45 64.89 65.64 64.03 68.25 64.02C70.86 64.01 73 64.45 73 65C73 65.55 72.21 66.41 71.25 66.91C70.29 67.42 66.8 68.14 63.5 68.52L57.5 69.22L61.5 90.92C67.7 89.98 70.4 90.02 71.5 90.4C73.19 91 73.27 91.25 72 92.04C71.17 92.55 64.09 92.98 56.25 92.98L42 93C42.74 97.26 43.65 102.78 44.5 108C45.35 113.22 46.26 118.74 46.53 120.25C46.99 122.94 47.12 122.99 52.25 122.39C55.14 122.06 61.77 120.97 67 119.98C72.22 118.99 78.97 117.26 82 116.13C85.03 115 89.68 112.59 92.34 110.79C95.34 108.75 97.9 105.98 99.07 103.5C100.39 100.73 100.98 97.27 100.99 92.25C101 85.71 100.73 84.71 98.25 82.08L95.5 79.15C100.27 74.19 100.49 73.17 100.44 65.72C100.4 60.05 99.86 56.49 98.69 54.25C97.76 52.46 95.09 49.64 92.75 47.98C90.21 46.18 85.79 44.37 81.75 43.48C77.7 42.59 69.8 42 62.02 42C49.36 42 49.02 42.06 48.53 44.25ZM196.5 116.06C192.65 116.58 184.78 118.18 179 119.6C173.22 121.03 164.68 123.67 160 125.46C155.32 127.26 147.9 130.54 143.5 132.76C139.1 134.98 131.45 139.46 126.5 142.72C121.55 145.97 113.45 152.02 108.5 156.14C103.55 160.27 96.4 166.99 92.62 171.07C88.83 175.16 83.16 181.88 80.01 186C76.86 190.13 72.11 196.88 69.45 201C66.79 205.13 61.79 214.35 58.34 221.5C54.88 228.65 50.51 239.22 48.63 245C46.75 250.78 44.29 259.77 43.17 265C42.05 270.23 40.65 278.89 40.07 284.25C39.48 289.61 39 298.27 39 303.5C39 308.73 39.66 318.06 40.47 324.25C41.28 330.44 43.05 339.77 44.4 345C45.76 350.23 48.61 358.77 50.74 364C52.88 369.23 56.46 376.65 58.7 380.5C60.94 384.35 65.45 391.1 68.72 395.5C71.98 399.9 78.47 407.1 83.14 411.5C87.81 415.9 94.75 421.6 98.56 424.16C102.38 426.72 109.1 430.67 113.5 432.93C117.9 435.2 126.22 438.56 132 440.42C137.78 442.27 145.88 444.4 150 445.14C154.54 445.96 164.21 446.47 174.5 446.42C187.82 446.36 193.66 445.88 201.5 444.21C207 443.04 215.78 440.69 221 438.99C226.22 437.3 235.22 433.64 241 430.88C246.78 428.11 255.32 423.35 260 420.31C264.68 417.27 272.55 411.51 277.5 407.52C282.45 403.52 290.06 396.49 294.4 391.88C298.75 387.27 304.87 380.13 308.01 376C311.15 371.88 315.89 365.13 318.55 361C321.21 356.88 326.21 347.65 329.66 340.5C333.12 333.35 337.49 322.77 339.37 317C341.25 311.23 343.71 302.23 344.83 297C345.95 291.77 347.35 283.11 347.93 277.75C348.52 272.39 349 263.73 349 258.5C349 253.28 348.34 243.94 347.53 237.75C346.72 231.56 344.95 222.22 343.6 217C342.24 211.78 339.39 203.22 337.26 198C335.12 192.78 331.54 185.35 329.3 181.5C327.06 177.65 322.55 170.9 319.28 166.5C316.02 162.1 309.53 154.9 304.86 150.5C300.19 146.1 293.25 140.4 289.44 137.84C285.62 135.28 278.9 131.34 274.5 129.08C270.1 126.83 262.45 123.64 257.5 121.99C252.55 120.35 245.13 118.32 241 117.49C236.88 116.65 226.75 115.78 218.5 115.54C210.25 115.3 200.35 115.54 196.5 116.06Z" />
		<path id="Path 3" class="shp1" d="M157.75 187.75C145.43 187.99 144.98 188.08 144.52 190.25C144.26 191.49 142.68 202.63 141.02 215C139.36 227.38 137.79 238.85 137.53 240.5L137.05 243.5C149.02 240.76 158.57 238.84 166 237.45C175.37 235.7 182.1 235.02 188 235.22C196.47 235.5 196.5 235.51 196.75 238.25C196.97 240.65 196.4 241.27 192.25 243.12C189.06 244.54 183.53 245.61 175.4 246.37L163.31 247.5C164.46 252.93 166.45 263.27 168.48 274L172.17 293.5C179.4 292.43 184.43 292.08 188 292.04C191.71 292 195.32 292.51 196.4 293.23C197.45 293.93 198.01 295.06 197.65 295.75C197.29 296.44 195.31 297.51 193.25 298.14C190.94 298.84 178.08 299.42 159.75 299.64L130 300C130.65 303.49 133.01 317.71 135.67 333.86L140.5 363.21C151.35 362.19 159.22 361.22 165 360.4C170.78 359.57 181.13 357.75 188 356.35C194.88 354.95 205.22 352.24 211 350.34C216.78 348.44 225.54 344.77 230.47 342.19C235.41 339.61 241.86 335.25 244.82 332.5C248.13 329.42 251.3 325.19 253.07 321.5C254.65 318.2 256.4 312.57 256.96 309C257.53 305.43 257.99 299.57 258 296C258.01 292.43 257.34 287.14 256.51 284.25C255.68 281.36 253.76 277.61 252.25 275.92C250.74 274.23 248.03 272.32 246.24 271.67C244.44 271.03 242.96 270.27 242.94 270C242.93 269.73 244.74 268.26 246.96 266.75C249.75 264.85 251.84 262.22 253.71 258.25C255.74 253.94 256.52 250.5 256.83 244.5C257.05 240.1 256.69 233.13 256.01 229C255.33 224.88 253.94 219.25 252.92 216.5C251.69 213.22 249.23 209.75 245.78 206.42C242.87 203.63 239.38 200.67 238 199.83C236.63 199 232.57 197.15 229 195.73C225.43 194.31 219.57 192.48 216 191.66C212.43 190.85 205.22 189.7 200 189.12C194.78 188.53 186 187.93 180.5 187.78C175 187.62 164.76 187.61 157.75 187.75Z" />
		<path id="Path 4" class="shp0" d="M321.5 430.6C316.55 431.37 309.24 432.9 305.25 434C301.26 435.1 295.86 437.08 293.25 438.4C290.64 439.71 287.26 441.96 285.75 443.4C284.24 444.83 282.32 447.57 281.5 449.5C280.64 451.5 280 456 280 460C280 466.26 280.29 467.31 282.75 469.92L285.5 472.85C280.73 477.81 280.51 478.83 280.56 486.28C280.6 491.95 281.14 495.51 282.31 497.75C283.24 499.54 285.91 502.36 288.25 504.02C290.79 505.82 295.21 507.63 299.25 508.52C303.3 509.41 311.2 510 319 510C331.67 510 332.01 509.94 332.49 507.75C332.76 506.51 333.61 500.77 334.38 495C335.15 489.23 335.72 484.43 335.64 484.34C335.56 484.25 331.45 485.03 326.5 486.07C321.55 487.11 315.36 487.97 312.75 487.98C310.14 487.99 308 487.55 308 487C308 486.45 308.56 485.67 309.25 485.28C309.94 484.88 313.45 484.09 317.06 483.53L323.62 482.5L319.5 461.07C313.3 462.02 310.6 461.98 309.5 461.6C307.81 461 307.73 460.75 309 459.96C309.82 459.45 316.91 459.02 324.75 459.02C332.59 459.01 339 458.66 338.99 458.25C338.99 457.84 338.08 452.1 336.98 445.5C335.88 438.9 334.76 432.49 334.49 431.25C334.2 429.9 333.3 429.04 332.25 429.1C331.29 429.15 326.45 429.83 321.5 430.6Z" />
	</g>
</svg>