<svg version="1.2" baseProfile="tiny-ps" xmlns="http://www.w3.org/2000/svg" viewBox="0 0 388 562" width="388" height="562">
	<title>Blue_8</title>
	<style>
		tspan { white-space:pre }
		.shp0 { fill: #ffffff } 
		.shp1 { fill: #0098dc } 
	</style>
	<g id="Background">
		<path id="Path 0" class="shp0" d="M27.5 2.69C24.17 3.51 19.28 5.72 16.5 7.67C13.75 9.6 9.85 13.5 7.84 16.34C5.51 19.63 3.61 23.95 2.59 28.25C1.16 34.33 1 59.36 1 281C1 502.64 1.16 527.67 2.59 533.75C3.61 538.05 5.51 542.37 7.84 545.66C9.85 548.5 13.75 552.39 16.5 554.32C19.57 556.46 24.1 558.43 28.25 559.41C34.28 560.83 51.98 561 194 561C336.02 561 353.72 560.83 359.75 559.41C364.05 558.39 368.37 556.49 371.66 554.16C374.5 552.15 378.39 548.25 380.32 545.5C382.46 542.43 384.43 537.9 385.41 533.75C386.84 527.67 387 502.64 387 281C387 59.36 386.84 34.33 385.41 28.25C384.39 23.95 382.49 19.63 380.16 16.34C378.15 13.5 374.25 9.61 371.5 7.68C368.43 5.54 363.9 3.57 359.75 2.59C353.71 1.17 336.21 1.01 193.25 1.11C56.31 1.21 32.64 1.43 27.5 2.69Z" />
		<path id="Path 1" class="shp1" d="M33.34 29.4C32.15 30.12 30.48 31.8 29.63 33.11C28.23 35.25 28.07 60.68 28.04 280.75C28.01 474.95 28.26 526.55 29.25 528.62C29.94 530.06 31.74 531.86 33.25 532.62C35.55 533.78 61.67 534 194 534C326.33 534 352.45 533.78 354.75 532.62C356.26 531.86 358.06 530.06 358.75 528.62C359.74 526.55 360 474.94 360 281C360 87.06 359.74 35.45 358.75 33.38C358.06 31.94 356.26 30.14 354.75 29.38C352.45 28.22 326.35 28.01 193.75 28.04C64.2 28.06 35.11 28.31 33.34 29.4Z" />
		<path id="Path 2" class="shp0" d="M64.5 42.88C62.85 43.31 60.15 44.38 58.5 45.25C56.85 46.12 54.07 48.33 52.31 50.16C50.56 52 48.65 54.74 48.06 56.25C47.48 57.76 47 61.36 47.01 64.25C47.01 67.51 47.69 70.64 48.8 72.5L50.6 75.5C44.63 81.7 42.42 85.08 41.82 87C41.23 88.92 40.99 92.75 41.29 95.5C41.65 98.75 42.84 101.9 44.71 104.5C46.29 106.7 50.04 109.96 53.04 111.75C56.04 113.54 60.98 115.5 64 116.12C67.03 116.74 71.97 116.98 75 116.65C78.03 116.33 82.53 115.39 85 114.57C87.47 113.74 91.71 111.14 94.42 108.78C97.12 106.43 99.93 103.04 100.67 101.25C101.4 99.46 102 95.75 102 93C102 90.25 101.21 86.35 100.25 84.34C99.29 82.33 97.04 79.41 95.25 77.84C92.04 75.03 92.02 74.96 93.5 71.5C94.33 69.58 95 65.97 95 63.5C95 61.02 94.55 57.88 94 56.5C93.45 55.13 91.54 52.37 89.75 50.37C87.96 48.38 84.81 45.9 82.75 44.87C80.69 43.84 76.41 42.79 73.25 42.54C70.09 42.29 66.15 42.44 64.5 42.88Z" />
		<path id="Path 3" class="shp1" d="M65.11 61.5C64.29 62.61 64.32 63.4 65.25 64.54C65.94 65.39 67.74 66.07 69.25 66.04C70.77 66.02 72.22 65.33 72.5 64.5C72.78 63.67 72.78 62.33 72.5 61.5C72.21 60.63 70.79 60 69.11 60C67.52 60 65.72 60.67 65.11 61.5ZM63.25 87.49C61.09 88.94 61.07 89.08 62.75 90.98C63.71 92.07 65.63 93.18 67 93.44C68.38 93.7 71.19 93.48 73.25 92.96C75.31 92.43 77.3 91.44 77.66 90.75C78.03 90.04 77.28 88.73 75.91 87.71C74.5 86.66 71.83 85.93 69.5 85.95C67.3 85.97 64.49 86.66 63.25 87.49Z" />
		<path id="Path 4" class="shp0" d="M196.5 116.06C192.65 116.58 184.78 118.18 179 119.6C173.22 121.03 164.68 123.67 160 125.46C155.32 127.26 147.9 130.54 143.5 132.76C139.1 134.98 131.45 139.46 126.5 142.72C121.55 145.97 113.45 152.02 108.5 156.14C103.55 160.27 96.4 166.99 92.62 171.07C88.83 175.16 83.16 181.88 80.01 186C76.86 190.13 72.11 196.88 69.45 201C66.79 205.13 61.79 214.35 58.34 221.5C54.88 228.65 50.51 239.22 48.63 245C46.75 250.78 44.29 259.77 43.17 265C42.05 270.23 40.65 278.89 40.07 284.25C39.48 289.61 39 298.27 39 303.5C39 308.73 39.66 318.06 40.47 324.25C41.28 330.44 43.05 339.77 44.4 345C45.76 350.23 48.61 358.77 50.74 364C52.88 369.23 56.46 376.65 58.7 380.5C60.94 384.35 65.45 391.1 68.72 395.5C71.98 399.9 78.47 407.1 83.14 411.5C87.81 415.9 94.75 421.6 98.56 424.16C102.38 426.72 109.1 430.67 113.5 432.93C117.9 435.2 126.22 438.56 132 440.42C137.78 442.27 145.88 444.4 150 445.14C154.54 445.96 164.21 446.47 174.5 446.42C187.82 446.36 193.66 445.88 201.5 444.21C207 443.04 215.78 440.69 221 438.99C226.22 437.3 235.22 433.64 241 430.88C246.78 428.11 255.32 423.35 260 420.31C264.68 417.27 272.55 411.51 277.5 407.52C282.45 403.52 290.06 396.49 294.4 391.88C298.75 387.27 304.87 380.13 308.01 376C311.15 371.88 315.89 365.13 318.55 361C321.21 356.88 326.21 347.65 329.66 340.5C333.12 333.35 337.49 322.77 339.37 317C341.25 311.23 343.71 302.23 344.83 297C345.95 291.77 347.35 283.11 347.93 277.75C348.52 272.39 349 263.73 349 258.5C349 253.28 348.34 243.94 347.53 237.75C346.72 231.56 344.95 222.22 343.6 217C342.24 211.78 339.39 203.22 337.26 198C335.12 192.78 331.54 185.35 329.3 181.5C327.06 177.65 322.55 170.9 319.28 166.5C316.02 162.1 309.53 154.9 304.86 150.5C300.19 146.1 293.25 140.4 289.44 137.84C285.62 135.28 278.9 131.34 274.5 129.08C270.1 126.83 262.45 123.64 257.5 121.99C252.55 120.35 245.13 118.32 241 117.49C236.88 116.65 226.75 115.78 218.5 115.54C210.25 115.3 200.35 115.54 196.5 116.06Z" />
		<path id="Path 5" class="shp1" d="M182.19 189.8C180.92 190.1 177.1 191.15 173.69 192.14C170.29 193.13 164.8 195.68 161.5 197.81C158.2 199.93 153.59 203.77 151.25 206.34C148.91 208.9 145.93 213.14 144.62 215.75C143.31 218.36 141.68 223.2 141 226.5C140.23 230.19 140.01 235.19 140.41 239.5C140.8 243.64 142.1 248.75 143.6 252C144.99 255.02 146.77 258.29 147.56 259.25C148.86 260.84 148.38 261.59 142.4 267.25C137.61 271.79 134.81 275.54 132.15 280.95C128.62 288.15 128.5 288.75 128.5 299.45C128.5 309.81 128.7 310.9 131.66 317C133.9 321.6 136.96 325.54 142.16 330.5C146.38 334.53 152.47 339.06 156.5 341.18C160.35 343.2 167.1 345.9 171.5 347.17C178.22 349.12 181.82 349.49 194 349.49C206.18 349.49 209.78 349.12 216.5 347.17C220.9 345.9 227.65 343.2 231.5 341.18C235.53 339.06 241.62 334.53 245.84 330.5C251.04 325.54 254.1 321.6 256.34 317C259.3 310.9 259.5 309.81 259.5 299.45C259.5 288.77 259.38 288.15 255.86 280.95C253.03 275.16 250.54 271.94 244.67 266.5L237.12 259.5C243.34 246.9 243.5 245.99 243.5 235.02C243.5 224.06 243.34 223.12 240.32 216.98C238.25 212.76 234.94 208.37 230.82 204.4C227.35 201.04 221.69 196.88 218.25 195.15C214.81 193.42 209.19 191.33 205.75 190.51C202.31 189.7 196.13 189.08 192 189.15C187.88 189.22 183.46 189.51 182.19 189.8Z" />
		<path id="Path 6" class="shp0" d="M179.56 228.07C177.45 229.66 176.83 230.94 176.9 233.57C176.97 236.09 177.73 237.54 179.75 239.03C181.65 240.44 184 241.06 187.33 241.03C191.35 241.01 192.64 240.5 195.08 238C196.68 236.35 198 234.32 198 233.5C198 232.68 196.65 230.65 195 229C192.49 226.49 191.21 226 187.15 226C183.8 226 181.46 226.64 179.56 228.07ZM184 283.03C181.53 283.38 177.81 284.64 175.75 285.83C173.69 287.02 171.78 288.9 171.5 290C171.22 291.1 171.45 292.9 172 294C172.55 295.1 174.91 296.99 177.25 298.2C180.59 299.94 183.2 300.41 189.5 300.41C195.8 300.41 198.41 299.94 201.75 298.2C204.09 296.99 206.5 294.99 207.11 293.75C207.91 292.11 207.91 290.89 207.11 289.25C206.5 288.01 204.09 286.15 201.75 285.1C199.41 284.06 195.47 283.02 193 282.8C190.53 282.57 186.47 282.68 184 283.03ZM299 436.52C295.98 437.36 291.74 439.27 289.6 440.77C287.45 442.27 284.38 445.07 282.78 447C280.75 449.45 279.7 452.01 279.3 455.5C278.99 458.25 279.02 462.19 279.37 464.25C279.79 466.76 281.46 469.57 284.43 472.75C288.8 477.44 288.84 477.54 287.43 480.75C286.64 482.54 286 486.02 286 488.5C286 490.98 286.73 494.46 287.61 496.25C288.5 498.04 290.41 500.78 291.86 502.34C293.31 503.9 296.3 506.13 298.5 507.29C301.54 508.89 304.31 509.39 310 509.39C315.66 509.39 318.48 508.88 321.5 507.31C323.7 506.16 326.8 503.93 328.39 502.36C329.98 500.79 331.89 498.04 332.64 496.25C333.39 494.46 334 490.64 333.99 487.75C333.99 484.47 333.31 481.37 332.19 479.5L330.38 476.5C335.79 471.07 337.95 468.04 338.68 466.25C339.41 464.46 339.99 461.09 339.99 458.75C339.98 456.36 338.99 452.56 337.74 450.08C336.51 447.64 334.15 444.53 332.5 443.17C330.85 441.8 327.02 439.57 324 438.2C320.33 436.55 316.17 435.6 311.5 435.36C307.22 435.14 302.36 435.59 299 436.52Z" />
		<path id="Path 7" class="shp1" d="M307.25 459.08C305.46 459.59 303.77 460.68 303.5 461.5C303.22 462.35 303.98 463.66 305.25 464.51C306.49 465.34 309.3 466.03 311.5 466.05C313.86 466.07 316.46 465.35 317.83 464.29C320.08 462.56 320.09 462.44 318.33 460.86C317.32 459.96 315.15 458.98 313.5 458.69C311.85 458.4 309.04 458.57 307.25 459.08ZM308.58 487.5C308.26 488.32 308.23 489.68 308.5 490.5C308.78 491.33 310.23 492.02 311.75 492.04C313.26 492.07 315.06 491.39 315.75 490.54C316.75 489.31 316.75 488.69 315.75 487.46C315.06 486.61 313.3 485.93 311.83 485.96C310.37 485.98 308.91 486.68 308.58 487.5Z" />
	</g>
</svg>