<svg version="1.2" baseProfile="tiny-ps" xmlns="http://www.w3.org/2000/svg" viewBox="0 0 388 562" width="388" height="562">
	<title>Blue_2</title>
	<style>
		tspan { white-space:pre }
		.shp0 { fill: #ffffff } 
		.shp1 { fill: #0098dc } 
	</style>
	<g id="Background">
		<path id="Path 0" class="shp0" d="M27.5 2.69C24.17 3.51 19.28 5.72 16.5 7.67C13.75 9.6 9.85 13.5 7.84 16.34C5.51 19.63 3.61 23.95 2.59 28.25C1.16 34.33 1 59.36 1 281C1 502.64 1.16 527.67 2.59 533.75C3.61 538.05 5.51 542.37 7.84 545.66C9.85 548.5 13.75 552.39 16.5 554.32C19.57 556.46 24.1 558.43 28.25 559.41C34.28 560.83 51.98 561 194 561C336.02 561 353.72 560.83 359.75 559.41C364.05 558.39 368.37 556.49 371.66 554.16C374.5 552.15 378.39 548.25 380.32 545.5C382.46 542.43 384.43 537.9 385.41 533.75C386.84 527.67 387 502.64 387 281C387 59.36 386.84 34.33 385.41 28.25C384.39 23.95 382.49 19.63 380.16 16.34C378.15 13.5 374.25 9.61 371.5 7.68C368.43 5.54 363.9 3.57 359.75 2.59C353.71 1.17 336.21 1.01 193.25 1.11C56.31 1.21 32.64 1.43 27.5 2.69Z" />
		<path id="Path 1" class="shp1" d="M33.34 29.4C32.15 30.12 30.48 31.8 29.63 33.11C28.23 35.25 28.07 60.68 28.04 280.75C28.01 474.95 28.26 526.55 29.25 528.62C29.94 530.06 31.74 531.86 33.25 532.62C35.55 533.78 61.67 534 194 534C326.33 534 352.45 533.78 354.75 532.62C356.26 531.86 358.06 530.06 358.75 528.62C359.74 526.55 360 474.94 360 281C360 87.06 359.74 35.45 358.75 33.38C358.06 31.94 356.26 30.14 354.75 29.38C352.45 28.22 326.35 28.01 193.75 28.04C64.2 28.06 35.11 28.31 33.34 29.4Z" />
		<path id="Path 2" class="shp0" d="M50.9 45.88C49.79 52.27 48.67 58.4 48.4 59.5C47.96 61.38 48.52 61.52 57.71 61.84C63.1 62.02 68.51 62.58 69.75 63.09C70.99 63.59 72 64.67 72 65.5C72 66.33 71.21 67.25 70.25 67.56C69.29 67.87 65.58 68.35 62 68.63C58.42 68.91 53.7 69.76 51.5 70.52C48.87 71.42 46.6 73.2 44.88 75.69C43.44 77.79 41.48 81.97 40.52 85C39.43 88.44 38.54 95.65 38.14 104.25C37.73 113.18 37.85 118.01 38.5 118.01C39.05 118.02 54.35 119.56 72.5 121.45C90.65 123.34 105.59 124.8 105.7 124.69C105.81 124.59 104.35 117.08 102.46 108C100.57 98.92 98.91 91.45 98.76 91.39C98.62 91.32 92.79 91.77 85.81 92.39C78.84 93 72.87 93.28 72.55 93C72.24 92.72 72.32 91.69 72.74 90.69C73.16 89.7 75.3 88.25 77.5 87.49C79.7 86.72 84.2 85.57 87.5 84.94C90.8 84.31 95.05 82.83 96.94 81.65C98.89 80.43 101.15 77.77 102.17 75.5C103.3 72.96 103.96 69.04 103.98 64.75C103.99 60.35 103.39 56.72 102.25 54.33C101.29 52.31 98.47 48.91 96 46.78C93.53 44.64 89.03 41.97 86 40.84C82.97 39.71 76.45 37.98 71.5 36.99C66.55 36 60.34 34.98 57.71 34.73L52.92 34.27L50.9 45.88ZM196.5 116.06C192.65 116.58 184.78 118.18 179 119.6C173.22 121.03 164.68 123.67 160 125.46C155.32 127.26 147.9 130.54 143.5 132.76C139.1 134.98 131.45 139.46 126.5 142.72C121.55 145.97 113.45 152.02 108.5 156.14C103.55 160.27 96.4 166.99 92.62 171.07C88.83 175.16 83.16 181.88 80.01 186C76.86 190.13 72.11 196.88 69.45 201C66.79 205.13 61.79 214.35 58.34 221.5C54.88 228.65 50.51 239.22 48.63 245C46.75 250.78 44.29 259.77 43.17 265C42.05 270.23 40.65 278.89 40.07 284.25C39.48 289.61 39 298.27 39 303.5C39 308.73 39.66 318.06 40.47 324.25C41.28 330.44 43.05 339.77 44.4 345C45.76 350.23 48.61 358.77 50.74 364C52.88 369.23 56.46 376.65 58.7 380.5C60.94 384.35 65.45 391.1 68.72 395.5C71.98 399.9 78.47 407.1 83.14 411.5C87.81 415.9 94.75 421.6 98.56 424.16C102.38 426.72 109.1 430.67 113.5 432.93C117.9 435.2 126.22 438.56 132 440.42C137.78 442.27 145.88 444.4 150 445.14C154.54 445.96 164.21 446.47 174.5 446.42C187.82 446.36 193.66 445.88 201.5 444.21C207 443.04 215.78 440.69 221 438.99C226.22 437.3 235.22 433.64 241 430.88C246.78 428.11 255.32 423.35 260 420.31C264.68 417.27 272.55 411.51 277.5 407.52C282.45 403.52 290.06 396.49 294.4 391.88C298.75 387.27 304.87 380.13 308.01 376C311.15 371.88 315.89 365.13 318.55 361C321.21 356.88 326.21 347.65 329.66 340.5C333.12 333.35 337.49 322.77 339.37 317C341.25 311.23 343.71 302.23 344.83 297C345.95 291.77 347.35 283.11 347.93 277.75C348.52 272.39 349 263.73 349 258.5C349 253.28 348.34 243.94 347.53 237.75C346.72 231.56 344.95 222.22 343.6 217C342.24 211.78 339.39 203.22 337.26 198C335.12 192.78 331.54 185.35 329.3 181.5C327.06 177.65 322.55 170.9 319.28 166.5C316.02 162.1 309.53 154.9 304.86 150.5C300.19 146.1 293.25 140.4 289.44 137.84C285.62 135.28 278.9 131.34 274.5 129.08C270.1 126.83 262.45 123.64 257.5 121.99C252.55 120.35 245.13 118.32 241 117.49C236.88 116.65 226.75 115.78 218.5 115.54C210.25 115.3 200.35 115.54 196.5 116.06Z" />
		<path id="Path 3" class="shp1" d="M153.64 175.13C153.24 176.98 150.78 189.97 148.17 204L143.42 229.5C172.93 230.42 183.53 231.25 186 231.95C188.47 232.64 191.74 233.84 193.25 234.6C195.14 235.57 196 236.78 196 238.5C196 240.32 195.12 241.44 192.75 242.63C190.96 243.52 186.57 244.86 183 245.6C179.43 246.33 172 247.21 166.5 247.55C161 247.89 154.25 248.77 151.5 249.51C148.08 250.42 144.8 252.38 141.14 255.67C137.24 259.18 134.72 262.69 131.91 268.5C129.79 272.9 127.13 280.1 126.01 284.5C124.88 288.9 123.26 297.9 122.4 304.5C121.55 311.1 120.77 324.58 120.67 334.46L120.5 352.41C234.43 364.25 267.57 367.64 267.66 367.59C267.74 367.54 264.48 351.52 260.42 332C256.35 312.48 252.9 296.37 252.76 296.2C252.62 296.04 242.38 296.6 230 297.46C217.63 298.31 204.46 299.35 200.74 299.76L193.98 300.5C194.04 295.85 194.61 293.81 195.28 292.96C195.95 292.12 197.85 290.48 199.5 289.31C201.15 288.15 205.43 286.27 209 285.13C212.57 283.99 220.68 282.15 227 281.05C234.33 279.77 240.68 277.99 244.5 276.13C248 274.43 252.08 271.4 254.28 268.86C256.36 266.46 258.89 262.7 259.91 260.5C260.93 258.3 262.32 254.03 263 251C263.78 247.52 264.06 241.27 263.76 234C263.39 225.15 262.74 221.12 260.94 216.5C259.28 212.24 256.7 208.5 252.05 203.63C248.45 199.86 242.57 195.04 239 192.94C235.43 190.83 228.9 187.68 224.5 185.94C220.1 184.19 211.55 181.48 205.5 179.9C199.45 178.32 188.65 176.15 181.5 175.07C174.35 173.99 165.32 172.8 161.43 172.43L154.35 171.76L153.64 175.13Z" />
		<path id="Path 4" class="shp0" d="M275.41 428.68C275.66 429.68 276.61 434.32 277.52 439C278.42 443.68 279.8 450.54 280.58 454.25C281.96 460.79 282.08 460.99 284.75 460.56C286.26 460.31 292.34 459.86 298.25 459.56C307.39 459.08 309 459.23 309 460.5C309 461.32 307.65 462.68 306 463.5C304.35 464.32 299.51 465.72 295.25 466.6C290.99 467.48 286.15 469 284.5 469.98C282.85 470.95 280.49 473.72 279.26 476.12C277.61 479.36 277.02 482.26 277.01 487.25C277 491.64 277.61 495.28 278.75 497.67C279.71 499.69 282.52 503.09 285 505.22C287.48 507.36 291.98 510.03 295 511.16C298.02 512.29 304.55 514.02 309.5 515.01C314.45 516 320.6 516.96 323.18 517.15L327.85 517.5C331.17 499.68 332.32 493.71 332.56 492.75C332.95 491.2 331.87 490.93 323.25 490.37C317.89 490.02 312.49 489.35 311.25 488.87C310.01 488.39 309 487.32 309 486.5C309 485.68 309.79 484.75 310.75 484.45C311.71 484.15 316.44 483.48 321.25 482.95C326.06 482.43 330.85 481.44 331.89 480.75C332.94 480.06 334.83 478.15 336.11 476.5C337.39 474.85 339.26 470.8 340.27 467.5C341.28 464.2 342.48 456.1 342.92 449.5C343.37 442.9 343.57 436.71 343.37 435.75C343.17 434.79 342.66 434 342.25 433.99C341.84 433.99 328.45 432.64 312.5 431C296.55 429.36 281.58 427.75 279.23 427.43C275.44 426.92 275.01 427.06 275.41 428.68Z" />
	</g>
</svg>