<svg version="1.2" baseProfile="tiny-ps" xmlns="http://www.w3.org/2000/svg" viewBox="0 0 388 562" width="388" height="562">
	<title>Wild</title>
	<style>
		tspan { white-space:pre }
		.shp0 { fill: #ffffff } 
		.shp1 { fill: #33984b } 
		.shp2 { fill: #ea323c } 
		.shp3 { fill: #0098dc } 
		.shp4 { fill: #ffc825 } 
	</style>
	<g id="Background">
		<path id="Path 0" class="shp0" d="M27.5 2.69C24.17 3.51 19.28 5.72 16.5 7.67C13.75 9.6 9.85 13.5 7.84 16.34C5.51 19.63 3.61 23.95 2.59 28.25C1.16 34.33 1 59.36 1 281C1 502.64 1.16 527.67 2.59 533.75C3.61 538.05 5.51 542.37 7.84 545.66C9.85 548.5 13.75 552.39 16.5 554.32C19.57 556.46 24.1 558.43 28.25 559.41C34.28 560.83 51.98 561 194 561C336.02 561 353.72 560.83 359.75 559.41C364.05 558.39 368.37 556.49 371.66 554.16C374.5 552.15 378.39 548.25 380.32 545.5C382.46 542.43 384.43 537.9 385.41 533.75C386.84 527.67 387 502.64 387 281C387 59.36 386.84 34.33 385.41 28.25C384.39 23.95 382.49 19.63 380.16 16.34C378.15 13.5 374.25 9.61 371.5 7.68C368.43 5.54 363.9 3.57 359.75 2.59C353.71 1.17 336.21 1.01 193.25 1.11C56.31 1.21 32.64 1.43 27.5 2.69Z" />
		<path id="Path 1" class="shp1" d="M33.34 29.4C32.15 30.12 30.48 31.8 29.63 33.11C28.23 35.25 28.07 60.68 28.04 280.75C28.01 474.95 28.26 526.55 29.25 528.62C29.94 530.06 31.74 531.86 33.25 532.62C35.55 533.78 61.67 534 194 534C326.33 534 352.45 533.78 354.75 532.62C356.26 531.86 358.06 530.06 358.75 528.62C359.74 526.55 360 474.94 360 281C360 87.06 359.74 35.45 358.75 33.38C358.06 31.94 356.26 30.14 354.75 29.38C352.45 28.22 326.35 28.01 193.75 28.04C64.2 28.06 35.11 28.31 33.34 29.4Z" />
		<path id="Path 2" class="shp0" d="M69 38.43C66.53 39.11 62.92 40.49 61 41.48C59.08 42.47 55.56 44.68 53.19 46.39C50.82 48.1 47.14 51.98 45.01 55C42.88 58.02 40.13 63.2 38.91 66.5C37.23 71.03 36.68 74.7 36.66 81.5C36.64 88.32 37.15 91.84 38.75 96C39.92 99.03 42.87 103.75 45.3 106.5C47.74 109.25 51.7 112.5 54.11 113.73C56.53 114.96 61.42 116.51 65 117.17C70.16 118.12 72.73 118.11 77.5 117.09C80.8 116.38 85.3 114.89 87.5 113.77C89.7 112.65 93.44 110.33 95.81 108.62C98.18 106.9 101.86 103.03 103.99 100C106.12 96.97 108.87 91.8 110.09 88.5C111.77 83.97 112.32 80.3 112.34 73.5C112.36 66.63 111.86 63.2 110.22 59C109.04 55.98 106.37 51.51 104.29 49.08C102.2 46.66 98.81 43.62 96.75 42.33C94.69 41.05 90.41 39.32 87.25 38.49C84.09 37.67 79.7 37.03 77.5 37.08C75.3 37.14 71.47 37.74 69 38.43Z" />
		<path id="Path 3" class="shp2" d="M70.97 46.93C69.58 47.34 66.54 48.65 64.22 49.84C61.9 51.03 58.2 53.8 56 56C53.8 58.2 50.88 62.25 49.5 65C48.13 67.75 47 70.56 47 71.25C47 71.98 51.89 73.96 58.75 76C65.21 77.92 70.93 79.5 71.46 79.5C71.99 79.5 73.17 77.03 74.09 74C75.01 70.97 77.39 63.44 79.38 57.25L83 46C75.64 46.13 72.36 46.51 70.97 46.93Z" />
		<path id="Path 4" class="shp3" d="M77.19 63.75C74.36 72.96 72.03 80.72 72.02 81C72.01 81.28 72.56 81.54 73.25 81.58C73.94 81.63 79.79 83.31 86.25 85.33C92.71 87.35 98.56 89.01 99.25 89.03C99.94 89.04 101.28 86.46 102.24 83.28C103.2 80.1 103.99 75.7 104 73.5C104.01 71.3 103.34 67.14 102.51 64.25C101.59 61.05 99.53 57.39 97.25 54.88C95.19 52.61 91.81 49.91 89.75 48.88C87.69 47.85 85.18 47 84.17 47C82.67 47 81.4 50.06 77.19 63.75Z" />
		<path id="Path 5" class="shp4" d="M45.61 75.25C45.29 76.49 45.02 79.3 45 81.5C44.99 83.7 45.66 87.86 46.49 90.75C47.41 93.95 49.47 97.61 51.75 100.12C53.81 102.39 57.19 105.09 59.25 106.12C61.31 107.15 63.17 107.89 63.38 107.75C63.6 107.61 65.42 102.1 67.45 95.5C69.47 88.9 71.32 82.71 71.56 81.75C71.93 80.3 70.08 79.41 60.75 76.52C54.56 74.61 48.76 73.03 47.85 73.02C46.94 73.01 45.93 74.01 45.61 75.25Z" />
		<path id="Path 6" class="shp1" d="M72.24 81.88C71.79 82.22 69.72 88.13 67.64 95C64.63 104.95 64.13 107.66 65.18 108.3C65.91 108.74 69.2 108.92 72.5 108.69C76.05 108.45 80.34 107.35 83 106C85.47 104.74 88.85 102.69 90.5 101.44C92.15 100.19 94.96 97.11 96.75 94.59L100 90C96.51 88.63 90.45 86.66 84.28 84.74C78.1 82.82 72.68 81.53 72.24 81.88Z" />
		<path id="Path 7" class="shp0" d="M194.5 116.52C189.55 117.32 181 119.13 175.5 120.54C170 121.95 160.78 125 155.01 127.3C149.23 129.61 140.59 133.75 135.79 136.5C130.99 139.25 122.89 144.42 117.78 147.98C112.4 151.74 102.82 160.15 94.98 167.98C87.29 175.67 78.67 185.48 74.98 190.74C71.42 195.82 66.07 204.15 63.11 209.24C60.14 214.33 55.48 223.68 52.76 230C50.04 236.32 46.33 246.9 44.52 253.5C42.71 260.1 40.4 270 39.4 275.5C38.03 282.98 37.57 290.28 37.59 304.5C37.62 321.17 37.94 325.03 40.27 336C41.72 342.88 44.09 352.1 45.53 356.5C46.96 360.9 49.94 368.32 52.14 373C54.34 377.68 59.09 386 62.69 391.5C66.82 397.8 72.99 405.25 79.37 411.63C85.76 418.01 93.19 424.17 99.5 428.3C105 431.91 112.88 436.41 117 438.3C121.13 440.19 127.65 442.73 131.5 443.94C135.35 445.14 142.55 447.02 147.5 448.1C152.45 449.18 162.35 450.33 169.5 450.66C179.2 451.1 185.42 450.82 194 449.55C200.32 448.61 209.78 446.72 215 445.36C220.22 444 229.22 441 234.99 438.69C240.77 436.39 249.41 432.25 254.21 429.5C259.01 426.75 267.11 421.59 272.22 418.04C277.71 414.22 287.02 406.05 295.01 398.04C302.6 390.44 311.37 380.45 315.01 375.26C318.58 370.18 323.93 361.85 326.89 356.76C329.86 351.67 334.52 342.32 337.24 336C339.96 329.68 343.67 319.1 345.48 312.5C347.29 305.9 349.59 296 350.59 290.5C351.89 283.34 352.42 275.39 352.45 262.5C352.48 251.77 351.96 241.47 351.17 237C350.44 232.88 348.69 225 347.29 219.5C345.88 214 343.4 206.13 341.76 202C340.13 197.88 337.54 192.03 336 189C334.46 185.97 330.4 179.22 326.98 174C323.19 168.22 316.79 160.54 310.62 154.37C304.24 147.98 296.81 141.83 290.5 137.7C285 134.09 277.13 129.59 273 127.7C268.88 125.81 262.35 123.27 258.5 122.06C254.65 120.86 247.45 118.98 242.5 117.88C236.59 116.58 228.35 115.75 218.5 115.48C208.26 115.19 200.64 115.52 194.5 116.52Z" />
		<path id="Path 8" class="shp2" d="M195 125.45C190.32 126.21 182.68 127.81 178 129.01C173.32 130.2 165 132.96 159.5 135.13C154 137.31 145.45 141.38 140.5 144.17C135.55 146.97 127.68 152.02 123 155.38C118.33 158.75 109.83 166 104.13 171.5C98.42 177 91.03 184.88 87.71 189C84.38 193.13 79.26 200.21 76.33 204.75C73.4 209.29 68.57 217.84 65.61 223.75C62.64 229.66 58.59 239.22 56.6 245C54.62 250.78 53.11 255.54 53.25 255.58C53.39 255.63 82.97 264.75 119 275.86C155.03 286.96 184.72 295.78 185 295.46C185.28 295.14 197.22 256.99 211.55 210.69C236.58 129.81 237.53 126.47 235.55 125.65C234.42 125.19 226.75 124.64 218.5 124.43C208.7 124.19 200.55 124.54 195 125.45Z" />
		<path id="Path 9" class="shp3" d="M237.46 127.25C237.19 127.94 225.35 166.07 211.15 212C194.31 266.5 185.72 295.72 186.42 296.14C187.01 296.49 218.21 306.28 255.75 317.89C293.29 329.5 324.45 339 325 339C325.55 339 327.29 336.19 328.87 332.75C330.45 329.31 333.09 322.45 334.76 317.5C336.42 312.55 338.69 304.23 339.82 299C340.94 293.77 342.41 284.77 343.07 279C343.79 272.71 344.04 263.29 343.68 255.5C343.36 248.35 342.37 238.45 341.49 233.5C340.61 228.55 338.17 219.32 336.07 213C333.97 206.68 330.79 198.57 329.01 195C327.22 191.43 323.34 184.79 320.38 180.25C317.42 175.71 311.06 167.9 306.25 162.89C301.44 157.88 294.8 151.76 291.5 149.29C288.2 146.81 282.35 142.96 278.5 140.72C274.65 138.48 268.35 135.35 264.5 133.76C260.65 132.17 253.45 129.77 248.5 128.44C243.55 127.1 239.15 126 238.73 126C238.3 126 237.73 126.56 237.46 127.25Z" />
		<path id="Path 10" class="shp4" d="M52.65 256.75C52.41 257.16 51.29 261.77 50.17 267C49.05 272.23 47.59 281.23 46.93 287C46.22 293.2 45.96 302.82 46.3 310.5C46.61 317.65 47.84 328.45 49.03 334.5C50.23 340.55 52.78 350 54.71 355.5C56.64 361 59.57 368.2 61.23 371.5C62.89 374.8 66.66 381.21 69.62 385.75C72.58 390.29 78.94 398.1 83.75 403.11C88.56 408.12 95.2 414.24 98.5 416.71C101.8 419.19 107.65 423.06 111.5 425.31C115.35 427.56 122.78 431.1 128 433.17C133.22 435.25 138.51 436.96 139.75 436.97C141.07 436.99 142.19 436.27 142.46 435.25C142.71 434.29 152.4 402.68 163.99 365C175.58 327.32 184.94 296.43 184.78 296.33C184.63 296.24 155.36 287.13 119.75 276.08C84.14 265.04 54.57 256 54.05 256C53.53 256 52.9 256.34 52.65 256.75Z" />
		<path id="Path 11" class="shp1" d="M163.62 366.73C151.63 405.65 141.98 437.6 142.16 437.72C142.35 437.84 145.65 438.64 149.5 439.49C153.35 440.34 161.9 441.32 168.5 441.67C176.04 442.06 184.21 441.83 190.5 441.03C196 440.34 204.89 438.7 210.25 437.39C215.61 436.07 224.61 433.18 230.25 430.96C235.89 428.73 244.55 424.62 249.5 421.83C254.45 419.03 262.32 413.98 267 410.62C271.67 407.25 280.17 400 285.88 394.5C291.59 389 299.15 380.9 302.69 376.5C306.23 372.1 311.51 364.68 314.42 360C317.33 355.32 321.07 348.8 322.74 345.5L325.76 339.5C218.61 306.34 187.03 296.54 186.45 296.33C185.85 296.11 176.23 325.77 163.62 366.73Z" />
		<path id="Path 12" class="shp0" d="M306 446.43C303.52 447.11 299.93 448.49 298 449.48C296.07 450.47 292.56 452.68 290.19 454.39C287.82 456.1 284.14 459.98 282.01 463C279.88 466.02 277.13 471.2 275.91 474.5C274.23 479.03 273.68 482.7 273.66 489.5C273.64 496.32 274.15 499.84 275.75 504C276.92 507.02 279.87 511.75 282.3 514.5C284.74 517.25 288.7 520.5 291.11 521.73C293.53 522.96 298.43 524.51 302 525.17C307.16 526.12 309.73 526.11 314.5 525.09C317.8 524.38 322.3 522.89 324.5 521.77C326.7 520.65 330.44 518.33 332.81 516.62C335.18 514.9 338.86 511.02 340.99 508C343.12 504.98 345.87 499.8 347.09 496.5C348.77 491.97 349.32 488.3 349.34 481.5C349.36 474.63 348.86 471.2 347.22 467C346.04 463.98 343.37 459.51 341.29 457.08C339.2 454.66 335.81 451.62 333.75 450.33C331.69 449.05 327.41 447.32 324.25 446.49C321.09 445.67 316.7 445.03 314.5 445.08C312.3 445.14 308.48 445.74 306 446.43Z" />
		<path id="Path 13" class="shp1" d="M307.97 454.93C306.58 455.34 303.54 456.65 301.22 457.84C298.9 459.03 295.2 461.8 293 464C290.8 466.2 288.32 469.35 287.5 471C286.68 472.65 286.11 474.18 286.25 474.4C286.39 474.62 292.35 476.63 299.5 478.87C306.65 481.11 312.61 482.84 312.74 482.72C312.87 482.6 314.83 476.67 317.08 469.55C319.33 462.42 320.91 456.01 320.59 455.3C320.22 454.48 318.25 454.03 315.25 454.09C312.64 454.13 309.36 454.51 307.97 454.93Z" />
		<path id="Path 14" class="shp4" d="M317.29 468.75C313.81 480.44 313.41 482.69 314.6 483.75C315.37 484.44 316.45 484.77 317 484.5C317.55 484.23 318.23 484.45 318.5 485C318.77 485.55 319.45 485.77 320 485.5C320.55 485.23 321.23 485.45 321.5 486C321.77 486.55 322.45 486.77 323 486.5C323.55 486.23 324.23 486.45 324.5 487C324.77 487.55 325.68 487.77 326.5 487.5C327.32 487.23 328 487.45 328 488C328 488.55 328.45 488.77 329 488.5C329.55 488.23 330.56 488.33 331.25 488.73C331.94 489.14 332.84 489.59 333.25 489.73C333.66 489.88 334.11 490.04 334.25 490.08C334.39 490.13 335.63 490.36 337 490.61C339.14 490.99 339.61 490.58 340.26 487.77C340.68 485.97 341.02 482.93 341.02 481C341.02 479.07 340.34 475.14 339.51 472.25C338.59 469.05 336.53 465.39 334.25 462.88C332.19 460.61 328.81 457.91 326.75 456.88C324.69 455.85 322.63 455 322.19 455C321.74 455 319.53 461.19 317.29 468.75Z" />
		<path id="Path 15" class="shp3" d="M283.32 480.18C282.36 483.03 281.66 487.19 281.78 489.43C281.89 491.67 282.66 495.86 283.49 498.75C284.41 501.95 286.47 505.61 288.75 508.12C290.81 510.39 294.19 513.09 296.25 514.12C298.31 515.15 300.68 516 301.5 516C302.55 516 304.07 512.45 306.55 504.25C308.51 497.79 310.76 490.48 311.56 488C312.37 485.52 313.02 483.39 313.01 483.25C313.01 483.11 307.15 481.2 300 479C292.85 476.8 286.56 475 286.03 475C285.5 475 284.28 477.33 283.32 480.18Z" />
		<path id="Path 16" class="shp2" d="M312.73 484.71C312.46 485.14 310.17 492.25 307.64 500.5C305.11 508.75 303.03 515.95 303.01 516.5C302.99 517.13 305.32 517.27 309.24 516.89C312.96 516.53 317.63 515.21 320.75 513.64C323.64 512.19 327.8 509.2 330 507C332.2 504.8 335.16 500.64 336.57 497.75C337.98 494.86 338.77 492.22 338.32 491.87C337.87 491.52 332.77 489.81 327 488.06C321.23 486.31 315.76 484.66 314.86 484.4C313.96 484.14 313 484.27 312.73 484.71Z" />
	</g>
</svg>