<svg version="1.2" baseProfile="tiny-ps" xmlns="http://www.w3.org/2000/svg" viewBox="0 0 388 562" width="388" height="562">
	<title>Green_8</title>
	<style>
		tspan { white-space:pre }
		.shp0 { fill: #ffffff } 
		.shp1 { fill: #33984b } 
	</style>
	<g id="Background">
		<path id="Path 0" class="shp0" d="M27.5 2.69C24.17 3.51 19.28 5.72 16.5 7.67C13.75 9.6 9.85 13.5 7.84 16.34C5.51 19.63 3.61 23.95 2.59 28.25C1.16 34.33 1 59.36 1 281C1 502.64 1.16 527.67 2.59 533.75C3.61 538.05 5.51 542.37 7.84 545.66C9.85 548.5 13.75 552.39 16.5 554.32C19.57 556.46 24.1 558.43 28.25 559.41C34.28 560.83 51.98 561 194 561C336.02 561 353.72 560.83 359.75 559.41C364.05 558.39 368.37 556.49 371.66 554.16C374.5 552.15 378.39 548.25 380.32 545.5C382.46 542.43 384.43 537.9 385.41 533.75C386.84 527.67 387 502.64 387 281C387 59.36 386.84 34.33 385.41 28.25C384.39 23.95 382.49 19.63 380.16 16.34C378.15 13.5 374.25 9.61 371.5 7.68C368.43 5.54 363.9 3.57 359.75 2.59C353.71 1.17 336.21 1.01 193.25 1.11C56.31 1.21 32.64 1.43 27.5 2.69Z" />
		<path id="Path 1" class="shp1" d="M33.34 29.4C32.15 30.12 30.48 31.8 29.63 33.11C28.23 35.25 28.07 60.68 28.04 280.75C28.01 474.95 28.26 526.55 29.25 528.62C29.94 530.06 31.74 531.86 33.25 532.62C35.55 533.78 61.67 534 194 534C326.33 534 352.45 533.78 354.75 532.62C356.26 531.86 358.06 530.06 358.75 528.62C359.74 526.55 360 474.94 360 281C360 87.06 359.74 35.45 358.75 33.38C358.06 31.94 356.26 30.14 354.75 29.38C352.45 28.22 326.35 28.01 193.75 28.04C64.2 28.06 35.11 28.31 33.34 29.4Z" />
		<path id="Path 2" class="shp0" d="M64.5 42.94C62.85 43.34 60.15 44.38 58.5 45.25C56.85 46.12 54.07 48.33 52.31 50.16C50.56 52 48.65 54.74 48.06 56.25C47.48 57.76 47 61.36 47 64.25C47.01 67.72 47.66 70.52 48.93 72.5L50.85 75.5C46.12 80.15 43.91 83.3 42.9 85.5C41.88 87.7 41.04 91.3 41.04 93.5C41.03 95.7 42.03 99.49 43.26 101.92C44.49 104.34 47.08 107.57 49 109.09C50.92 110.6 54.75 112.86 57.5 114.11C61.47 115.91 64.35 116.39 71.5 116.43C79.31 116.47 81.29 116.11 86.5 113.68C89.8 112.15 94.02 109.45 95.87 107.7C97.72 105.94 99.86 103.04 100.62 101.25C101.38 99.46 102 95.75 102 93C102 90.13 101.21 86.4 100.14 84.25C99.11 82.19 96.86 79.26 95.14 77.75C92.05 75.04 92.02 74.95 93.5 71.5C94.33 69.58 94.99 66.09 94.98 63.75C94.97 61.41 94.14 57.7 93.14 55.5C92.14 53.3 89.68 50.04 87.66 48.25C85.65 46.46 81.64 44.32 78.75 43.49C75.86 42.66 72.15 42.03 70.5 42.09C68.85 42.15 66.15 42.53 64.5 42.94Z" />
		<path id="Path 3" class="shp1" d="M65.11 61.5C64.29 62.61 64.32 63.4 65.25 64.54C65.94 65.39 67.74 66.07 69.25 66.04C70.77 66.02 72.22 65.33 72.5 64.5C72.78 63.67 72.78 62.33 72.5 61.5C72.21 60.63 70.79 60 69.11 60C67.52 60 65.72 60.67 65.11 61.5ZM63.25 87.49C61.09 88.94 61.07 89.08 62.75 90.99C63.71 92.08 65.96 93.21 67.75 93.49C69.57 93.77 72.54 93.34 74.5 92.5C76.42 91.67 78.01 90.66 78.03 90.25C78.05 89.84 77.26 88.72 76.28 87.78C75.15 86.68 72.87 86.04 70 86.02C67.53 86 64.49 86.66 63.25 87.49Z" />
		<path id="Path 4" class="shp0" d="M196.5 116.06C192.65 116.58 184.78 118.18 179 119.6C173.22 121.03 164.68 123.67 160 125.46C155.32 127.26 147.9 130.54 143.5 132.76C139.1 134.98 131.45 139.46 126.5 142.72C121.55 145.97 113.45 152.02 108.5 156.14C103.55 160.27 96.4 166.99 92.62 171.07C88.83 175.16 83.16 181.88 80.01 186C76.86 190.13 72.11 196.88 69.45 201C66.79 205.13 61.79 214.35 58.34 221.5C54.88 228.65 50.51 239.22 48.63 245C46.75 250.78 44.29 259.77 43.17 265C42.05 270.23 40.65 278.89 40.07 284.25C39.48 289.61 39 298.27 39 303.5C39 308.73 39.66 318.06 40.47 324.25C41.28 330.44 43.05 339.77 44.4 345C45.76 350.23 48.61 358.77 50.74 364C52.88 369.23 56.46 376.65 58.7 380.5C60.94 384.35 65.45 391.1 68.72 395.5C71.98 399.9 78.47 407.1 83.14 411.5C87.81 415.9 94.75 421.6 98.56 424.16C102.38 426.72 109.1 430.67 113.5 432.93C117.9 435.2 126.22 438.56 132 440.42C137.78 442.27 145.88 444.4 150 445.14C154.54 445.96 164.21 446.47 174.5 446.42C187.82 446.36 193.66 445.88 201.5 444.21C207 443.04 215.78 440.69 221 438.99C226.22 437.3 235.22 433.64 241 430.88C246.78 428.11 255.32 423.35 260 420.31C264.68 417.27 272.55 411.51 277.5 407.52C282.45 403.52 290.06 396.49 294.4 391.88C298.75 387.27 304.87 380.13 308.01 376C311.15 371.88 315.89 365.13 318.55 361C321.21 356.88 326.21 347.65 329.66 340.5C333.12 333.35 337.49 322.77 339.37 317C341.25 311.23 343.71 302.23 344.83 297C345.95 291.77 347.35 283.11 347.93 277.75C348.52 272.39 349 263.73 349 258.5C349 253.28 348.34 243.94 347.53 237.75C346.72 231.56 344.95 222.22 343.6 217C342.24 211.78 339.39 203.22 337.26 198C335.12 192.78 331.54 185.35 329.3 181.5C327.06 177.65 322.55 170.9 319.28 166.5C316.02 162.1 309.53 154.9 304.86 150.5C300.19 146.1 293.25 140.4 289.44 137.84C285.62 135.28 278.9 131.34 274.5 129.08C270.1 126.83 262.45 123.64 257.5 121.99C252.55 120.35 245.13 118.32 241 117.49C236.88 116.65 226.75 115.78 218.5 115.54C210.25 115.3 200.35 115.54 196.5 116.06Z" />
		<path id="Path 5" class="shp1" d="M177.5 190.57C174.2 191.41 168.82 193.54 165.54 195.3C162.26 197.06 156.93 200.97 153.69 204C149.55 207.87 146.72 211.71 144.15 216.95C140.62 224.15 140.5 224.75 140.59 234.95C140.66 242.31 141.2 246.86 142.4 250C143.34 252.47 145.21 255.96 146.56 257.75L149 261C140.09 269.28 136.09 273.89 134.37 276.59C132.64 279.29 130.44 283.98 129.48 287C128.18 291.1 127.83 294.8 128.13 301.5C128.48 309.28 129 311.45 131.97 317.5C134.17 321.96 137.47 326.5 141.08 330C144.19 333.02 149.16 336.96 152.12 338.74C155.08 340.53 160.43 343.17 164 344.62C167.57 346.06 174.1 347.92 178.5 348.74C184.09 349.79 189.96 350.08 198 349.7C204.32 349.41 212.2 348.45 215.5 347.57C218.8 346.7 225.1 344.2 229.5 342.02C233.9 339.85 239.97 336.1 243 333.7C246.03 331.29 250.44 326.44 252.81 322.91C255.19 319.39 257.83 314.02 258.69 311C259.78 307.14 260.12 302.81 259.81 296.5C259.46 289.3 258.8 286.3 256.54 281.5C254.56 277.31 251.19 273.02 245.35 267.25L237 259C240.8 253.19 242.36 249.47 242.93 247C243.49 244.53 243.97 239.13 243.99 235C244 230.88 243.34 225.14 242.51 222.25C241.68 219.36 239.06 214.19 236.69 210.75C233.93 206.75 229.89 202.69 225.44 199.46C221.62 196.69 215.57 193.39 212 192.13C207.2 190.43 202.63 189.73 194.5 189.43C186.74 189.15 181.73 189.49 177.5 190.57Z" />
		<path id="Path 6" class="shp0" d="M180.12 227.99C177.23 229.68 176.75 230.49 176.87 233.49C176.96 236.07 177.73 237.54 179.75 239.03C181.65 240.44 184 241.06 187.33 241.03C191.35 241.01 192.64 240.5 195.08 238C196.68 236.35 198 234.32 198 233.5C198 232.68 196.65 230.65 195 229C192.61 226.61 191.14 226 187.75 226C185.32 226.01 182.05 226.86 180.12 227.99ZM184.38 283.05C181.7 283.37 177.81 284.62 175.75 285.82C173.69 287.02 171.78 288.9 171.5 290C171.22 291.1 171.45 292.9 172 294C172.55 295.1 174.91 296.97 177.25 298.17C180.44 299.79 183.38 300.35 189 300.39C195.07 300.44 197.44 299.98 201.42 297.98C204.13 296.61 206.83 294.49 207.42 293.26C208.32 291.38 208.09 290.59 206 288.41C204.63 286.99 202.6 285.34 201.5 284.77C200.4 284.19 197.2 283.43 194.38 283.09C191.56 282.74 187.06 282.72 184.38 283.05ZM300.75 436.04C298.69 436.57 294.86 438.07 292.25 439.37C289.64 440.67 286.04 443.37 284.25 445.37C282.46 447.37 280.55 450.13 280 451.5C279.45 452.88 279 456.25 279 459C279 461.87 279.79 465.6 280.86 467.75C281.89 469.81 284.14 472.74 285.86 474.25C288.95 476.96 288.98 477.05 287.5 480.5C286.68 482.43 286.01 485.91 286.02 488.25C286.03 490.59 286.86 494.3 287.86 496.5C288.86 498.7 291.32 501.96 293.34 503.75C295.49 505.66 299.37 507.67 302.75 508.62C306.73 509.74 310.04 510.02 313.5 509.53C316.25 509.15 320.07 508.01 322 507C323.93 506 326.93 503.67 328.69 501.84C330.44 500 332.35 497.26 332.94 495.75C333.52 494.24 334 490.64 334 487.75C333.99 484.29 333.34 481.48 332.07 479.5L330.16 476.5C335.58 471.07 337.81 467.93 338.6 466C339.4 464.07 340.03 460.7 340.01 458.5C339.99 456.3 338.97 452.51 337.74 450.08C336.51 447.64 334.15 444.53 332.5 443.17C330.85 441.8 327.25 439.64 324.5 438.36C321.25 436.86 316.88 435.88 312 435.56C307.88 435.29 302.81 435.51 300.75 436.04Z" />
		<path id="Path 7" class="shp1" d="M306.1 459.49C304.23 460.27 302.75 461.26 302.82 461.7C302.88 462.14 303.74 463.28 304.72 464.22C305.85 465.32 308.13 465.96 311 465.98C313.48 466 316.51 465.34 317.75 464.51C319.02 463.66 319.78 462.35 319.5 461.5C319.23 460.68 317.31 459.55 315.25 459.01C313.19 458.46 311.05 458.03 310.5 458.04C309.95 458.06 307.97 458.71 306.1 459.49ZM308.58 487.5C308.26 488.32 308.23 489.68 308.5 490.5C308.78 491.33 310.23 492.02 311.75 492.04C313.26 492.07 315.06 491.39 315.75 490.54C316.75 489.31 316.75 488.69 315.75 487.46C315.06 486.61 313.3 485.93 311.83 485.96C310.37 485.98 308.91 486.68 308.58 487.5Z" />
	</g>
</svg>