<svg version="1.2" baseProfile="tiny-ps" xmlns="http://www.w3.org/2000/svg" viewBox="0 0 388 562" width="388" height="562">
	<title>Green_Draw</title>
	<style>
		tspan { white-space:pre }
		.shp0 { fill: #ffffff } 
		.shp1 { fill: #33984b } 
	</style>
	<g id="Background">
		<path id="Path 0" class="shp0" d="M27.5 2.69C24.17 3.51 19.28 5.72 16.5 7.67C13.75 9.6 9.85 13.5 7.84 16.34C5.51 19.63 3.61 23.95 2.59 28.25C1.16 34.33 1 59.36 1 281C1 502.64 1.16 527.67 2.59 533.75C3.61 538.05 5.51 542.37 7.84 545.66C9.85 548.5 13.75 552.39 16.5 554.32C19.57 556.46 24.1 558.43 28.25 559.41C34.28 560.83 51.98 561 194 561C336.02 561 353.72 560.83 359.75 559.41C364.05 558.39 368.37 556.49 371.66 554.16C374.5 552.15 378.39 548.25 380.32 545.5C382.46 542.43 384.43 537.9 385.41 533.75C386.84 527.67 387 502.64 387 281C387 59.36 386.84 34.33 385.41 28.25C384.39 23.95 382.49 19.63 380.16 16.34C378.15 13.5 374.25 9.61 371.5 7.68C368.43 5.54 363.9 3.57 359.75 2.59C353.71 1.17 336.21 1.01 193.25 1.11C56.31 1.21 32.64 1.43 27.5 2.69Z" />
		<path id="Path 1" class="shp1" d="M33.34 29.4C32.15 30.12 30.48 31.8 29.63 33.11C28.23 35.25 28.07 60.68 28.04 280.75C28.01 474.95 28.26 526.55 29.25 528.62C29.94 530.06 31.74 531.86 33.25 532.62C35.55 533.78 61.67 534 194 534C326.33 534 352.45 533.78 354.75 532.62C356.26 531.86 358.06 530.06 358.75 528.62C359.74 526.55 360 474.94 360 281C360 87.06 359.74 35.45 358.75 33.38C358.06 31.94 356.26 30.14 354.75 29.38C352.45 28.22 326.35 28.01 193.75 28.04C64.2 28.06 35.11 28.31 33.34 29.4Z" />
		<path id="Path 2" class="shp0" d="M84.16 53.62C83.47 56.85 82.68 60.63 82.42 62C81.94 64.43 82.14 64.52 89.22 65.29C93.22 65.72 96.95 66.5 97.5 67.01C98.15 67.62 97.53 68.31 95.75 68.97C94.24 69.54 91.42 70 89.5 70C87.58 70 84.76 70.61 83.25 71.36C81.74 72.11 79.73 74.25 78.79 76.11C77.86 77.98 76.61 81.97 76.03 85C75.45 88.03 74.98 93.09 74.99 96.25C75 101.05 75.29 102 76.75 102.01C77.71 102.01 87.5 102.93 98.5 104.05C109.5 105.18 118.63 105.96 118.8 105.8C118.96 105.63 118.37 101.67 117.48 97C116.59 92.33 115.67 87.71 115.43 86.75C115.06 85.23 113.89 85.03 106.58 85.25C101.95 85.39 97.9 85.16 97.58 84.75C97.26 84.34 98.24 83.39 99.75 82.63C101.26 81.88 104.3 80.94 106.5 80.54C108.7 80.13 111.63 79.24 113 78.54C114.38 77.84 116.13 75.75 116.91 73.89C117.83 71.67 118.13 68.6 117.78 65C117.33 60.38 116.7 59.01 113.87 56.43C112.02 54.75 107.58 52.39 104 51.19C100.42 49.99 94.78 48.73 91.46 48.37L85.42 47.74L84.16 53.62ZM49 65L49 70L40 70L40 86L49 86L49.5 95.5L65 96L65 86L75 86L75 70L65 70L65 60L49 60L49 65ZM196.5 116.06C192.65 116.58 184.78 118.18 179 119.6C173.22 121.03 164.68 123.67 160 125.46C155.32 127.26 147.9 130.54 143.5 132.76C139.1 134.98 131.45 139.46 126.5 142.72C121.55 145.97 113.45 152.02 108.5 156.14C103.55 160.27 96.4 166.99 92.62 171.07C88.83 175.16 83.16 181.88 80.01 186C76.86 190.13 72.11 196.88 69.45 201C66.79 205.13 61.79 214.35 58.34 221.5C54.88 228.65 50.51 239.22 48.63 245C46.75 250.78 44.29 259.77 43.17 265C42.05 270.23 40.65 278.89 40.07 284.25C39.48 289.61 39 298.27 39 303.5C39 308.73 39.66 318.06 40.47 324.25C41.28 330.44 43.05 339.77 44.4 345C45.76 350.23 48.61 358.77 50.74 364C52.88 369.23 56.46 376.65 58.7 380.5C60.94 384.35 65.45 391.1 68.72 395.5C71.98 399.9 78.47 407.1 83.14 411.5C87.81 415.9 94.75 421.6 98.56 424.16C102.38 426.72 109.1 430.67 113.5 432.93C117.9 435.2 126.22 438.56 132 440.42C137.78 442.27 145.88 444.4 150 445.14C154.54 445.96 164.21 446.47 174.5 446.42C187.82 446.36 193.66 445.88 201.5 444.21C207 443.04 215.78 440.69 221 438.99C226.22 437.3 235.22 433.64 241 430.88C246.78 428.11 255.32 423.35 260 420.31C264.68 417.27 272.55 411.51 277.5 407.52C282.45 403.52 290.06 396.49 294.4 391.88C298.75 387.27 304.87 380.13 308.01 376C311.15 371.88 315.89 365.13 318.55 361C321.21 356.88 326.21 347.65 329.66 340.5C333.12 333.35 337.49 322.77 339.37 317C341.25 311.23 343.71 302.23 344.83 297C345.95 291.77 347.35 283.11 347.93 277.75C348.52 272.39 349 263.73 349 258.5C349 253.28 348.34 243.94 347.53 237.75C346.72 231.56 344.95 222.22 343.6 217C342.24 211.78 339.39 203.22 337.26 198C335.12 192.78 331.54 185.35 329.3 181.5C327.06 177.65 322.55 170.9 319.28 166.5C316.02 162.1 309.53 154.9 304.86 150.5C300.19 146.1 293.25 140.4 289.44 137.84C285.62 135.28 278.9 131.34 274.5 129.08C270.1 126.83 262.45 123.64 257.5 121.99C252.55 120.35 245.13 118.32 241 117.49C236.88 116.65 226.75 115.78 218.5 115.54C210.25 115.3 200.35 115.54 196.5 116.06Z" />
		<path id="Path 3" class="shp1" d="M199.01 189.75C196.56 191.98 195.66 194.06 194.25 200.76C193.29 205.3 192.28 209.03 192 209.04C191.72 209.06 190.38 206.27 189 202.85C187.26 198.5 185.59 196.07 183.5 194.81C181.85 193.82 179.6 193 178.5 193C177.4 192.99 157.82 200.22 135 209.05C102.16 221.77 92.93 225.73 90.75 228.06C89.24 229.68 88 232.13 88 233.5C88 234.88 100.04 266.68 114.75 304.17C139 365.97 141.78 372.52 144.5 374.17C146.15 375.17 148.4 376 149.5 376.01C150.6 376.02 164.32 371.06 180 364.99C195.68 358.92 209.4 353.96 210.5 353.97C211.6 353.98 222.63 356.24 235 359C247.38 361.76 258.51 364.01 259.75 364.01C260.99 364 263.34 362.76 264.97 361.25C267.83 358.6 268.54 355.88 284.07 287C292.93 247.68 299.95 214.6 299.66 213.5C299.38 212.4 298.32 210.45 297.32 209.16C295.72 207.11 290.12 205.63 251 196.91C226.52 191.45 205.5 186.99 204.27 187C203.04 187 200.67 188.24 199.01 189.75Z" />
		<path id="Path 4" class="shp0" d="M227.5 225.64C224.2 226.45 218.13 228.86 214 231C209.88 233.15 205.71 235.71 204.75 236.7C203.08 238.42 203.77 240.45 219.85 281.5C233.22 315.61 237.09 324.56 238.6 324.8C239.64 324.97 244.55 323.1 249.5 320.65C256.21 317.33 260.28 314.44 265.5 309.28C270.26 304.58 273.84 299.82 276.69 294.43C278.99 290.07 281.57 283.57 282.42 280C283.27 276.43 283.98 271.14 283.99 268.25C283.99 265.36 283.49 260.64 282.87 257.75C282.26 254.86 280.51 250.03 279 247C277.49 243.97 274.17 239.36 271.63 236.75C269.08 234.14 264.41 230.71 261.25 229.13C258.09 227.54 253.14 225.74 250.25 225.13C247.36 224.51 242.41 224.04 239.25 224.08C236.09 224.13 230.8 224.83 227.5 225.64ZM155 231.62C151.97 232.44 147.47 234.22 145 235.58C142.53 236.93 138.47 239.75 136 241.84C133.53 243.93 129.4 248.76 126.83 252.57C124.27 256.38 120.92 263.1 119.39 267.5C117.01 274.38 116.61 277.11 116.56 287C116.52 295.73 116.95 299.83 118.37 304C119.4 307.02 121.53 311.98 123.1 315C124.67 318.02 128.37 322.98 131.34 326C134.3 329.02 139.15 332.7 142.11 334.17C145.08 335.65 149.53 337.32 152 337.9C154.47 338.48 158.75 338.97 161.5 339C164.25 339.02 169.43 338.15 173 337.07C176.57 335.98 182.2 333.35 185.5 331.22C188.8 329.1 193.04 325.59 194.93 323.43C196.82 321.27 199.85 317.14 201.68 314.25C203.51 311.36 206.21 305.51 207.69 301.25C209.99 294.64 210.39 291.8 210.44 282C210.48 273.27 210.05 269.17 208.63 265C207.6 261.98 205.35 256.84 203.63 253.59C201.91 250.34 198.21 245.39 195.4 242.59C192.6 239.79 187.87 236.3 184.9 234.83C181.93 233.35 177.47 231.68 175 231.1C172.53 230.52 168.25 230.07 165.5 230.09C162.75 230.11 158.03 230.8 155 231.62ZM268.79 449.19C268.91 450.18 269.68 454.04 270.52 457.75C271.35 461.46 272.28 465.63 272.59 467L273.14 469.5C288.11 468.17 289.93 468.28 289.68 469.25C289.5 469.94 287.59 471.05 285.43 471.73C283.27 472.4 280.15 473.24 278.5 473.59C276.85 473.94 274.26 475.53 272.75 477.11C270.4 479.58 270 480.84 270 485.75C270.01 489.74 270.62 492.5 272 494.75C273.13 496.59 276.07 499.03 278.75 500.36C281.36 501.66 285.75 503.22 288.5 503.83C291.25 504.44 295.52 505.22 298 505.57L302.5 506.19C305.04 493.26 305.6 489.16 305.39 488.75C305.17 488.34 302.19 488.02 298.75 488.04C294.28 488.08 292.14 487.65 291.25 486.54C290.25 485.31 290.25 484.92 291.25 484.61C291.94 484.4 295.2 483.86 298.5 483.41C301.8 482.96 305.51 481.78 306.75 480.79C307.99 479.81 309.45 477.43 310 475.5C310.55 473.57 311.45 472 312 472C312.56 472 313 474.67 313 478L313 484L322 484L322.5 493.5L338 494L338 484L348 484L348 468L338 468L338 458L322.5 458.5L322 468L312.03 468.5C313.24 454.92 313.14 451.97 312.5 451.93C311.95 451.91 301.84 450.87 290.04 449.63C269.51 447.47 268.59 447.45 268.79 449.19Z" />
	</g>
</svg>