<svg version="1.2" baseProfile="tiny-ps" xmlns="http://www.w3.org/2000/svg" viewBox="0 0 388 562" width="388" height="562">
	<title>Green_2</title>
	<style>
		tspan { white-space:pre }
		.shp0 { fill: #ffffff } 
		.shp1 { fill: #33984b } 
	</style>
	<g id="Background">
		<path id="Path 0" class="shp0" d="M27.5 2.69C24.17 3.51 19.28 5.72 16.5 7.67C13.75 9.6 9.85 13.5 7.84 16.34C5.51 19.63 3.61 23.95 2.59 28.25C1.16 34.33 1 59.36 1 281C1 502.64 1.16 527.67 2.59 533.75C3.61 538.05 5.51 542.37 7.84 545.66C9.85 548.5 13.75 552.39 16.5 554.32C19.57 556.46 24.1 558.43 28.25 559.41C34.28 560.83 51.98 561 194 561C336.02 561 353.72 560.83 359.75 559.41C364.05 558.39 368.37 556.49 371.66 554.16C374.5 552.15 378.39 548.25 380.32 545.5C382.46 542.43 384.43 537.9 385.41 533.75C386.84 527.67 387 502.64 387 281C387 59.36 386.84 34.33 385.41 28.25C384.39 23.95 382.49 19.63 380.16 16.34C378.15 13.5 374.25 9.61 371.5 7.68C368.43 5.54 363.9 3.57 359.75 2.59C353.71 1.17 336.21 1.01 193.25 1.11C56.31 1.21 32.64 1.43 27.5 2.69Z" />
		<path id="Path 1" class="shp1" d="M33.34 29.4C32.15 30.12 30.48 31.8 29.63 33.11C28.23 35.25 28.07 60.68 28.04 280.75C28.01 474.95 28.26 526.55 29.25 528.62C29.94 530.06 31.74 531.86 33.25 532.62C35.55 533.78 61.67 534 194 534C326.33 534 352.45 533.78 354.75 532.62C356.26 531.86 358.06 530.06 358.75 528.62C359.74 526.55 360 474.94 360 281C360 87.06 359.74 35.45 358.75 33.38C358.06 31.94 356.26 30.14 354.75 29.38C352.45 28.22 326.35 28.01 193.75 28.04C64.2 28.06 35.11 28.31 33.34 29.4Z" />
		<path id="Path 2" class="shp0" d="M53.1 35.92C52.83 36.79 51.66 42.67 50.49 49L48.36 60.5C61.64 61.72 66.85 62.42 68.5 62.83C70.15 63.24 71.64 64.23 71.82 65.04C71.99 65.84 71.31 66.87 70.32 67.33C69.32 67.78 64.67 68.56 60 69.05C54.39 69.64 50.65 70.59 49 71.82C47.63 72.84 45.47 75.22 44.2 77.09C42.94 78.97 41.21 82.75 40.36 85.5C39.52 88.25 38.53 96.69 38.16 104.25C37.59 116.1 37.71 118.01 39 118.03C39.83 118.04 55.13 119.59 73 121.46C90.88 123.34 105.58 124.79 105.68 124.69C105.78 124.58 104.31 117.08 102.42 108C100.53 98.92 98.88 91.45 98.74 91.39C98.61 91.32 92.79 91.77 85.81 92.39C78.84 93 72.87 93.28 72.55 93C72.24 92.72 72.19 91.83 72.45 91C72.71 90.17 74.63 88.76 76.71 87.85C78.8 86.94 83.42 85.67 87 85.03C90.58 84.39 94.97 82.88 96.76 81.68C98.56 80.48 100.92 77.7 102 75.5C103.37 72.73 103.98 69.42 103.99 64.75C104 60.16 103.41 56.8 102.14 54.25C101.12 52.19 98.3 48.81 95.89 46.74C93.48 44.67 88.58 41.91 85 40.61C81.42 39.3 76.03 37.73 73 37.1C69.97 36.48 64.37 35.6 60.54 35.15C54.59 34.45 53.5 34.57 53.1 35.92ZM196.5 116.06C192.65 116.58 184.78 118.18 179 119.6C173.22 121.03 164.68 123.67 160 125.46C155.32 127.26 147.9 130.54 143.5 132.76C139.1 134.98 131.45 139.46 126.5 142.72C121.55 145.97 113.45 152.02 108.5 156.14C103.55 160.27 96.4 166.99 92.62 171.07C88.83 175.16 83.16 181.88 80.01 186C76.86 190.13 72.11 196.88 69.45 201C66.79 205.13 61.79 214.35 58.34 221.5C54.88 228.65 50.51 239.22 48.63 245C46.75 250.78 44.29 259.77 43.17 265C42.05 270.23 40.65 278.89 40.07 284.25C39.48 289.61 39 298.27 39 303.5C39 308.73 39.66 318.06 40.47 324.25C41.28 330.44 43.05 339.77 44.4 345C45.76 350.23 48.61 358.77 50.74 364C52.88 369.23 56.46 376.65 58.7 380.5C60.94 384.35 65.45 391.1 68.72 395.5C71.98 399.9 78.47 407.1 83.14 411.5C87.81 415.9 94.75 421.6 98.56 424.16C102.38 426.72 109.1 430.67 113.5 432.93C117.9 435.2 126.22 438.56 132 440.42C137.78 442.27 145.88 444.4 150 445.14C154.54 445.96 164.21 446.47 174.5 446.42C187.82 446.36 193.66 445.88 201.5 444.21C207 443.04 215.78 440.69 221 438.99C226.22 437.3 235.22 433.64 241 430.88C246.78 428.11 255.32 423.35 260 420.31C264.68 417.27 272.55 411.51 277.5 407.52C282.45 403.52 290.06 396.49 294.4 391.88C298.75 387.27 304.87 380.13 308.01 376C311.15 371.88 315.89 365.13 318.55 361C321.21 356.88 326.21 347.65 329.66 340.5C333.12 333.35 337.49 322.77 339.37 317C341.25 311.23 343.71 302.23 344.83 297C345.95 291.77 347.35 283.11 347.93 277.75C348.52 272.39 349 263.73 349 258.5C349 253.28 348.34 243.94 347.53 237.75C346.72 231.56 344.95 222.22 343.6 217C342.24 211.78 339.39 203.22 337.26 198C335.12 192.78 331.54 185.35 329.3 181.5C327.06 177.65 322.55 170.9 319.28 166.5C316.02 162.1 309.53 154.9 304.86 150.5C300.19 146.1 293.25 140.4 289.44 137.84C285.62 135.28 278.9 131.34 274.5 129.08C270.1 126.83 262.45 123.64 257.5 121.99C252.55 120.35 245.13 118.32 241 117.49C236.88 116.65 226.75 115.78 218.5 115.54C210.25 115.3 200.35 115.54 196.5 116.06Z" />
		<path id="Path 3" class="shp1" d="M153.39 175.75C153.02 177.81 150.6 190.75 148.03 204.5L143.34 229.5C172.91 230.42 183.53 231.25 186 231.95C188.47 232.64 191.74 233.84 193.25 234.6C194.76 235.37 196.01 236.79 196.03 237.75C196.05 238.71 195.26 240.28 194.28 241.24C193.3 242.19 190.25 243.67 187.5 244.52C184.75 245.38 176.65 246.56 169.5 247.15C162.35 247.75 154.25 248.82 151.5 249.54C148.04 250.44 144.84 252.34 141.14 255.67C137.27 259.16 134.7 262.72 131.88 268.5C129.74 272.9 127.09 280.1 125.98 284.5C124.88 288.9 123.27 297.68 122.4 304C121.53 310.37 120.76 323.73 120.67 333.97L120.5 352.44C234.43 364.27 267.58 367.66 267.68 367.61C267.78 367.55 264.52 351.52 260.44 332C256.36 312.48 252.91 296.36 252.76 296.18C252.62 296.01 242.15 296.59 229.5 297.48C216.85 298.36 203.68 299.4 200.24 299.79L193.98 300.5C193.96 295.51 194.89 293.61 196.73 291.86C198.25 290.41 200.85 288.55 202.5 287.72C204.15 286.88 208.2 285.42 211.5 284.47C214.8 283.52 222.22 281.91 228 280.89C234.37 279.77 240.86 277.9 244.5 276.13C248.14 274.36 252.19 271.3 254.8 268.36C257.17 265.68 260.08 261.02 261.27 258C263.12 253.28 263.43 250.45 263.46 238C263.49 226.81 263.11 222.36 261.78 218.5C260.83 215.75 258.31 211.03 256.19 208C254.06 204.97 249.43 200.31 245.91 197.64C242.38 194.96 237.03 191.52 234 189.99C230.97 188.46 224 185.64 218.5 183.72C213 181.79 202.88 179.06 196 177.64C189.13 176.23 177.88 174.38 171 173.53C164.13 172.69 157.5 172 156.29 172C154.52 172 153.94 172.75 153.39 175.75Z" />
		<path id="Path 4" class="shp0" d="M275.55 429.18C275.8 430.46 277.38 438.02 279.06 446C280.74 453.98 282.2 460.56 282.31 460.63C282.41 460.7 286.55 460.39 291.5 459.95C296.45 459.5 302.41 459.11 304.75 459.07C307.89 459.02 309 459.39 309 460.5C309 461.32 307.54 462.73 305.75 463.63C303.96 464.52 299.57 465.85 296 466.57C292.43 467.3 288.38 468.32 287 468.85C285.63 469.37 283.29 471.08 281.81 472.65C280.34 474.22 278.65 476.74 278.06 478.25C277.48 479.76 277.01 483.81 277.02 487.25C277.04 491.19 277.73 494.98 278.9 497.5C279.91 499.7 282.04 502.71 283.62 504.18C285.21 505.65 288.75 508 291.5 509.39C294.25 510.78 300.1 512.83 304.5 513.94C308.9 515.05 315.8 516.31 319.83 516.73C323.87 517.15 327.33 517.27 327.54 517C327.75 516.73 328.83 511.77 329.94 506C331.05 500.23 332.19 494.49 332.48 493.25C332.98 491.07 332.72 490.98 323.25 490.37C317.89 490.02 312.49 489.35 311.25 488.87C310.01 488.39 309 487.32 309 486.5C309 485.61 310.53 484.6 312.75 484.01C314.81 483.46 318.64 483.01 321.25 483.01C323.86 483 327.24 482.52 328.75 481.93C330.26 481.35 332.56 479.88 333.85 478.68C335.14 477.48 337.11 474.7 338.22 472.5C339.34 470.3 340.84 465.57 341.57 462C342.3 458.43 343.03 450.92 343.2 445.33C343.36 439.74 343.27 434.93 343 434.65C342.73 434.36 329.23 432.76 313 431.08C296.77 429.41 281.61 427.77 279.3 427.45C275.33 426.9 275.13 426.99 275.55 429.18Z" />
	</g>
</svg>