<svg version="1.2" baseProfile="tiny-ps" xmlns="http://www.w3.org/2000/svg" viewBox="0 0 388 562" width="388" height="562">
	<title>Green_0</title>
	<style>
		tspan { white-space:pre }
		.shp0 { fill: #ffffff } 
		.shp1 { fill: #33984b } 
	</style>
	<g id="Background">
		<path id="Path 0" class="shp0" d="M27.5 2.69C24.17 3.51 19.28 5.72 16.5 7.67C13.75 9.6 9.85 13.5 7.84 16.34C5.51 19.63 3.61 23.95 2.59 28.25C1.16 34.33 1 59.36 1 281C1 502.64 1.16 527.67 2.59 533.75C3.61 538.05 5.51 542.37 7.84 545.66C9.85 548.5 13.75 552.39 16.5 554.32C19.57 556.46 24.1 558.43 28.25 559.41C34.28 560.83 51.98 561 194 561C336.02 561 353.72 560.83 359.75 559.41C364.05 558.39 368.37 556.49 371.66 554.16C374.5 552.15 378.39 548.25 380.32 545.5C382.46 542.43 384.43 537.9 385.41 533.75C386.84 527.67 387 502.64 387 281C387 59.36 386.84 34.33 385.41 28.25C384.39 23.95 382.49 19.63 380.16 16.34C378.15 13.5 374.25 9.61 371.5 7.68C368.43 5.54 363.9 3.57 359.75 2.59C353.71 1.17 336.21 1.01 193.25 1.11C56.31 1.21 32.64 1.43 27.5 2.69Z" />
		<path id="Path 1" class="shp1" d="M33.34 29.4C32.15 30.12 30.48 31.8 29.63 33.11C28.23 35.25 28.07 60.68 28.04 280.75C28.01 474.95 28.26 526.55 29.25 528.62C29.94 530.06 31.74 531.86 33.25 532.62C35.55 533.78 61.67 534 194 534C326.33 534 352.45 533.78 354.75 532.62C356.26 531.86 358.06 530.06 358.75 528.62C359.74 526.55 360 474.94 360 281C360 87.06 359.74 35.45 358.75 33.38C358.06 31.94 356.26 30.14 354.75 29.38C352.45 28.22 326.35 28.01 193.75 28.04C64.2 28.06 35.11 28.31 33.34 29.4Z" />
		<path id="Path 2" class="shp0" d="M69.5 44.1C66.75 44.58 61.8 46.24 58.5 47.78C55.2 49.33 50.3 52.6 47.61 55.05C44.92 57.5 41.66 61.19 40.36 63.25C39.06 65.31 37.28 69.81 36.41 73.25C35.35 77.43 35.05 81.16 35.5 84.5C35.87 87.25 37.18 91.75 38.41 94.5C39.64 97.25 42.19 101.27 44.07 103.43C45.96 105.59 49.98 108.98 53 110.96C56.02 112.95 61.42 115.39 65 116.39C69.91 117.76 73.94 118.11 81.5 117.82C90.31 117.48 92.33 117.04 98.5 114.11C102.84 112.05 107.7 108.64 111.28 105.15C114.61 101.89 117.99 97.39 119.26 94.5C121 90.56 121.47 87.6 121.48 80.5C121.48 72.49 121.16 70.89 118.58 66C116.98 62.98 113.58 58.48 111.02 56C108.46 53.52 104.15 50.28 101.43 48.78C98.72 47.29 93.35 45.38 89.5 44.55C85.65 43.72 80.7 43.08 78.5 43.13C76.3 43.19 72.25 43.63 69.5 44.1Z" />
		<path id="Path 3" class="shp1" d="M68.02 67.7C66.11 68.69 63.51 71.08 62.24 73C60.98 74.92 59.94 77.63 59.94 79C59.94 80.38 60.98 83.08 62.24 85C63.51 86.92 66.11 89.31 68.02 90.3C70.46 91.57 73.17 92.02 77.07 91.8C81.27 91.57 83.54 90.83 86.32 88.75C88.58 87.06 90.39 84.65 91 82.5C91.67 80.17 91.67 77.83 91 75.5C90.39 73.35 88.58 70.94 86.32 69.25C83.54 67.17 81.27 66.43 77.07 66.2C73.17 65.98 70.46 66.43 68.02 67.7Z" />
		<path id="Path 4" class="shp0" d="M196.5 116.06C192.65 116.58 184.78 118.18 179 119.6C173.22 121.03 164.68 123.67 160 125.46C155.32 127.26 147.9 130.54 143.5 132.76C139.1 134.98 131.45 139.46 126.5 142.72C121.55 145.97 113.45 152.02 108.5 156.14C103.55 160.27 96.4 166.99 92.62 171.07C88.83 175.16 83.16 181.88 80.01 186C76.86 190.13 72.11 196.88 69.45 201C66.79 205.13 61.79 214.35 58.34 221.5C54.88 228.65 50.51 239.22 48.63 245C46.75 250.78 44.29 259.77 43.17 265C42.05 270.23 40.65 278.89 40.07 284.25C39.48 289.61 39 298.27 39 303.5C39 308.73 39.66 318.06 40.47 324.25C41.28 330.44 43.05 339.77 44.4 345C45.76 350.23 48.61 358.77 50.74 364C52.88 369.23 56.46 376.65 58.7 380.5C60.94 384.35 65.45 391.1 68.72 395.5C71.98 399.9 78.47 407.1 83.14 411.5C87.81 415.9 94.75 421.6 98.56 424.16C102.38 426.72 109.1 430.67 113.5 432.93C117.9 435.2 126.22 438.56 132 440.42C137.78 442.27 145.88 444.4 150 445.14C154.54 445.96 164.21 446.47 174.5 446.42C187.82 446.36 193.66 445.88 201.5 444.21C207 443.04 215.78 440.69 221 438.99C226.22 437.3 235.22 433.64 241 430.88C246.78 428.11 255.32 423.35 260 420.31C264.68 417.27 272.55 411.51 277.5 407.52C282.45 403.52 290.06 396.49 294.4 391.88C298.75 387.27 304.87 380.13 308.01 376C311.15 371.88 315.89 365.13 318.55 361C321.21 356.88 326.21 347.65 329.66 340.5C333.12 333.35 337.49 322.77 339.37 317C341.25 311.23 343.71 302.23 344.83 297C345.95 291.77 347.35 283.11 347.93 277.75C348.52 272.39 349 263.73 349 258.5C349 253.28 348.34 243.94 347.53 237.75C346.72 231.56 344.95 222.22 343.6 217C342.24 211.78 339.39 203.22 337.26 198C335.12 192.78 331.54 185.35 329.3 181.5C327.06 177.65 322.55 170.9 319.28 166.5C316.02 162.1 309.53 154.9 304.86 150.5C300.19 146.1 293.25 140.4 289.44 137.84C285.62 135.28 278.9 131.34 274.5 129.08C270.1 126.83 262.45 123.64 257.5 121.99C252.55 120.35 245.13 118.32 241 117.49C236.88 116.65 226.75 115.78 218.5 115.54C210.25 115.3 200.35 115.54 196.5 116.06Z" />
		<path id="Path 5" class="shp1" d="M179.5 192.13C175.65 192.61 168.56 194.13 163.75 195.5C158.94 196.88 152.19 199.4 148.75 201.12C145.31 202.83 139.57 206.16 136 208.52C132.43 210.87 125.9 216.58 121.5 221.19C117.1 225.81 111.93 232.27 110.01 235.55C108.09 238.82 105.5 244.31 104.26 247.75C103.02 251.19 101.46 258.16 100.81 263.25C99.89 270.41 99.89 274.59 100.81 281.75C101.47 286.89 103.32 294.45 104.96 298.75C106.59 303.01 110.13 309.65 112.83 313.5C115.53 317.35 120.62 323.25 124.12 326.6C127.63 329.96 133.88 334.92 138 337.63C142.13 340.34 149.1 344.06 153.5 345.9C157.9 347.73 165.55 350.14 170.5 351.25C177.26 352.76 183.1 353.26 194 353.26C204.9 353.26 210.74 352.76 217.5 351.25C222.45 350.14 230.1 347.73 234.5 345.9C238.9 344.06 245.88 340.34 250 337.63C254.13 334.92 260.37 329.96 263.88 326.6C267.38 323.25 272.47 317.35 275.17 313.5C277.87 309.65 281.41 303.01 283.04 298.75C284.68 294.45 286.53 286.89 287.19 281.75C288.11 274.59 288.11 270.41 287.19 263.25C286.54 258.16 284.98 251.19 283.74 247.75C282.5 244.31 279.91 238.82 277.99 235.55C276.07 232.27 270.9 225.81 266.5 221.19C262.1 216.58 255.57 210.87 252 208.52C248.43 206.16 242.69 202.83 239.25 201.12C235.81 199.4 229.29 196.92 224.75 195.61C220.21 194.29 212.45 192.72 207.5 192.11C202.55 191.5 195.8 191.06 192.5 191.13C189.2 191.2 183.35 191.65 179.5 192.13Z" />
		<path id="Path 6" class="shp0" d="M178.75 240.04C176.69 240.57 173.09 241.95 170.75 243.1C168.41 244.26 164.55 247.07 162.17 249.35C159.78 251.63 156.87 255.3 155.7 257.5C154.1 260.49 153.56 263.26 153.56 268.5C153.56 273.68 154.11 276.54 155.66 279.5C156.82 281.7 159.96 285.5 162.63 287.95C165.31 290.4 169.53 293.27 172 294.32C174.47 295.38 179.2 296.66 182.5 297.15C186.5 297.76 190.5 297.68 194.5 296.93C197.8 296.31 202.3 294.96 204.5 293.93C206.7 292.9 210.46 290.36 212.85 288.28C215.32 286.13 218.32 282.12 219.8 279C221.67 275.03 222.37 271.97 222.31 268C222.26 264.72 221.39 260.68 220.17 258C219.03 255.52 215.94 251.5 213.3 249.05C210.66 246.6 206.03 243.5 203 242.15C199.15 240.44 195.25 239.61 190 239.39C185.88 239.22 180.81 239.51 178.75 240.04ZM295.5 435.4C293.3 436.1 289.48 437.71 287 438.99C284.52 440.27 279.9 443.83 276.72 446.91C273.35 450.17 270.03 454.58 268.74 457.5C267 461.44 266.53 464.4 266.52 471.5C266.52 479.51 266.84 481.11 269.42 486C271.02 489.02 274.42 493.52 276.98 496C279.54 498.48 283.85 501.72 286.57 503.22C289.28 504.71 294.88 506.66 299 507.55C304.3 508.7 308.55 508.97 313.5 508.49C317.35 508.12 322.98 506.89 326 505.76C329.02 504.63 333.3 502.49 335.5 501C337.7 499.51 341.66 495.86 344.3 492.89C347.09 489.76 349.8 485.4 350.78 482.5C351.73 479.66 352.45 474.48 352.43 470.5C352.41 465.2 351.79 462.17 349.89 458C348.51 454.98 345.61 450.54 343.44 448.15C341.27 445.76 337.48 442.47 335 440.86C332.52 439.24 327.57 437.02 324 435.94C319.43 434.55 314.82 433.98 308.5 434.05C303.55 434.09 297.7 434.7 295.5 435.4Z" />
		<path id="Path 7" class="shp1" d="M304.18 461.66C302.36 462.55 299.91 464.68 298.75 466.39C297.41 468.37 296.67 470.95 296.73 473.5C296.79 475.72 297.64 478.55 298.66 479.87C299.67 481.18 302.07 483.09 304 484.13C305.95 485.17 309.49 486.01 312 486C314.48 486 318.07 485.21 319.98 484.25C321.89 483.29 324.49 480.93 325.76 479C327.02 477.07 328.06 474.38 328.06 473C328.06 471.63 327.02 468.93 325.76 467C324.49 465.07 321.89 462.71 319.98 461.75C318.07 460.79 314.48 460.01 312 460.02C309.52 460.04 306.01 460.77 304.18 461.66Z" />
	</g>
</svg>