<svg version="1.2" baseProfile="tiny-ps" xmlns="http://www.w3.org/2000/svg" viewBox="0 0 388 562" width="388" height="562">
	<title>Green_9</title>
	<style>
		tspan { white-space:pre }
		.shp0 { fill: #ffffff } 
		.shp1 { fill: #33984b } 
	</style>
	<g id="Background">
		<path id="Path 0" class="shp0" d="M27.5 2.69C24.17 3.51 19.28 5.72 16.5 7.67C13.75 9.6 9.85 13.5 7.84 16.34C5.51 19.63 3.61 23.95 2.59 28.25C1.16 34.33 1 59.36 1 281C1 502.64 1.16 527.67 2.59 533.75C3.61 538.05 5.51 542.37 7.84 545.66C9.85 548.5 13.75 552.39 16.5 554.32C19.57 556.46 24.1 558.43 28.25 559.41C34.28 560.83 51.98 561 194 561C336.02 561 353.72 560.83 359.75 559.41C364.05 558.39 368.37 556.49 371.66 554.16C374.5 552.15 378.39 548.25 380.32 545.5C382.46 542.43 384.43 537.9 385.41 533.75C386.84 527.67 387 502.64 387 281C387 59.36 386.84 34.33 385.41 28.25C384.39 23.95 382.49 19.63 380.16 16.34C378.15 13.5 374.25 9.61 371.5 7.68C368.43 5.54 363.9 3.57 359.75 2.59C353.71 1.17 336.21 1.01 193.25 1.11C56.31 1.21 32.64 1.43 27.5 2.69Z" />
		<path id="Path 1" class="shp1" d="M33.34 29.4C32.15 30.12 30.48 31.8 29.63 33.11C28.23 35.25 28.07 60.68 28.04 280.75C28.01 474.95 28.26 526.55 29.25 528.62C29.94 530.06 31.74 531.86 33.25 532.62C35.55 533.78 61.67 534 194 534C326.33 534 352.45 533.78 354.75 532.62C356.26 531.86 358.06 530.06 358.75 528.62C359.74 526.55 360 474.94 360 281C360 87.06 359.74 35.45 358.75 33.38C358.06 31.94 356.26 30.14 354.75 29.38C352.45 28.22 326.35 28.01 193.75 28.04C64.2 28.06 35.11 28.31 33.34 29.4Z" />
		<path id="Path 2" class="shp0" d="M58.5 46.41C55.75 47.09 51.7 48.59 49.5 49.73C47.3 50.88 44.29 53.1 42.8 54.66C41.32 56.22 39.41 59.19 38.55 61.25C37.68 63.35 36.99 67.96 36.98 71.75C36.97 75.46 37.49 80.08 38.12 82C38.76 83.92 40.34 86.96 41.64 88.75C42.94 90.54 45.91 93.01 48.25 94.25C51.96 96.21 53.99 96.5 64.25 96.5C70.71 96.5 76 96.61 76 96.75C76 96.89 74.42 100.15 72.5 104C70.58 107.85 69 111.34 69 111.75C68.99 112.16 76.31 113.77 85.25 115.32C98.35 117.59 101.63 117.88 102.17 116.82C102.54 116.09 103.64 111 104.62 105.5C105.67 99.59 106.41 90.39 106.44 83C106.47 72.3 106.13 69.49 104.05 63.5C102.34 58.56 100.43 55.31 97.56 52.45C95.16 50.04 91.46 47.69 88.5 46.68C84.99 45.48 80.52 45.01 73.5 45.07C68 45.13 61.25 45.73 58.5 46.41Z" />
		<path id="Path 3" class="shp1" d="M67.54 69.62C67.06 70.01 66.74 71.38 66.83 72.67C66.94 74.19 67.95 75.38 69.75 76.09C71.48 76.78 73.8 76.87 76 76.34C79.03 75.61 79.5 75.1 79.5 72.5C79.5 69.56 79.38 69.49 73.96 69.21C70.91 69.04 68.02 69.23 67.54 69.62Z" />
		<path id="Path 4" class="shp0" d="M196.5 116.06C192.65 116.58 184.78 118.18 179 119.6C173.22 121.03 164.68 123.67 160 125.46C155.32 127.26 147.9 130.54 143.5 132.76C139.1 134.98 131.45 139.46 126.5 142.72C121.55 145.97 113.45 152.02 108.5 156.14C103.55 160.27 96.4 166.99 92.62 171.07C88.83 175.16 83.16 181.88 80.01 186C76.86 190.13 72.11 196.88 69.45 201C66.79 205.13 61.79 214.35 58.34 221.5C54.88 228.65 50.51 239.22 48.63 245C46.75 250.78 44.29 259.77 43.17 265C42.05 270.23 40.65 278.89 40.07 284.25C39.48 289.61 39 298.27 39 303.5C39 308.73 39.66 318.06 40.47 324.25C41.28 330.44 43.05 339.77 44.4 345C45.76 350.23 48.61 358.77 50.74 364C52.88 369.23 56.46 376.65 58.7 380.5C60.94 384.35 65.45 391.1 68.72 395.5C71.98 399.9 78.47 407.1 83.14 411.5C87.81 415.9 94.75 421.6 98.56 424.16C102.38 426.72 109.1 430.67 113.5 432.93C117.9 435.2 126.22 438.56 132 440.42C137.78 442.27 145.88 444.4 150 445.14C154.54 445.96 164.21 446.47 174.5 446.42C187.82 446.36 193.66 445.88 201.5 444.21C207 443.04 215.78 440.69 221 438.99C226.22 437.3 235.22 433.64 241 430.88C246.78 428.11 255.32 423.35 260 420.31C264.68 417.27 272.55 411.51 277.5 407.52C282.45 403.52 290.06 396.49 294.4 391.88C298.75 387.27 304.87 380.13 308.01 376C311.15 371.88 315.89 365.13 318.55 361C321.21 356.88 326.21 347.65 329.66 340.5C333.12 333.35 337.49 322.77 339.37 317C341.25 311.23 343.71 302.23 344.83 297C345.95 291.77 347.35 283.11 347.93 277.75C348.52 272.39 349 263.73 349 258.5C349 253.28 348.34 243.94 347.53 237.75C346.72 231.56 344.95 222.22 343.6 217C342.24 211.78 339.39 203.22 337.26 198C335.12 192.78 331.54 185.35 329.3 181.5C327.06 177.65 322.55 170.9 319.28 166.5C316.02 162.1 309.53 154.9 304.86 150.5C300.19 146.1 293.25 140.4 289.44 137.84C285.62 135.28 278.9 131.34 274.5 129.08C270.1 126.83 262.45 123.64 257.5 121.99C252.55 120.35 245.13 118.32 241 117.49C236.88 116.65 226.75 115.78 218.5 115.54C210.25 115.3 200.35 115.54 196.5 116.06Z" />
		<path id="Path 5" class="shp1" d="M182 195.01C177.88 195.5 171.24 196.59 167.25 197.45C163.26 198.3 156.74 200.26 152.75 201.79C148.76 203.32 142.84 206.36 139.58 208.54C136.33 210.72 132.28 214.13 130.58 216.12C128.89 218.11 126.18 222.16 124.57 225.12C122.97 228.08 121.06 232.75 120.34 235.5C119.62 238.25 118.75 243.88 118.41 248C118.07 252.13 118.27 258.88 118.85 263C119.43 267.13 120.71 272.98 121.69 276C122.66 279.02 125.27 284.2 127.48 287.5C130.26 291.64 133.51 294.84 138 297.82C141.57 300.2 147.65 303.12 151.5 304.32C157.44 306.17 160.86 306.5 174 306.48C182.53 306.47 192.88 305.88 197 305.17C201.13 304.46 204.63 304.02 204.79 304.19C204.95 304.36 201.13 312.46 196.29 322.2C191.46 331.93 187.72 340.11 188 340.37C188.28 340.62 204.35 343.69 223.71 347.17C243.08 350.65 259.13 353.27 259.37 353C259.62 352.73 260.99 346.65 262.42 339.5C263.85 332.35 265.68 322 266.5 316.5C267.32 311 268.52 299.52 269.17 291C270.07 279.24 270.07 272.36 269.21 262.5C268.58 255.35 267.15 245.9 266.04 241.5C264.92 237.1 262.12 229.68 259.81 225C256.87 219.06 253.79 214.68 249.55 210.45C245.87 206.77 240.96 203.16 237 201.22C233.43 199.47 227.8 197.32 224.5 196.43C220.72 195.42 213.14 194.7 204 194.48C196.03 194.29 186.13 194.53 182 195.01Z" />
		<path id="Path 6" class="shp0" d="M190 246.03C188.07 246.49 185.49 248.02 184.25 249.43C183.01 250.84 181.98 253.01 181.97 254.25C181.95 255.49 182.85 257.74 183.97 259.25C185.12 260.81 187.62 262.43 189.75 262.99C191.81 263.54 195.53 264 198 264.01C200.47 264.02 204.07 263.52 206 262.9C207.93 262.28 210.31 260.81 211.29 259.64C212.28 258.46 213.07 256.04 213.04 254.25C213.02 252.38 212.15 250.15 211 249C209.9 247.9 207.31 246.55 205.25 246.01C203.19 245.46 199.7 245.05 197.5 245.11C195.3 245.16 191.93 245.58 190 246.03ZM278.58 435.75C278.29 436.71 277.29 441.77 276.36 447C275.41 452.3 274.64 461.81 274.62 468.5C274.59 477.17 275.07 482.17 276.35 486.5C277.33 489.8 279.58 494.52 281.35 497C283.36 499.8 286.46 502.44 289.54 504C293.63 506.06 296.26 506.56 304.5 506.84C310 507.03 317.2 506.64 320.5 505.99C323.8 505.33 328.52 503.76 331 502.49C333.48 501.22 336.71 498.91 338.2 497.34C339.68 495.78 341.59 492.81 342.45 490.75C343.32 488.65 344.01 484.04 344.02 480.25C344.03 476.54 343.51 471.93 342.88 470C342.24 468.07 340.66 465.04 339.36 463.25C338.06 461.46 335.09 458.99 332.75 457.75C329.04 455.79 327.01 455.5 316.75 455.5C310.29 455.5 305 455.39 305 455.25C305 455.11 306.57 451.85 308.5 448C310.43 444.15 312.08 440.65 312.19 440.22C312.29 439.8 305.2 438.22 296.44 436.71C287.67 435.21 280.19 433.98 279.8 433.99C279.42 433.99 278.87 434.79 278.58 435.75Z" />
		<path id="Path 7" class="shp1" d="M303.25 476.06C301.58 476.76 301.06 477.71 301.25 479.75C301.49 482.42 301.68 482.5 307.5 482.5C313.32 482.5 313.51 482.42 313.75 479.75C313.94 477.63 313.43 476.77 311.5 476C310.13 475.45 308.21 475.03 307.25 475.06C306.29 475.1 304.49 475.55 303.25 476.06Z" />
	</g>
</svg>