<svg version="1.2" baseProfile="tiny-ps" xmlns="http://www.w3.org/2000/svg" viewBox="0 0 388 562" width="388" height="562">
	<title>Red_5</title>
	<style>
		tspan { white-space:pre }
		.shp0 { fill: #ffffff } 
		.shp1 { fill: #ea323c } 
	</style>
	<g id="Background">
		<path id="Path 0" class="shp0" d="M27.5 2.69C24.17 3.51 19.28 5.72 16.5 7.67C13.75 9.6 9.85 13.5 7.84 16.34C5.51 19.63 3.61 23.95 2.59 28.25C1.16 34.33 1 59.36 1 281C1 502.64 1.16 527.67 2.59 533.75C3.61 538.05 5.51 542.37 7.84 545.66C9.85 548.5 13.75 552.39 16.5 554.32C19.57 556.46 24.1 558.43 28.25 559.41C34.28 560.83 51.98 561 194 561C336.02 561 353.72 560.83 359.75 559.41C364.05 558.39 368.37 556.49 371.66 554.16C374.5 552.15 378.39 548.25 380.32 545.5C382.46 542.43 384.43 537.9 385.41 533.75C386.84 527.67 387 502.64 387 281C387 59.36 386.84 34.33 385.41 28.25C384.39 23.95 382.49 19.63 380.16 16.34C378.15 13.5 374.25 9.61 371.5 7.68C368.43 5.54 363.9 3.57 359.75 2.59C353.71 1.17 336.21 1.01 193.25 1.11C56.31 1.21 32.64 1.43 27.5 2.69Z" />
		<path id="Path 1" class="shp1" d="M33.34 29.4C32.15 30.12 30.48 31.8 29.63 33.11C28.23 35.25 28.07 60.68 28.04 280.75C28.01 474.95 28.26 526.55 29.25 528.62C29.94 530.06 31.74 531.86 33.25 532.62C35.55 533.78 61.67 534 194 534C326.33 534 352.45 533.78 354.75 532.62C356.26 531.86 358.06 530.06 358.75 528.62C359.74 526.55 360 474.94 360 281C360 87.06 359.74 35.45 358.75 33.38C358.06 31.94 356.26 30.14 354.75 29.38C352.45 28.22 326.35 28.01 193.75 28.04C64.2 28.06 35.11 28.31 33.34 29.4Z" />
		<path id="Path 2" class="shp0" d="M82 36.53C70.17 37.8 55.37 39.44 49.11 40.17L37.71 41.5C38.59 62.67 39.49 70.66 40.36 73.5C41.21 76.25 42.94 80.03 44.2 81.91C45.47 83.78 47.63 86.17 49 87.22C50.66 88.49 54.17 89.4 59.5 89.95C63.9 90.39 68.51 91.04 69.75 91.38C70.99 91.72 72 92.67 72 93.5C72 94.33 71.44 95.32 70.75 95.71C70.06 96.09 64.75 96.88 58.93 97.46L48.37 98.5C51.95 117.88 53.33 123.79 53.75 124.15C54.16 124.51 58.77 124.2 64 123.46C69.22 122.72 76.65 121.14 80.5 119.94C84.35 118.75 88.74 117.15 90.25 116.39C91.76 115.63 94.63 113.54 96.63 111.75C98.62 109.96 101.1 106.81 102.13 104.75C103.38 102.24 104 98.85 104 94.5C104 90.92 103.52 86.76 102.94 85.25C102.35 83.74 100.66 81.22 99.19 79.65C97.71 78.08 95.38 76.37 94 75.85C92.63 75.32 88.58 74.3 85 73.57C81.42 72.85 77.04 71.52 75.25 70.63C73.46 69.73 72 68.33 72 67.5C72 66.47 73.01 66.01 75.25 66.04C77.04 66.06 83 66.47 88.5 66.96C94 67.45 98.61 67.77 98.74 67.67C98.87 67.58 100.33 60.98 101.99 53C103.64 45.02 105.11 37.49 105.25 36.25C105.39 35.01 105.05 34.05 104.5 34.11C103.95 34.17 93.83 35.26 82 36.53ZM196.5 116.06C192.65 116.58 184.78 118.18 179 119.6C173.22 121.03 164.68 123.67 160 125.46C155.32 127.26 147.9 130.54 143.5 132.76C139.1 134.98 131.45 139.46 126.5 142.72C121.55 145.97 113.45 152.02 108.5 156.14C103.55 160.27 96.4 166.99 92.62 171.07C88.83 175.16 83.16 181.88 80.01 186C76.86 190.13 72.11 196.88 69.45 201C66.79 205.13 61.79 214.35 58.34 221.5C54.88 228.65 50.51 239.22 48.63 245C46.75 250.78 44.29 259.77 43.17 265C42.05 270.23 40.65 278.89 40.07 284.25C39.48 289.61 39 298.27 39 303.5C39 308.73 39.66 318.06 40.47 324.25C41.28 330.44 43.05 339.77 44.4 345C45.76 350.23 48.61 358.77 50.74 364C52.88 369.23 56.46 376.65 58.7 380.5C60.94 384.35 65.45 391.1 68.72 395.5C71.98 399.9 78.47 407.1 83.14 411.5C87.81 415.9 94.75 421.6 98.56 424.16C102.38 426.72 109.1 430.67 113.5 432.93C117.9 435.2 126.22 438.56 132 440.42C137.78 442.27 145.88 444.4 150 445.14C154.54 445.96 164.21 446.47 174.5 446.42C187.82 446.36 193.66 445.88 201.5 444.21C207 443.04 215.78 440.69 221 438.99C226.22 437.3 235.22 433.64 241 430.88C246.78 428.11 255.32 423.35 260 420.31C264.68 417.27 272.55 411.51 277.5 407.52C282.45 403.52 290.06 396.49 294.4 391.88C298.75 387.27 304.87 380.13 308.01 376C311.15 371.88 315.89 365.13 318.55 361C321.21 356.88 326.21 347.65 329.66 340.5C333.12 333.35 337.49 322.77 339.37 317C341.25 311.23 343.71 302.23 344.83 297C345.95 291.77 347.35 283.11 347.93 277.75C348.52 272.39 349 263.73 349 258.5C349 253.28 348.34 243.94 347.53 237.75C346.72 231.56 344.95 222.22 343.6 217C342.24 211.78 339.39 203.22 337.26 198C335.12 192.78 331.54 185.35 329.3 181.5C327.06 177.65 322.55 170.9 319.28 166.5C316.02 162.1 309.53 154.9 304.86 150.5C300.19 146.1 293.25 140.4 289.44 137.84C285.62 135.28 278.9 131.34 274.5 129.08C270.1 126.83 262.45 123.64 257.5 121.99C252.55 120.35 245.13 118.32 241 117.49C236.88 116.65 226.75 115.78 218.5 115.54C210.25 115.3 200.35 115.54 196.5 116.06Z" />
		<path id="Path 3" class="shp1" d="M193.86 179.15C153.51 183.38 120.39 186.87 120.25 186.92C120.11 186.96 120 191.61 120 197.25C120 202.89 120.46 213.57 121.01 221C121.56 228.43 122.95 239.45 124.09 245.5C125.24 251.55 127.4 259.88 128.9 264C130.4 268.13 133.17 273.74 135.06 276.48C136.95 279.22 139.63 282.51 141 283.8C142.38 285.08 145.3 287.06 147.5 288.2C150.39 289.69 154.69 290.51 163 291.16C169.32 291.65 178.1 292.74 182.5 293.57C186.9 294.41 191.63 295.9 193 296.9C194.38 297.89 195.61 299.67 195.75 300.85C195.94 302.45 195.04 303.48 192.25 304.89C190.19 305.93 185.24 307.28 181.25 307.89C177.26 308.5 167.25 309 159 309C144.67 309 144 309.09 144 311C144 312.1 146.26 325.04 149.03 339.75C151.79 354.46 154.29 366.73 154.59 367C154.88 367.27 160.38 366.9 166.81 366.16C173.24 365.43 183.22 363.98 189 362.94C194.78 361.9 204.45 359.66 210.5 357.96C216.55 356.26 225.32 353.06 230 350.86C234.68 348.66 241.31 344.87 244.75 342.43C248.33 339.89 252.95 335.33 255.56 331.75C258.29 328.02 260.92 322.88 262.09 319C263.51 314.26 264.03 309.65 264 302C263.97 296.23 263.51 289.59 262.98 287.25C262.44 284.91 261.11 281.09 260.03 278.75C258.95 276.41 256.36 272.54 254.28 270.14C252.04 267.56 248.06 264.61 244.5 262.91C240.71 261.1 234.09 259.27 226.5 257.95C219.9 256.79 211.35 254.76 207.5 253.42C203.22 251.93 199.23 249.73 197.23 247.74C194.99 245.51 193.96 243.56 193.97 241.5L193.97 238.5C201.36 239.59 214.38 240.71 227.68 241.7C240.98 242.69 252.13 243.28 252.46 243C252.78 242.72 256.36 226.53 260.42 207.02C264.48 187.5 267.67 171.52 267.51 171.5C267.36 171.48 234.22 174.93 193.86 179.15Z" />
		<path id="Path 4" class="shp0" d="M316.5 428.58C311.55 429.35 304.35 430.93 300.5 432.09C296.65 433.26 292.26 434.84 290.75 435.6C289.24 436.37 286.37 438.46 284.37 440.25C282.38 442.04 279.9 445.19 278.87 447.25C277.62 449.76 277 453.15 277 457.5C277 461.07 277.48 465.24 278.06 466.75C278.65 468.26 280.34 470.78 281.81 472.35C283.29 473.92 285.63 475.63 287 476.15C288.38 476.68 292.43 477.7 296 478.43C299.57 479.15 303.96 480.48 305.75 481.37C307.54 482.27 309 483.68 309 484.5C309 485.53 307.99 485.99 305.75 485.96C303.96 485.94 298 485.53 292.5 485.04C287 484.55 282.4 484.23 282.28 484.33C282.16 484.42 280.5 491.93 278.6 501C276.69 510.07 275.21 517.57 275.31 517.66C275.42 517.74 290.57 516.24 309 514.33C327.43 512.41 342.73 510.61 343 510.34C343.27 510.06 343.36 505.26 343.2 499.67C343.03 494.08 342.3 486.57 341.57 483C340.84 479.43 339.35 474.7 338.26 472.5C337.17 470.3 334.86 467.26 333.14 465.75C331.41 464.24 328.54 462.8 326.75 462.55C324.96 462.31 321.02 461.88 318 461.59C314.98 461.31 311.71 460.84 310.75 460.54C309.79 460.24 309 459.32 309 458.5C309 457.68 310.01 456.59 311.25 456.1C312.49 455.6 317.87 454.81 323.22 454.35C332.23 453.56 332.9 453.36 332.44 451.5C332.17 450.4 331.05 444.77 329.94 439C328.83 433.23 327.71 428.16 327.46 427.75C327.21 427.34 326.66 427.04 326.25 427.1C325.84 427.15 321.45 427.82 316.5 428.58Z" />
	</g>
</svg>