<svg version="1.2" baseProfile="tiny-ps" xmlns="http://www.w3.org/2000/svg" viewBox="0 0 388 562" width="388" height="562">
	<title>Red_6</title>
	<style>
		tspan { white-space:pre }
		.shp0 { fill: #ffffff } 
		.shp1 { fill: #ea323c } 
	</style>
	<g id="Background">
		<path id="Path 0" class="shp0" d="M27.5 2.69C24.17 3.51 19.28 5.72 16.5 7.67C13.75 9.6 9.85 13.5 7.84 16.34C5.51 19.63 3.61 23.95 2.59 28.25C1.16 34.33 1 59.36 1 281C1 502.64 1.16 527.67 2.59 533.75C3.61 538.05 5.51 542.37 7.84 545.66C9.85 548.5 13.75 552.39 16.5 554.32C19.57 556.46 24.1 558.43 28.25 559.41C34.28 560.83 51.98 561 194 561C336.02 561 353.72 560.83 359.75 559.41C364.05 558.39 368.37 556.49 371.66 554.16C374.5 552.15 378.39 548.25 380.32 545.5C382.46 542.43 384.43 537.9 385.41 533.75C386.84 527.67 387 502.64 387 281C387 59.36 386.84 34.33 385.41 28.25C384.39 23.95 382.49 19.63 380.16 16.34C378.15 13.5 374.25 9.61 371.5 7.68C368.43 5.54 363.9 3.57 359.75 2.59C353.71 1.17 336.21 1.01 193.25 1.11C56.31 1.21 32.64 1.43 27.5 2.69Z" />
		<path id="Path 1" class="shp1" d="M33.34 29.4C32.15 30.12 30.48 31.8 29.63 33.11C28.23 35.25 28.07 60.68 28.04 280.75C28.01 474.95 28.26 526.55 29.25 528.62C29.94 530.06 31.74 531.86 33.25 532.62C35.55 533.78 61.67 534 194 534C326.33 534 352.45 533.78 354.75 532.62C356.26 531.86 358.06 530.06 358.75 528.62C359.74 526.55 360 474.94 360 281C360 87.06 359.74 35.45 358.75 33.38C358.06 31.94 356.26 30.14 354.75 29.38C352.45 28.22 326.35 28.01 193.75 28.04C64.2 28.06 35.11 28.31 33.34 29.4Z" />
		<path id="Path 2" class="shp0" d="M39.36 54.25C38.01 60.95 37.5 67.91 37.5 79.5C37.5 95.19 37.56 95.62 40.5 101.9C42.15 105.42 44.96 109.58 46.75 111.15C48.54 112.72 51.69 114.72 53.75 115.59C55.81 116.47 61.1 117.43 65.5 117.73C69.95 118.03 76.61 117.74 80.5 117.07C84.35 116.4 89.53 114.97 92 113.88C94.47 112.79 97.78 110.68 99.34 109.2C100.9 107.71 103.09 104.7 104.2 102.5C105.31 100.3 106.45 96.47 106.72 94C107 91.53 106.74 87.03 106.13 84C105.53 80.97 103.77 76.7 102.22 74.5C100.28 71.75 97.69 69.75 93.95 68.12C89.08 66 87.36 65.79 77.75 66.12C71.84 66.33 67 66.39 67 66.25C67 66.11 68.8 62.4 71 58C73.2 53.6 74.66 50 74.25 50C73.84 50.01 67.2 48.88 59.5 47.51C51.8 46.13 44.53 45.01 43.36 45C41.45 45 41 46.03 39.36 54.25Z" />
		<path id="Path 3" class="shp1" d="M64.58 87.08C63.52 87.64 62.74 88.98 62.83 90.05C62.92 91.12 63.9 92.45 65 93C66.1 93.55 68.35 94 70 94C71.65 94 73.9 93.55 75 93C76.1 92.45 77 91.1 77 90C77 88.9 76.1 87.55 75 87C73.9 86.45 71.54 86.01 69.75 86.03C67.96 86.05 65.64 86.52 64.58 87.08Z" />
		<path id="Path 4" class="shp0" d="M196.5 116.06C192.65 116.58 184.78 118.18 179 119.6C173.22 121.03 164.68 123.67 160 125.46C155.32 127.26 147.9 130.54 143.5 132.76C139.1 134.98 131.45 139.46 126.5 142.72C121.55 145.97 113.45 152.02 108.5 156.14C103.55 160.27 96.4 166.99 92.62 171.07C88.83 175.16 83.16 181.88 80.01 186C76.86 190.13 72.11 196.88 69.45 201C66.79 205.13 61.79 214.35 58.34 221.5C54.88 228.65 50.51 239.22 48.63 245C46.75 250.78 44.29 259.77 43.17 265C42.05 270.23 40.65 278.89 40.07 284.25C39.48 289.61 39 298.27 39 303.5C39 308.73 39.66 318.06 40.47 324.25C41.28 330.44 43.05 339.77 44.4 345C45.76 350.23 48.61 358.77 50.74 364C52.88 369.23 56.46 376.65 58.7 380.5C60.94 384.35 65.45 391.1 68.72 395.5C71.98 399.9 78.47 407.1 83.14 411.5C87.81 415.9 94.75 421.6 98.56 424.16C102.38 426.72 109.1 430.67 113.5 432.93C117.9 435.2 126.22 438.56 132 440.42C137.78 442.27 145.88 444.4 150 445.14C154.54 445.96 164.21 446.47 174.5 446.42C187.82 446.36 193.66 445.88 201.5 444.21C207 443.04 215.78 440.69 221 438.99C226.22 437.3 235.22 433.64 241 430.88C246.78 428.11 255.32 423.35 260 420.31C264.68 417.27 272.55 411.51 277.5 407.52C282.45 403.52 290.06 396.49 294.4 391.88C298.75 387.27 304.87 380.13 308.01 376C311.15 371.88 315.89 365.13 318.55 361C321.21 356.88 326.21 347.65 329.66 340.5C333.12 333.35 337.49 322.77 339.37 317C341.25 311.23 343.71 302.23 344.83 297C345.95 291.77 347.35 283.11 347.93 277.75C348.52 272.39 349 263.73 349 258.5C349 253.28 348.34 243.94 347.53 237.75C346.72 231.56 344.95 222.22 343.6 217C342.24 211.78 339.39 203.22 337.26 198C335.12 192.78 331.54 185.35 329.3 181.5C327.06 177.65 322.55 170.9 319.28 166.5C316.02 162.1 309.53 154.9 304.86 150.5C300.19 146.1 293.25 140.4 289.44 137.84C285.62 135.28 278.9 131.34 274.5 129.08C270.1 126.83 262.45 123.64 257.5 121.99C252.55 120.35 245.13 118.32 241 117.49C236.88 116.65 226.75 115.78 218.5 115.54C210.25 115.3 200.35 115.54 196.5 116.06Z" />
		<path id="Path 5" class="shp1" d="M126.14 204.25C124.99 209.89 123.6 217.2 123.03 220.5C122.47 223.8 121.36 231.45 120.57 237.5C119.77 243.55 118.82 254.57 118.45 262C118.05 269.97 118.22 280.01 118.88 286.5C119.48 292.55 120.88 301.1 121.98 305.5C123.09 309.9 125.88 317.32 128.2 322C131.03 327.73 134.21 332.29 137.96 336C141.01 339.02 146.65 343.16 150.5 345.19C154.35 347.22 160.65 349.67 164.5 350.63C169.71 351.92 175.6 352.37 187.5 352.36C196.3 352.36 207.1 351.8 211.5 351.12C215.9 350.44 222.88 348.97 227 347.86C231.13 346.75 237.2 344.49 240.5 342.85C243.8 341.2 248.75 338.17 251.5 336.12C254.25 334.06 258.44 329.48 260.82 325.94C263.19 322.4 266.11 316.35 267.3 312.5C269.05 306.88 269.46 303.13 269.41 293.5C269.36 285.33 268.77 279.43 267.57 275C266.6 271.43 264.77 266.48 263.5 264C262.24 261.52 259.44 257.48 257.27 255C255.02 252.43 250.37 248.93 246.41 246.83C242.16 244.57 236.23 242.5 231 241.44C224.33 240.09 219.6 239.85 209 240.3C201.57 240.62 192.8 241.37 189.5 241.98C186.2 242.58 183.39 242.83 183.25 242.54C183.11 242.24 187.05 233.9 192 224C196.95 214.1 200.55 206 200 206C199.45 206 183.81 203.3 165.25 200.01C146.69 196.71 130.76 194.01 129.86 194.01C128.58 194 127.76 196.25 126.14 204.25Z" />
		<path id="Path 6" class="shp0" d="M181.34 284.11C179.6 284.62 177.45 286.04 176.58 287.27C175.7 288.5 174.99 290.74 174.99 292.25C175 293.76 175.39 295.79 175.87 296.75C176.35 297.71 178.26 299.18 180.12 300C182.1 300.88 186.39 301.49 190.5 301.47C195.68 301.45 198.41 300.92 201 299.42C202.93 298.3 204.95 296.15 205.5 294.64C206.25 292.56 206.13 291.23 204.98 289.19C204.14 287.71 201.89 285.71 199.98 284.75C197.73 283.62 194.37 283.03 190.5 283.09C187.2 283.14 183.08 283.6 181.34 284.11ZM297.5 435.39C294.2 436.13 289.7 437.66 287.5 438.78C285.3 439.9 282.31 442.1 280.86 443.66C279.41 445.22 277.54 447.85 276.7 449.5C275.86 451.15 274.86 454.75 274.47 457.5C274.09 460.25 274.27 464.98 274.87 468C275.47 471.02 277.23 475.3 278.78 477.5C280.72 480.25 283.31 482.25 287.05 483.88C291.92 486 293.64 486.21 303.25 485.88C309.16 485.67 314 485.61 314 485.75C314 485.89 312.2 489.6 310 494L306 502C314.91 503.4 322.31 504.64 328.18 505.65C334.05 506.67 339.12 507.27 339.44 507C339.76 506.73 340.95 501.32 342.08 495C343.67 486.09 344.05 480.46 343.77 470C343.44 457.56 343.18 456 340.46 450.1C338.83 446.58 336.04 442.42 334.25 440.85C332.46 439.28 329.31 437.27 327.25 436.38C324.9 435.37 319.76 434.63 313.5 434.4C307.38 434.18 301.17 434.56 297.5 435.39Z" />
		<path id="Path 7" class="shp1" d="M305.58 459.08C304.52 459.64 303.74 460.98 303.83 462.05C303.92 463.12 304.9 464.45 306 465C307.1 465.55 309.35 466 311 466C312.65 466 314.9 465.55 316 465C317.1 464.45 318 463.1 318 462C318 460.9 317.1 459.55 316 459C314.9 458.45 312.54 458.01 310.75 458.03C308.96 458.05 306.64 458.52 305.58 459.08Z" />
	</g>
</svg>