<svg version="1.2" baseProfile="tiny-ps" xmlns="http://www.w3.org/2000/svg" viewBox="0 0 388 562" width="388" height="562">
	<title>WildDraw</title>
	<style>
		tspan { white-space:pre }
		.shp0 { fill: #ffffff } 
		.shp1 { fill: #ea323c } 
		.shp2 { fill: #0098dc } 
		.shp3 { fill: #ffc825 } 
		.shp4 { fill: #33984b } 
	</style>
	<g id="Background">
		<path id="Path 0" class="shp0" d="M27.5 2.69C24.17 3.51 19.28 5.72 16.5 7.67C13.75 9.6 9.85 13.5 7.84 16.34C5.51 19.63 3.61 23.95 2.59 28.25C1.16 34.33 1 59.36 1 281C1 502.64 1.16 527.67 2.59 533.75C3.61 538.05 5.51 542.37 7.84 545.66C9.85 548.5 13.75 552.39 16.5 554.32C19.57 556.46 24.1 558.43 28.25 559.41C34.28 560.83 51.98 561 194 561C336.02 561 353.72 560.83 359.75 559.41C364.05 558.39 368.37 556.49 371.66 554.16C374.5 552.15 378.39 548.25 380.32 545.5C382.46 542.43 384.43 537.9 385.41 533.75C386.84 527.67 387 502.64 387 281C387 59.36 386.84 34.33 385.41 28.25C384.39 23.95 382.49 19.63 380.16 16.34C378.15 13.5 374.25 9.61 371.5 7.68C368.43 5.54 363.9 3.57 359.75 2.59C353.71 1.17 336.21 1.01 193.25 1.11C56.31 1.21 32.64 1.43 27.5 2.69Z" />
		<path id="Path 1" class="shp1" d="M33.34 29.4C32.15 30.12 30.48 31.8 29.63 33.11C28.23 35.25 28.07 60.68 28.04 280.75C28.01 474.95 28.26 526.55 29.25 528.62C29.94 530.06 31.74 531.86 33.25 532.62C35.55 533.78 61.67 534 194 534C326.33 534 352.45 533.78 354.75 532.62C356.26 531.86 358.06 530.06 358.75 528.62C359.74 526.55 360 474.94 360 281C360 87.06 359.74 35.45 358.75 33.38C358.06 31.94 356.26 30.14 354.75 29.38C352.45 28.22 326.35 28.01 193.75 28.04C64.2 28.06 35.11 28.31 33.34 29.4Z" />
		<path id="Path 2" class="shp0" d="M101.7 46.87C99.26 47.42 97.71 49.78 89.7 65.19C84.64 74.93 80.72 83.11 81 83.38C81.28 83.65 85.67 84.47 90.76 85.19C98.92 86.34 100.02 86.74 100.02 88.5C100.01 89.6 99.54 93.2 98.97 96.5C98.4 99.8 98.19 102.72 98.52 103C98.84 103.28 104.04 102.83 110.07 102L121.03 100.5L121 89C127.52 89.93 128.06 89.69 128.45 87.75C128.7 86.51 129.38 83.14 129.95 80.25C130.53 77.36 131 74.33 131 73.5C131 72.42 129.89 72 127 72C124.8 72 122.33 71.78 121.5 71.5C120.27 71.09 120 68.72 120 58.5L120 46C107.99 46.18 103.24 46.52 101.7 46.87ZM52 62.5L52 68L42 68L42 85L52 85L52 95L69 95L69 85L79 85L79 68L69 68L69 57L52 57L52 62.5Z" />
		<path id="Path 3" class="shp1" d="M102.08 66.57C101.6 67.98 101.16 69.33 101.1 69.57C101.05 69.8 101.67 70 102.5 70C103.5 70 104 69 104 67C104 65.35 103.77 64 103.48 64C103.19 64 102.56 65.15 102.08 66.57Z" />
		<path id="Path 4" class="shp0" d="M196.5 116.06C192.65 116.58 184.78 118.18 179 119.6C173.22 121.03 164.68 123.67 160 125.46C155.32 127.26 147.9 130.54 143.5 132.76C139.1 134.98 131.45 139.46 126.5 142.72C121.55 145.97 113.45 152.02 108.5 156.14C103.55 160.27 96.4 166.99 92.62 171.07C88.83 175.16 83.16 181.88 80.01 186C76.86 190.13 72.11 196.88 69.45 201C66.79 205.13 61.79 214.35 58.34 221.5C54.88 228.65 50.51 239.22 48.63 245C46.75 250.78 44.29 259.77 43.17 265C42.05 270.23 40.65 278.89 40.07 284.25C39.48 289.61 39 298.27 39 303.5C39 308.73 39.66 318.06 40.47 324.25C41.28 330.44 43.05 339.77 44.4 345C45.76 350.23 48.61 358.77 50.74 364C52.88 369.23 56.46 376.65 58.7 380.5C60.94 384.35 65.45 391.1 68.72 395.5C71.98 399.9 78.47 407.1 83.14 411.5C87.81 415.9 94.75 421.6 98.56 424.16C102.38 426.72 109.1 430.67 113.5 432.93C117.9 435.2 126.22 438.56 132 440.42C137.78 442.27 145.88 444.4 150 445.14C154.54 445.96 164.21 446.47 174.5 446.42C187.82 446.36 193.66 445.88 201.5 444.21C207 443.04 215.78 440.69 221 438.99C226.22 437.3 235.22 433.64 241 430.88C246.78 428.11 255.32 423.35 260 420.31C264.68 417.27 272.55 411.51 277.5 407.52C282.45 403.52 290.06 396.49 294.4 391.88C298.75 387.27 304.87 380.13 308.01 376C311.15 371.88 315.89 365.13 318.55 361C321.21 356.88 326.21 347.65 329.66 340.5C333.12 333.35 337.49 322.77 339.37 317C341.25 311.23 343.71 302.23 344.83 297C345.95 291.77 347.35 283.11 347.93 277.75C348.52 272.39 349 263.73 349 258.5C349 253.28 348.34 243.94 347.53 237.75C346.72 231.56 344.95 222.22 343.6 217C342.24 211.78 339.39 203.22 337.26 198C335.12 192.78 331.55 185.35 329.31 181.5C327.07 177.65 322.54 170.9 319.25 166.5C315.95 162.1 309.46 154.9 304.82 150.5C300.17 146.1 293.25 140.4 289.44 137.84C285.62 135.28 278.9 131.34 274.5 129.08C270.1 126.83 262.45 123.64 257.5 121.99C252.55 120.35 245.13 118.32 241 117.49C236.88 116.65 226.75 115.78 218.5 115.54C210.25 115.3 200.35 115.54 196.5 116.06Z" />
		<path id="Path 5" class="shp2" d="M216.35 186.75C215.97 188.26 212.66 201.43 208.98 216C204.7 233.01 202.54 243.39 202.95 245C203.52 247.21 204.02 246.6 207.3 239.75C209.74 234.63 212.86 230.14 216.5 226.5C220.09 222.91 224.69 219.7 229.75 217.25C236.95 213.78 238.14 213.51 246.5 213.51C253.98 213.52 256.41 213.94 260.89 216.01C263.86 217.38 268.16 220.53 270.46 223C272.75 225.47 275.5 229.75 276.57 232.5C277.84 235.79 278.5 239.97 278.5 244.75C278.5 249.88 278.87 252 279.75 252C280.44 252 281.43 250.31 281.95 248.25C282.48 246.19 285.29 235.16 288.2 223.74C291.71 210.01 293.16 202.66 292.5 202.03C291.95 201.5 275.19 197.23 255.25 192.54C235.31 187.84 218.56 184 218.02 184C217.47 184 216.72 185.24 216.35 186.75Z" />
		<path id="Path 6" class="shp1" d="M149.5 204.68C130.25 210.45 114.12 215.47 113.66 215.84C113.2 216.2 115.62 226.18 119.03 238C122.45 249.82 125.41 259.73 125.61 260C125.82 260.27 127.33 259.82 128.98 259C131.04 257.97 132.12 256.56 132.46 254.5C132.73 252.85 134.5 248.35 136.39 244.5C138.56 240.1 141.73 235.74 144.92 232.75C147.71 230.14 152.59 226.76 155.75 225.25C160.56 222.95 162.81 222.5 169.5 222.52C176.14 222.54 178.35 222.98 182.5 225.14C185.25 226.56 189.67 230.16 192.31 233.12C195.09 236.22 197.98 240.83 199.14 244C200.25 247.03 201.4 252.43 201.7 256C202.01 259.71 201.7 265.07 200.97 268.5C200.27 271.8 198.21 277.43 196.4 281C194.59 284.57 191.32 289.3 189.13 291.5L185.16 295.5C191.37 310.23 193.56 314.95 194.04 315.5C194.56 316.1 195.51 314.32 196.42 311C197.26 307.98 200.38 296.5 203.37 285.5L208.8 265.5C203 245.35 198.46 229.82 194.98 218C191.49 206.18 188.16 195.92 187.57 195.21C186.98 194.49 186.05 193.97 185.5 194.05C184.95 194.12 168.75 198.9 149.5 204.68Z" />
		<path id="Path 7" class="shp0" d="M237.75 214.04C235.69 214.57 231.19 216.42 227.75 218.16C224.31 219.89 219.19 223.61 216.37 226.41C213.23 229.53 209.82 234.4 207.57 239C204.85 244.58 204.06 247.27 204.49 249.5C204.81 251.15 205.73 254.86 206.53 257.75C207.34 260.64 208.34 263 208.75 263C209.16 263 211.07 257.08 213 249.85C214.93 242.62 216.95 236.53 217.5 236.33C218.05 236.12 231.78 239.49 248 243.82C264.23 248.15 277.91 251.42 278.41 251.09C278.91 250.77 279.09 247.35 278.81 243.5C278.53 239.64 277.34 234.26 276.16 231.5C274.98 228.75 272.1 224.61 269.76 222.3C267.42 219.99 263.25 217.1 260.5 215.89C257.29 214.47 252.99 213.57 248.5 213.38C244.65 213.22 239.81 213.51 237.75 214.04ZM160.5 223.3C158.3 224.01 154.47 225.75 152 227.18C149.53 228.6 145.5 231.96 143.05 234.63C140.6 237.31 137.36 242.2 135.85 245.5C134.34 248.8 132.86 252.74 132.55 254.25C132.24 255.79 132.44 257 133 257C133.55 257 140.64 254.25 148.75 250.89C160.89 245.86 163.7 245.02 164.63 246.14C165.25 246.89 169.69 257.18 174.49 269C179.3 280.82 183.74 291.55 184.36 292.82C185.49 295.14 185.52 295.13 189.75 290.57C192.09 288.06 195.13 283.75 196.5 281C197.88 278.25 199.73 273.19 200.62 269.75C201.73 265.48 202.08 261.29 201.71 256.5C201.42 252.65 200.27 247.03 199.15 244C197.99 240.84 195.08 236.21 192.31 233.12C189.67 230.16 185.25 226.6 182.5 225.22C179.11 223.51 175.41 222.59 171 222.36C167.42 222.17 162.7 222.59 160.5 223.3Z" />
		<path id="Path 8" class="shp3" d="M216.14 238.25C215.69 239.49 214.03 245.45 212.46 251.5C210.89 257.55 209.24 262.61 208.8 262.75C208.36 262.89 208.2 263.34 208.45 263.75C208.69 264.16 206 275.3 202.47 288.5C198.94 301.7 195.59 313.51 195.03 314.75C194.17 316.62 195.29 320.11 201.59 335.25C207.67 349.87 208.96 353.85 208.09 355.25C207.28 356.56 207.32 357.12 208.25 357.46C208.94 357.71 220.97 360.9 235 364.55C249.03 368.2 260.79 370.81 261.15 370.35C261.5 369.88 268.62 344.07 276.97 313C285.32 281.93 291.78 256.18 291.32 255.79C290.87 255.4 274.3 250.77 254.5 245.52C234.7 240.26 218.15 235.97 217.73 235.98C217.31 235.99 216.59 237.01 216.14 238.25Z" />
		<path id="Path 9" class="shp4" d="M127.6 259.36C108.96 267.13 93.53 273.95 93.31 274.5C93.09 275.05 102.67 299.35 114.59 328.5C126.51 357.65 136.76 382.11 137.38 382.86C138.3 383.97 144.49 381.76 171.5 370.7C189.65 363.27 205.29 356.92 206.25 356.6C207.21 356.27 208.25 355.44 208.55 354.75C208.86 354.06 199.34 329.65 187.41 300.5C175.47 271.35 165.21 246.92 164.61 246.21C164 245.49 163.05 244.98 162.5 245.06C161.95 245.14 146.25 251.58 127.6 259.36Z" />
		<path id="Path 10" class="shp0" d="M235 267.3C232.53 268.01 228.26 269.69 225.52 271.04C222.78 272.39 217.83 276.2 214.52 279.51C211.06 282.96 207.33 287.95 205.75 291.26C204.24 294.42 202.49 299.36 201.87 302.25C201.25 305.14 200.97 309.98 201.24 313C201.51 316.02 202.6 320.52 203.66 323C204.73 325.48 207.42 329.52 209.65 332C211.93 334.52 216.08 337.6 219.1 338.99C223.59 341.06 226.02 341.48 233.5 341.49C241.86 341.49 243.05 341.22 250.25 337.75C255.31 335.3 259.91 332.09 263.5 328.5C267.09 324.91 270.3 320.31 272.75 315.25C276.22 308.06 276.49 306.85 276.5 298.5C276.5 291.55 276.03 288.47 274.45 285C273.32 282.52 270.58 278.48 268.35 276C265.98 273.37 262.05 270.5 258.9 269.1C255.34 267.51 251.12 266.58 246.5 266.36C242.65 266.17 237.47 266.59 235 267.3ZM143.5 275.36C141.3 276.04 137.93 277.54 136 278.7C134.07 279.87 130.45 283 127.94 285.66C125.44 288.32 122.22 292.98 120.79 296C119.36 299.02 117.63 304.43 116.94 308C116.26 311.59 115.96 317.19 116.28 320.5C116.6 323.8 117.77 328.98 118.88 332C120 335.02 122.43 339.52 124.28 342C126.14 344.48 129.87 347.93 132.58 349.68C135.29 351.43 139.75 353.41 142.5 354.08C145.39 354.78 149.82 355.03 153 354.67C156.03 354.33 160.75 352.95 163.5 351.61C166.34 350.23 170.81 346.66 173.84 343.34C176.78 340.13 180.21 335.25 181.47 332.5C182.74 329.75 184.27 325.14 184.89 322.25C185.5 319.36 186 314.86 186.01 312.25C186.01 309.64 185.32 304.8 184.47 301.5C183.63 298.2 181.43 293.02 179.59 290C177.74 286.98 174.05 282.81 171.37 280.73C168.69 278.66 164.25 276.3 161.5 275.47C158.75 274.65 154.47 274.02 152 274.06C149.53 274.1 145.7 274.69 143.5 275.36ZM277.5 456.54C272.55 457.25 268.39 457.87 268.25 457.91C268.11 457.96 268 460.48 268 463.5L268 469C262 469 260.87 469.5 260.56 470.75C260.31 471.71 259.63 475.2 259.05 478.5C258.47 481.8 257.99 485.06 257.99 485.75C258 486.6 259.77 487 263.5 487L269 487C269 512.96 269.01 513 271.25 512.51C272.49 512.25 277.1 512.04 281.5 512.05L289.5 512.07C303.79 484.5 307.96 476.05 307.98 475.5C308 474.95 304.98 474.13 301.26 473.69C297.54 473.24 293.21 472.56 291.63 472.19C288.93 471.54 288.79 471.26 289.33 467.5C289.64 465.3 290.05 461.59 290.23 459.25C290.53 455.5 290.33 455.01 288.53 455.13C287.42 455.19 282.45 455.83 277.5 456.54ZM320 468.5L320 474L310 474L310 491L320 491L320 501L337 501L337 491L347 491L347 474L337 474L337 463L320 463L320 468.5Z" />
		<path id="Path 11" class="shp1" d="M285.03 491.25C285.06 494.36 285.13 494.41 286.55 492.5C287.37 491.4 288.03 489.94 288.02 489.25C288.01 488.56 287.32 488 286.5 488C285.47 488 285.01 489.01 285.03 491.25Z" />
	</g>
</svg>