<svg version="1.2" baseProfile="tiny-ps" xmlns="http://www.w3.org/2000/svg" viewBox="0 0 388 562" width="388" height="562">
	<title>Red_4</title>
	<style>
		tspan { white-space:pre }
		.shp0 { fill: #ffffff } 
		.shp1 { fill: #ea323c } 
	</style>
	<g id="Background">
		<path id="Path 0" class="shp0" d="M27.5 2.69C24.17 3.51 19.28 5.72 16.5 7.67C13.75 9.6 9.85 13.5 7.84 16.34C5.51 19.63 3.61 23.95 2.59 28.25C1.16 34.33 1 59.36 1 281C1 502.64 1.16 527.67 2.59 533.75C3.61 538.05 5.51 542.37 7.84 545.66C9.85 548.5 13.75 552.39 16.5 554.32C19.57 556.46 24.1 558.43 28.25 559.41C34.28 560.83 51.98 561 194 561C336.02 561 353.72 560.83 359.75 559.41C364.05 558.39 368.37 556.49 371.66 554.16C374.5 552.15 378.39 548.25 380.32 545.5C382.46 542.43 384.43 537.9 385.41 533.75C386.84 527.67 387 502.64 387 281C387 59.36 386.84 34.33 385.41 28.25C384.39 23.95 382.49 19.63 380.16 16.34C378.15 13.5 374.25 9.61 371.5 7.68C368.43 5.54 363.9 3.57 359.75 2.59C353.71 1.17 336.21 1.01 193.25 1.11C56.31 1.21 32.64 1.43 27.5 2.69Z" />
		<path id="Path 1" class="shp1" d="M33.34 29.4C32.15 30.12 30.48 31.8 29.63 33.11C28.23 35.25 28.07 60.68 28.04 280.75C28.01 474.95 28.26 526.55 29.25 528.62C29.94 530.06 31.74 531.86 33.25 532.62C35.55 533.78 61.67 534 194 534C326.33 534 352.45 533.78 354.75 532.62C356.26 531.86 358.06 530.06 358.75 528.62C359.74 526.55 360 474.94 360 281C360 87.06 359.74 35.45 358.75 33.38C358.06 31.94 356.26 30.14 354.75 29.38C352.45 28.22 326.35 28.01 193.75 28.04C64.2 28.06 35.11 28.31 33.34 29.4Z" />
		<path id="Path 2" class="shp0" d="M75.3 36.92C68.59 37.24 62.66 37.95 62.13 38.5C61.59 39.05 55.27 51.09 48.08 65.25C40.88 79.41 35.11 91.2 35.25 91.45C35.39 91.7 41.58 92.67 49 93.61C56.42 94.56 62.83 95.59 63.22 95.91C63.62 96.24 63.06 101.67 61.98 108C60.9 114.33 60.01 119.72 60.01 120C60.01 120.28 67.66 119.6 77.01 118.5L94.01 116.5L93.97 99.5C103.66 100.95 104.03 100.85 104.48 98.75C104.74 97.51 105.84 91.78 106.91 86C107.97 80.22 108.66 75.16 108.42 74.75C108.19 74.34 104.63 74 100.5 74L93 74L93 36C88.74 36.26 82.01 36.6 75.3 36.92Z" />
		<path id="Path 3" class="shp1" d="M66.02 65.75C65.3 67.81 64.56 70.06 64.36 70.75C64.16 71.45 64.88 72 66 72C67.1 72 68.17 71.66 68.38 71.25C68.6 70.84 68.99 68.59 69.26 66.25C69.59 63.32 69.37 62 68.53 62C67.86 62 66.73 63.69 66.02 65.75Z" />
		<path id="Path 4" class="shp0" d="M196.5 116.06C192.65 116.58 184.78 118.18 179 119.6C173.22 121.03 164.68 123.67 160 125.46C155.32 127.26 147.9 130.54 143.5 132.76C139.1 134.98 131.45 139.46 126.5 142.72C121.55 145.97 113.45 152.02 108.5 156.14C103.55 160.27 96.4 166.99 92.62 171.07C88.83 175.16 83.16 181.88 80.01 186C76.86 190.13 72.11 196.88 69.45 201C66.79 205.13 61.79 214.35 58.34 221.5C54.88 228.65 50.51 239.22 48.63 245C46.75 250.78 44.29 259.77 43.17 265C42.05 270.23 40.65 278.89 40.07 284.25C39.48 289.61 39 298.27 39 303.5C39 308.73 39.66 318.06 40.47 324.25C41.28 330.44 43.05 339.77 44.4 345C45.76 350.23 48.61 358.77 50.74 364C52.88 369.23 56.46 376.65 58.7 380.5C60.94 384.35 65.45 391.1 68.72 395.5C71.98 399.9 78.47 407.1 83.14 411.5C87.81 415.9 94.75 421.6 98.56 424.16C102.38 426.72 109.1 430.67 113.5 432.93C117.9 435.2 126.22 438.56 132 440.42C137.78 442.27 145.88 444.4 150 445.14C154.54 445.96 164.21 446.47 174.5 446.42C187.82 446.36 193.66 445.88 201.5 444.21C207 443.04 215.78 440.69 221 438.99C226.22 437.3 235.22 433.64 241 430.88C246.78 428.11 255.32 423.35 260 420.31C264.68 417.27 272.55 411.51 277.5 407.52C282.45 403.52 290.06 396.49 294.4 391.88C298.75 387.27 304.87 380.13 308.01 376C311.15 371.88 315.89 365.13 318.55 361C321.21 356.88 326.21 347.65 329.66 340.5C333.12 333.35 337.49 322.77 339.37 317C341.25 311.23 343.71 302.23 344.83 297C345.95 291.77 347.35 283.11 347.93 277.75C348.52 272.39 349 263.73 349 258.5C349 253.28 348.34 243.94 347.53 237.75C346.72 231.56 344.95 222.22 343.6 217C342.24 211.78 339.39 203.22 337.26 198C335.12 192.78 331.54 185.35 329.3 181.5C327.06 177.65 322.55 170.9 319.28 166.5C316.02 162.1 309.53 154.9 304.86 150.5C300.19 146.1 293.25 140.4 289.44 137.84C285.62 135.28 278.9 131.34 274.5 129.08C270.1 126.83 262.45 123.64 257.5 121.99C252.55 120.35 245.13 118.32 241 117.49C236.88 116.65 226.75 115.78 218.5 115.54C210.25 115.3 200.35 115.54 196.5 116.06Z" />
		<path id="Path 5" class="shp1" d="M200.5 177.67C176.98 178.89 173.37 179.29 172.5 180.79C171.96 181.73 158.57 207.81 142.75 238.75C126.94 269.69 114.11 295.19 114.25 295.43C114.39 295.66 128.68 297.74 146 300.04C163.32 302.35 177.6 304.29 177.71 304.37C177.83 304.44 175.9 316.43 173.44 331C170.97 345.57 169.21 357.73 169.53 358C169.84 358.27 186.17 356.51 205.8 354.08C225.44 351.64 241.82 349.39 242.21 349.08C242.61 348.76 242.5 340.63 241.97 331C241.45 321.38 241.13 313.36 241.26 313.2C241.39 313.03 246.45 313.4 252.5 314.02C259.62 314.75 263.68 314.81 264 314.18C264.27 313.64 266.75 301.25 269.5 286.65C272.25 272.04 274.27 259.87 274 259.6C273.73 259.32 265.96 258.74 256.75 258.3L239.99 257.5L240 176C230.31 176.21 215.35 176.9 200.5 177.67Z" />
		<path id="Path 6" class="shp0" d="M183.45 234.75C182.58 236.81 180.55 241.76 178.94 245.75C177.32 249.74 176.11 253.16 176.25 253.36C176.39 253.57 178.86 254.02 181.75 254.36L187 255C189.37 240.66 190.27 235.49 190.53 234.25C190.89 232.53 190.47 231.89 188.75 231.51C187.51 231.25 186.17 231.02 185.76 231.01C185.35 231.01 184.31 232.69 183.45 234.75ZM303.75 433.46L286.99 435.5L287.03 452.5C279.26 451.34 276.98 451.11 276.96 451.25C276.94 451.39 275.86 457.13 274.57 464C273.28 470.88 272.4 476.84 272.61 477.25C272.82 477.66 276.38 478 280.5 478L288 478L288 516C305.44 515.16 312.41 514.71 314.75 514.46C318.98 514 319.02 513.95 323.87 504.75C326.55 499.66 332.63 487.74 337.37 478.25C342.12 468.76 345.89 460.8 345.75 460.55C345.61 460.3 339.43 459.33 332 458.39C324.57 457.44 318.17 456.41 317.78 456.09C317.38 455.76 317.94 450.16 319.02 443.63C320.11 437.1 320.88 431.68 320.75 431.59C320.61 431.5 312.96 432.34 303.75 433.46Z" />
		<path id="Path 7" class="shp1" d="M312.55 481.25C312.33 481.94 311.9 484.19 311.58 486.25C311.17 488.89 311.37 490 312.25 490.01C312.94 490.02 314.13 488.33 314.89 486.26C315.66 484.19 316.44 481.94 316.64 481.25C316.84 480.54 316.12 480 314.98 480C313.86 480 312.77 480.56 312.55 481.25Z" />
	</g>
</svg>