<svg version="1.2" baseProfile="tiny-ps" xmlns="http://www.w3.org/2000/svg" viewBox="0 0 388 562" width="388" height="562">
	<title>Red_Skip</title>
	<style>
		tspan { white-space:pre }
		.shp0 { fill: #ffffff } 
		.shp1 { fill: #ea323c } 
	</style>
	<g id="Background">
		<path id="Path 0" class="shp0" d="M27.5 2.69C24.17 3.51 19.28 5.72 16.5 7.67C13.75 9.6 9.85 13.5 7.84 16.34C5.51 19.63 3.61 23.95 2.59 28.25C1.16 34.33 1 59.36 1 281C1 502.64 1.16 527.67 2.59 533.75C3.61 538.05 5.51 542.37 7.84 545.66C9.85 548.5 13.75 552.39 16.5 554.32C19.57 556.46 24.1 558.43 28.25 559.41C34.28 560.83 51.98 561 194 561C336.02 561 353.72 560.83 359.75 559.41C364.05 558.39 368.37 556.49 371.66 554.16C374.5 552.15 378.39 548.25 380.32 545.5C382.46 542.43 384.43 537.9 385.41 533.75C386.84 527.67 387 502.64 387 281C387 59.36 386.84 34.33 385.41 28.25C384.39 23.95 382.49 19.63 380.16 16.34C378.15 13.5 374.25 9.61 371.5 7.68C368.43 5.54 363.9 3.57 359.75 2.59C353.71 1.17 336.21 1.01 193.25 1.11C56.31 1.21 32.64 1.43 27.5 2.69Z" />
		<path id="Path 1" class="shp1" d="M33.34 29.4C32.15 30.12 30.48 31.8 29.63 33.11C28.23 35.25 28.07 60.68 28.04 280.75C28.01 474.95 28.26 526.55 29.25 528.62C29.94 530.06 31.74 531.86 33.25 532.62C35.55 533.78 61.67 534 194 534C326.33 534 352.45 533.78 354.75 532.62C356.26 531.86 358.06 530.06 358.75 528.62C359.74 526.55 360 474.94 360 281C360 87.06 359.74 35.45 358.75 33.38C358.06 31.94 356.26 30.14 354.75 29.38C352.45 28.22 326.35 28.01 193.75 28.04C64.2 28.06 35.11 28.31 33.34 29.4Z" />
		<path id="Path 2" class="shp0" d="M62.49 40.72C59.73 41.7 55.63 43.85 53.38 45.5C51.13 47.15 48.14 49.85 46.73 51.5C45.32 53.15 43.12 56.75 41.84 59.5C39.99 63.49 39.52 66.22 39.51 73C39.5 80.18 39.91 82.35 42.17 87C43.64 90.03 46.79 94.48 49.17 96.91C51.55 99.33 55.98 102.48 59 103.91C63.57 106.06 65.93 106.5 73 106.5C80.17 106.5 82.36 106.08 87 103.83C90.03 102.36 94.48 99.21 96.91 96.83C99.33 94.45 102.48 90.03 103.91 87C106.06 82.43 106.5 80.07 106.5 73C106.5 65.93 106.06 63.57 103.91 59C102.48 55.98 99.33 51.52 96.91 49.09C94.48 46.67 90.03 43.55 87 42.17C83.26 40.45 79.27 39.54 74.5 39.3C69.58 39.05 66.01 39.47 62.49 40.72Z" />
		<path id="Path 3" class="shp1" d="M68.5 47.98C66.3 48.4 63.49 49.25 62.25 49.87L60 51C65.04 57.14 72.13 65.67 79 73.91C85.88 82.15 91.84 88.91 92.25 88.94C92.66 88.98 93.89 87.54 94.98 85.75C96.07 83.96 97.42 80.36 97.98 77.75C98.71 74.35 98.66 71.51 97.82 67.75C97.17 64.86 95.26 60.49 93.57 58.02C91.45 54.93 88.8 52.71 85 50.85C81.97 49.36 77.92 47.94 76 47.69C74.08 47.43 70.7 47.57 68.5 47.98ZM51.01 60.25C49.93 62.04 48.58 65.64 48.02 68.25C47.29 71.65 47.34 74.49 48.18 78.25C48.83 81.14 50.74 85.51 52.43 87.98C54.61 91.16 57.24 93.32 61.5 95.44C66.13 97.75 68.76 98.41 73 98.33C76.03 98.27 80.19 97.5 82.25 96.61L86 95C80.96 88.86 74.04 80.31 67.38 72.04C60.71 63.77 54.74 57 54.11 57C53.49 57 52.09 58.46 51.01 60.25Z" />
		<path id="Path 4" class="shp0" d="M196.5 116.06C192.65 116.58 184.78 118.18 179 119.6C173.22 121.03 164.68 123.67 160 125.46C155.32 127.26 147.9 130.54 143.5 132.76C139.1 134.98 131.45 139.46 126.5 142.72C121.55 145.97 113.45 152.02 108.5 156.14C103.55 160.27 96.4 166.99 92.62 171.07C88.83 175.16 83.16 181.88 80.01 186C76.86 190.13 72.11 196.88 69.45 201C66.79 205.13 61.79 214.35 58.34 221.5C54.88 228.65 50.51 239.22 48.63 245C46.75 250.78 44.29 259.77 43.17 265C42.05 270.23 40.65 278.89 40.07 284.25C39.48 289.61 39 298.27 39 303.5C39 308.73 39.66 318.06 40.47 324.25C41.28 330.44 43.05 339.77 44.4 345C45.76 350.23 48.61 358.77 50.74 364C52.88 369.23 56.46 376.65 58.7 380.5C60.94 384.35 65.45 391.1 68.72 395.5C71.98 399.9 78.47 407.1 83.14 411.5C87.81 415.9 94.75 421.6 98.56 424.16C102.38 426.72 109.1 430.67 113.5 432.93C117.9 435.2 126.22 438.56 132 440.42C137.78 442.27 145.88 444.4 150 445.14C154.54 445.96 164.21 446.47 174.5 446.42C187.82 446.36 193.66 445.88 201.5 444.21C207 443.04 215.78 440.69 221 438.99C226.22 437.3 235.22 433.64 241 430.88C246.78 428.11 255.32 423.35 260 420.31C264.68 417.27 272.55 411.51 277.5 407.52C282.45 403.52 290.06 396.49 294.4 391.88C298.75 387.27 304.87 380.13 308.01 376C311.15 371.88 315.89 365.13 318.55 361C321.21 356.88 326.21 347.65 329.66 340.5C333.12 333.35 337.49 322.77 339.37 317C341.25 311.23 343.71 302.23 344.83 297C345.95 291.77 347.35 283.11 347.93 277.75C348.52 272.39 349 263.73 349 258.5C349 253.28 348.34 243.94 347.53 237.75C346.72 231.56 344.95 222.22 343.6 217C342.24 211.78 339.39 203.22 337.26 198C335.12 192.78 331.54 185.35 329.3 181.5C327.06 177.65 322.55 170.9 319.28 166.5C316.02 162.1 309.53 154.9 304.86 150.5C300.19 146.1 293.25 140.4 289.44 137.84C285.62 135.28 278.9 131.34 274.5 129.08C270.1 126.83 262.45 123.64 257.5 121.99C252.55 120.35 245.13 118.32 241 117.49C236.88 116.65 226.75 115.78 218.5 115.54C210.25 115.3 200.35 115.54 196.5 116.06Z" />
		<path id="Path 5" class="shp1" d="M182 181.67C180.63 181.88 176.13 182.77 172 183.64C167.88 184.51 160.9 186.66 156.5 188.41C152.1 190.16 144.45 194.22 139.5 197.42C134.55 200.63 127.12 206.68 122.98 210.87C118.84 215.07 113.54 221.43 111.19 225C108.84 228.57 105.63 234.2 104.04 237.5C102.46 240.8 100.23 246.31 99.08 249.75C97.94 253.19 96.27 260.16 95.38 265.25C94.22 271.9 93.93 277.59 94.34 285.5C94.66 291.55 95.81 300.1 96.9 304.5C97.99 308.9 100.29 315.88 102.01 320C103.73 324.13 107.64 331.32 110.7 336C113.75 340.68 119.68 347.88 123.87 352.02C128.07 356.16 134.43 361.46 138 363.81C141.57 366.16 147.2 369.37 150.5 370.96C153.8 372.54 159.31 374.77 162.75 375.92C166.19 377.06 173.16 378.73 178.25 379.62C184.9 380.78 190.59 381.07 198.5 380.66C204.55 380.34 213.1 379.19 217.5 378.1C221.9 377.01 228.88 374.71 233 372.99C237.13 371.27 244.32 367.36 249 364.3C253.68 361.25 260.88 355.32 265.02 351.13C269.16 346.93 274.46 340.57 276.81 337C279.16 333.43 282.37 327.8 283.96 324.5C285.54 321.2 287.77 315.69 288.92 312.25C290.06 308.81 291.73 301.84 292.62 296.75C293.78 290.1 294.07 284.41 293.66 276.5C293.34 270.45 292.19 261.9 291.1 257.5C290.01 253.1 287.71 246.13 285.99 242C284.27 237.88 280.36 230.68 277.3 226C274.25 221.32 268.32 214.12 264.13 209.98C259.93 205.84 253.57 200.54 250 198.19C246.43 195.84 240.8 192.63 237.5 191.04C234.2 189.46 228.69 187.23 225.25 186.08C221.81 184.94 215.06 183.32 210.25 182.49C205.44 181.66 197.68 181.05 193 181.13C188.32 181.21 183.38 181.45 182 181.67Z" />
		<path id="Path 6" class="shp0" d="M176 208.01C171.88 209.13 165.69 211.38 162.25 213.02C158.81 214.66 156.11 216.4 156.25 216.9C156.39 217.39 177.81 243.16 203.87 274.15L251.23 330.5C256.66 322.75 259.75 317.35 261.6 313.5C263.45 309.65 265.88 302.9 267 298.5C268.33 293.24 269.02 287.24 269.02 281C269.02 274.82 268.32 268.71 267.02 263.5C265.91 259.1 263.24 251.9 261.07 247.5C258.9 243.1 254.93 236.8 252.26 233.5C249.59 230.2 244.73 225.35 241.45 222.73C238.18 220.1 232.57 216.44 229 214.58C225.43 212.72 219.35 210.2 215.5 208.99C210.32 207.35 205.25 206.67 196 206.38C185.69 206.05 182.18 206.34 176 208.01ZM132.24 238.25C129.95 241.69 126.94 246.97 125.57 250C124.19 253.03 122.14 259.1 121.02 263.5C119.67 268.8 118.98 274.71 118.98 281C118.98 287.18 119.68 293.29 120.98 298.5C122.09 302.9 124.76 310.1 126.93 314.5C129.1 318.9 133.07 325.2 135.74 328.5C138.41 331.8 143.27 336.65 146.55 339.27C149.82 341.9 155.43 345.56 159 347.42C162.57 349.28 168.65 351.79 172.5 353C177.25 354.49 183.2 355.37 191 355.73C200.66 356.18 203.86 355.92 211 354.11C215.68 352.93 222.31 350.62 225.75 348.98C229.19 347.34 231.89 345.6 231.75 345.1C231.61 344.61 210.24 318.96 184.25 288.1C158.26 257.25 136.87 232 136.71 232C136.54 232 134.53 234.81 132.24 238.25ZM304.49 456.72C301.73 457.7 297.63 459.85 295.38 461.5C293.13 463.15 290.14 465.85 288.73 467.5C287.32 469.15 285.12 472.75 283.84 475.5C281.99 479.49 281.52 482.22 281.51 489C281.5 496.18 281.91 498.35 284.17 503C285.64 506.02 288.79 510.48 291.17 512.91C293.55 515.33 297.98 518.48 301 519.91C305.57 522.06 307.93 522.5 315 522.5C322.17 522.5 324.36 522.08 329 519.83C332.02 518.36 336.48 515.21 338.91 512.83C341.33 510.45 344.48 506.02 345.91 503C348.06 498.43 348.5 496.07 348.5 489C348.5 481.93 348.06 479.57 345.91 475C344.48 471.98 341.33 467.52 338.91 465.09C336.48 462.67 332.02 459.55 329 458.17C325.26 456.45 321.27 455.54 316.5 455.3C311.58 455.05 308.01 455.47 304.49 456.72Z" />
		<path id="Path 7" class="shp1" d="M310.5 463.98C308.3 464.4 305.49 465.25 304.25 465.87L302 467C307.04 473.14 314.13 481.67 321 489.91C327.88 498.15 333.84 504.91 334.25 504.94C334.66 504.98 335.89 503.54 336.98 501.75C338.07 499.96 339.42 496.36 339.98 493.75C340.71 490.35 340.66 487.51 339.82 483.75C339.17 480.86 337.26 476.49 335.57 474.02C333.45 470.93 330.8 468.71 327 466.85C323.98 465.36 319.93 463.94 318 463.69C316.07 463.43 312.7 463.57 310.5 463.98ZM293.01 476.25C291.93 478.04 290.58 481.64 290.02 484.25C289.29 487.65 289.34 490.49 290.18 494.25C290.83 497.14 292.74 501.51 294.43 503.98C296.61 507.16 299.24 509.32 303.5 511.44C308.13 513.75 310.76 514.41 315 514.33C318.02 514.27 322.19 513.5 324.25 512.61L328 511C322.96 504.86 316.04 496.31 309.38 488.04C302.71 479.77 296.74 473 296.11 473C295.49 473 294.09 474.46 293.01 476.25Z" />
	</g>
</svg>