<svg version="1.2" baseProfile="tiny-ps" xmlns="http://www.w3.org/2000/svg" viewBox="0 0 388 562" width="388" height="562">
	<title>Red_3</title>
	<style>
		tspan { white-space:pre }
		.shp0 { fill: #ffffff } 
		.shp1 { fill: #ea323c } 
	</style>
	<g id="Background">
		<path id="Path 0" class="shp0" d="M27.5 2.69C24.17 3.51 19.28 5.72 16.5 7.67C13.75 9.6 9.85 13.5 7.84 16.34C5.51 19.63 3.61 23.95 2.59 28.25C1.16 34.33 1 59.36 1 281C1 502.64 1.16 527.67 2.59 533.75C3.61 538.05 5.51 542.37 7.84 545.66C9.85 548.5 13.75 552.39 16.5 554.32C19.57 556.46 24.1 558.43 28.25 559.41C34.28 560.83 51.98 561 194 561C336.02 561 353.72 560.83 359.75 559.41C364.05 558.39 368.37 556.49 371.66 554.16C374.5 552.15 378.39 548.25 380.32 545.5C382.46 542.43 384.43 537.9 385.41 533.75C386.84 527.67 387 502.64 387 281C387 59.36 386.84 34.33 385.41 28.25C384.39 23.95 382.49 19.63 380.16 16.34C378.15 13.5 374.25 9.61 371.5 7.68C368.43 5.54 363.9 3.57 359.75 2.59C353.71 1.17 336.21 1.01 193.25 1.11C56.31 1.21 32.64 1.43 27.5 2.69Z" />
		<path id="Path 1" class="shp1" d="M33.34 29.4C32.15 30.12 30.48 31.8 29.63 33.11C28.23 35.25 28.07 60.68 28.04 280.75C28.01 474.95 28.26 526.55 29.25 528.62C29.94 530.06 31.74 531.86 33.25 532.62C35.55 533.78 61.67 534 194 534C326.33 534 352.45 533.78 354.75 532.62C356.26 531.86 358.06 530.06 358.75 528.62C359.74 526.55 360 474.94 360 281C360 87.06 359.74 35.45 358.75 33.38C358.06 31.94 356.26 30.14 354.75 29.38C352.45 28.22 326.35 28.01 193.75 28.04C64.2 28.06 35.11 28.31 33.34 29.4Z" />
		<path id="Path 2" class="shp0" d="M49.05 42.15C48.96 42.34 48.12 48.04 47.19 54.82C46.26 61.59 45.6 67.21 45.71 67.32C45.83 67.42 49.88 66.72 54.71 65.77C59.55 64.81 65.64 64.03 68.25 64.02C70.86 64.01 73 64.45 73 65C73 65.55 71.99 66.46 70.75 67.02C69.51 67.59 66.01 68.37 62.97 68.77L57.44 69.5L61.5 90.5C70.58 90.11 73 90.42 73 91C73 91.55 72.33 92.22 71.5 92.5C70.67 92.78 63.92 93 56.5 93C49.08 93 42.82 93.34 42.6 93.75C42.39 94.16 43.29 100.8 44.62 108.5C45.94 116.2 47.13 122.62 47.26 122.76C47.39 122.9 52.22 122.34 58 121.51C63.78 120.68 71.76 119.1 75.75 118C79.74 116.9 85.14 114.92 87.75 113.59C90.36 112.26 93.93 109.68 95.69 107.84C97.44 106 99.35 103.26 99.94 101.75C100.52 100.24 101 95.85 101 92C101 85.52 100.78 84.79 98.03 82.25L95.06 79.5C98.17 76.4 99.57 73.92 100.18 72C100.81 69.98 101 66.06 100.64 62.75C100.29 59.59 99.33 55.65 98.5 54C97.67 52.35 95.54 49.92 93.75 48.6C91.96 47.28 88.25 45.41 85.5 44.43C81.81 43.12 76.41 42.54 64.86 42.22C56.25 41.99 49.14 41.95 49.05 42.15ZM196.5 116.06C192.65 116.58 184.78 118.18 179 119.6C173.22 121.03 164.68 123.67 160 125.46C155.32 127.26 147.9 130.54 143.5 132.76C139.1 134.98 131.45 139.46 126.5 142.72C121.55 145.97 113.45 152.02 108.5 156.14C103.55 160.27 96.4 166.99 92.62 171.07C88.83 175.16 83.16 181.88 80.01 186C76.86 190.13 72.11 196.88 69.45 201C66.79 205.13 61.79 214.35 58.34 221.5C54.88 228.65 50.51 239.22 48.63 245C46.75 250.78 44.29 259.77 43.17 265C42.05 270.23 40.65 278.89 40.07 284.25C39.48 289.61 39 298.27 39 303.5C39 308.73 39.66 318.06 40.47 324.25C41.28 330.44 43.05 339.77 44.4 345C45.76 350.23 48.61 358.77 50.74 364C52.88 369.23 56.46 376.65 58.7 380.5C60.94 384.35 65.45 391.1 68.72 395.5C71.98 399.9 78.47 407.1 83.14 411.5C87.81 415.9 94.75 421.6 98.56 424.16C102.38 426.72 109.1 430.67 113.5 432.93C117.9 435.2 126.22 438.56 132 440.42C137.78 442.27 145.88 444.4 150 445.14C154.54 445.96 164.21 446.47 174.5 446.42C187.82 446.36 193.66 445.88 201.5 444.21C207 443.04 215.78 440.69 221 438.99C226.22 437.3 235.22 433.64 241 430.88C246.78 428.11 255.32 423.35 260 420.31C264.68 417.27 272.55 411.51 277.5 407.52C282.45 403.52 290.06 396.49 294.4 391.88C298.75 387.27 304.87 380.13 308.01 376C311.15 371.88 315.89 365.13 318.55 361C321.21 356.88 326.21 347.65 329.66 340.5C333.12 333.35 337.49 322.77 339.37 317C341.25 311.23 343.71 302.23 344.83 297C345.95 291.77 347.35 283.11 347.93 277.75C348.52 272.39 349 263.73 349 258.5C349 253.28 348.34 243.94 347.53 237.75C346.72 231.56 344.95 222.22 343.6 217C342.24 211.78 339.39 203.22 337.26 198C335.12 192.78 331.54 185.35 329.3 181.5C327.06 177.65 322.55 170.9 319.28 166.5C316.02 162.1 309.53 154.9 304.86 150.5C300.19 146.1 293.25 140.4 289.44 137.84C285.62 135.28 278.9 131.34 274.5 129.08C270.1 126.83 262.45 123.64 257.5 121.99C252.55 120.35 245.13 118.32 241 117.49C236.88 116.65 226.75 115.78 218.5 115.54C210.25 115.3 200.35 115.54 196.5 116.06Z" />
		<path id="Path 3" class="shp1" d="M157.75 187.74C145.44 187.99 144.98 188.08 144.51 190.25C144.24 191.49 142.65 202.63 140.98 215C139.3 227.38 137.7 238.85 137.43 240.5L136.92 243.5C152.87 240.03 162.68 238.11 169 237C175.32 235.89 183.54 234.98 187.25 234.99C190.96 235 194.68 235.22 195.5 235.5C196.32 235.78 197.01 236.79 197.03 237.75C197.05 238.71 196.26 240.3 195.28 241.27C194.3 242.24 191.03 243.65 188 244.39C184.97 245.13 178.22 246.08 173 246.49L163.5 247.24C165.43 258.29 167.38 268.7 169.07 277.5L172.15 293.5C179.4 292.43 184.43 292.08 188 292.04C191.71 292 195.32 292.51 196.4 293.23C197.45 293.93 198.01 295.06 197.65 295.75C197.29 296.44 195.31 297.51 193.25 298.13C191.08 298.78 176.97 299.51 159.7 299.88C130.57 300.49 129.92 300.54 130.37 302.5C130.63 303.6 133.01 317.66 135.67 333.75C140.33 362 140.58 363.01 142.75 363C143.99 363 151.97 362.1 160.5 361C169.03 359.9 181.51 357.84 188.25 356.41C194.99 354.99 204.55 352.53 209.5 350.96C214.45 349.38 221.2 346.9 224.5 345.44C227.8 343.98 233.43 340.87 237 338.52C240.57 336.17 245.16 332.51 247.18 330.38C249.21 328.24 251.98 324.25 253.35 321.5C254.76 318.65 256.36 312.84 257.06 308C257.73 303.32 258.05 296.13 257.77 292C257.44 287.22 256.48 282.96 255.13 280.25C253.96 277.91 251.76 275.07 250.25 273.94C248.74 272.8 246.49 271.68 245.25 271.44C244.01 271.2 243.02 270.66 243.04 270.25C243.06 269.84 244.86 268.26 247.04 266.75C249.7 264.9 251.89 262.12 253.71 258.25C255.76 253.91 256.53 250.53 256.83 244.5C257.05 240.1 256.73 233.35 256.12 229.5C255.52 225.65 254.59 220.93 254.06 219C253.54 217.07 251.58 213.25 249.71 210.5C247.64 207.47 243.79 203.82 239.9 201.23C236.38 198.88 230.13 195.85 226 194.48C221.88 193.12 214.9 191.31 210.5 190.47C206.1 189.63 197.78 188.72 192 188.45C186.22 188.17 179.03 187.84 176 187.71C172.97 187.58 164.76 187.6 157.75 187.74Z" />
		<path id="Path 4" class="shp0" d="M321.5 430.6C316.55 431.37 309.24 432.9 305.25 434C301.26 435.1 295.86 437.08 293.25 438.41C290.64 439.74 287.07 442.32 285.31 444.16C283.56 446 281.65 448.74 281.06 450.25C280.48 451.76 280 456.15 280 460C280 466.48 280.22 467.21 282.97 469.75L285.94 472.5C282.83 475.6 281.43 478.07 280.82 480C280.19 482.02 280 485.94 280.36 489.25C280.71 492.41 281.68 496.35 282.5 498C283.32 499.65 285.46 502.08 287.25 503.4C289.04 504.72 292.75 506.59 295.5 507.57C299.27 508.91 304.37 509.43 316.25 509.67C331.9 510 332 509.99 332.48 507.75C332.75 506.51 333.53 500.86 334.23 495.19C334.93 489.51 335.4 484.79 335.29 484.69C335.17 484.58 331.12 485.28 326.29 486.23C321.45 487.19 315.36 487.97 312.75 487.98C310.14 487.99 308 487.55 308 487C308 486.45 309.01 485.54 310.25 484.98C311.49 484.41 315 483.63 318.05 483.23L323.6 482.5L319.5 461.5C312.52 462.09 309.82 461.92 309 461.5C307.67 460.83 307.67 460.65 309 459.89C309.82 459.42 316.91 459.02 324.75 459.02L339 459C338.26 454.74 337.35 449.23 336.5 444C335.65 438.77 334.74 433.26 334.47 431.75C334.16 429.92 333.41 429.03 332.25 429.1C331.29 429.15 326.45 429.83 321.5 430.6Z" />
	</g>
</svg>